<svg xmlns="http://www.w3.org/2000/svg" xmlns:xlink="http://www.w3.org/1999/xlink" width="840" zoomAndPan="magnify" viewBox="0 0 630 225" height="300" preserveAspectRatio="xMidYMid meet" version="1.0"><defs><g/><clipPath id="71d52286f4"><rect x="0" width="330" y="0" height="75"/></clipPath></defs><rect x="-63" width="756" fill="#ffffff" y="-22.5" height="270" fill-opacity="1"/><rect x="-63" width="756" fill="#cb6b4d" y="-22.5" height="270" fill-opacity="1"/><g transform="matrix(1, 0, 0, 1, 149, 75)"><g clip-path="url(#71d52286f4)"><g fill="#fbe8d8" fill-opacity="1"><g transform="translate(1.655745, 57.318836)"><g><path d="M 0.46875 -1.78125 C 0.46875 -2.53125 0.703125 -3.09375 1.171875 -3.46875 C 1.640625 -3.84375 2.28125 -4.34375 3.09375 -4.96875 C 3.90625 -5.59375 4.8125 -6.59375 5.8125 -7.96875 C 6.375 -8.78125 7.078125 -10.304688 7.921875 -12.546875 C 8.765625 -14.796875 9.679688 -17.421875 10.671875 -20.421875 C 11.671875 -23.421875 12.6875 -26.507812 13.71875 -29.6875 C 14.75 -32.875 15.703125 -35.8125 16.578125 -38.5 C 17.078125 -39.9375 17.265625 -40.984375 17.140625 -41.640625 C 17.015625 -42.296875 16.75 -42.796875 16.34375 -43.140625 C 15.9375 -43.484375 15.5625 -43.796875 15.21875 -44.078125 C 14.875 -44.359375 14.703125 -44.8125 14.703125 -45.4375 C 14.703125 -46.3125 15.09375 -46.851562 15.875 -47.0625 C 16.65625 -47.28125 17.546875 -47.390625 18.546875 -47.390625 C 19.734375 -47.390625 20.640625 -47.296875 21.265625 -47.109375 C 21.890625 -46.921875 23.015625 -46.828125 24.640625 -46.828125 C 26.453125 -46.828125 27.851562 -46.921875 28.84375 -47.109375 C 29.84375 -47.296875 30.8125 -47.390625 31.75 -47.390625 C 32.4375 -47.390625 33.015625 -47.296875 33.484375 -47.109375 C 33.953125 -46.921875 34.40625 -46.300781 34.84375 -45.25 C 35.40625 -43.9375 36.125 -41.890625 37 -39.109375 C 37.875 -36.328125 38.828125 -33.25 39.859375 -29.875 C 40.890625 -26.507812 41.9375 -23.1875 43 -19.90625 C 44.0625 -16.625 45.054688 -13.765625 45.984375 -11.328125 C 46.921875 -8.898438 47.703125 -7.28125 48.328125 -6.46875 C 49.390625 -5.15625 50.234375 -4.28125 50.859375 -3.84375 C 51.484375 -3.40625 51.796875 -2.71875 51.796875 -1.78125 C 51.796875 -0.84375 51.484375 -0.21875 50.859375 0.09375 C 50.234375 0.40625 49.390625 0.5625 48.328125 0.5625 C 47.148438 0.5625 45.734375 0.46875 44.078125 0.28125 C 42.421875 0.09375 40.625 0 38.6875 0 C 37.75 0 36.609375 0.09375 35.265625 0.28125 C 33.921875 0.46875 32.625 0.5625 31.375 0.5625 C 30.25 0.5625 29.296875 0.40625 28.515625 0.09375 C 27.742188 -0.21875 27.359375 -0.84375 27.359375 -1.78125 C 27.359375 -2.71875 27.554688 -3.390625 27.953125 -3.796875 C 28.359375 -4.203125 28.75 -4.78125 29.125 -5.53125 C 29.5 -6.28125 29.6875 -7.554688 29.6875 -9.359375 C 29.6875 -10.796875 29.34375 -11.921875 28.65625 -12.734375 C 27.976562 -13.546875 27.109375 -13.953125 26.046875 -13.953125 L 17.421875 -13.953125 C 16.359375 -13.953125 15.484375 -13.546875 14.796875 -12.734375 C 14.109375 -11.921875 13.765625 -10.796875 13.765625 -9.359375 C 13.765625 -7.554688 14.015625 -6.25 14.515625 -5.4375 C 15.015625 -4.625 15.515625 -4 16.015625 -3.5625 C 16.515625 -3.125 16.765625 -2.53125 16.765625 -1.78125 C 16.765625 -0.90625 16.421875 -0.296875 15.734375 0.046875 C 15.046875 0.390625 14.265625 0.5625 13.390625 0.5625 C 12.328125 0.5625 11.5 0.46875 10.90625 0.28125 C 10.3125 0.09375 9.550781 0 8.625 0 C 7.6875 0 6.921875 0.09375 6.328125 0.28125 C 5.734375 0.46875 4.90625 0.5625 3.84375 0.5625 C 2.96875 0.5625 2.1875 0.390625 1.5 0.046875 C 0.8125 -0.296875 0.46875 -0.90625 0.46875 -1.78125 Z M 16.390625 -20.703125 C 15.890625 -19.265625 16.359375 -18.546875 17.796875 -18.546875 L 25.390625 -18.546875 C 26.828125 -18.546875 27.296875 -19.265625 26.796875 -20.703125 C 25.984375 -23.078125 25.203125 -25.554688 24.453125 -28.140625 C 23.703125 -30.734375 23.078125 -32.90625 22.578125 -34.65625 C 22.328125 -35.46875 22.046875 -35.875 21.734375 -35.875 C 21.484375 -35.875 21.203125 -35.5 20.890625 -34.75 C 20.265625 -33 19.578125 -30.8125 18.828125 -28.1875 C 18.078125 -25.570312 17.265625 -23.078125 16.390625 -20.703125 Z M 16.390625 -20.703125 "/></g></g></g><g fill="#fbe8d8" fill-opacity="1"><g transform="translate(50.08181, 57.318836)"><g><path d="M 0.9375 -35.21875 C 0.9375 -36.15625 1.25 -36.78125 1.875 -37.09375 C 2.5 -37.40625 3.375 -37.71875 4.5 -38.03125 C 5.625 -38.34375 6.9375 -38.96875 8.4375 -39.90625 C 10.425781 -41.15625 11.859375 -42.359375 12.734375 -43.515625 C 13.609375 -44.671875 14.296875 -45.601562 14.796875 -46.3125 C 15.296875 -47.03125 15.953125 -47.390625 16.765625 -47.390625 C 17.890625 -47.390625 18.5625 -46.828125 18.78125 -45.703125 C 19 -44.585938 19.109375 -43.34375 19.109375 -41.96875 L 19.109375 -38.5 C 19.109375 -37.8125 19.453125 -37.46875 20.140625 -37.46875 L 21.640625 -37.46875 C 23.203125 -37.46875 23.984375 -36.6875 23.984375 -35.125 C 23.984375 -33.5 23.203125 -32.6875 21.640625 -32.6875 L 20.140625 -32.6875 C 19.453125 -32.6875 19.109375 -32.34375 19.109375 -31.65625 L 19.109375 -20.703125 C 19.109375 -16.703125 19.15625 -13.796875 19.25 -11.984375 C 19.34375 -10.179688 19.828125 -8.84375 20.703125 -7.96875 C 21.265625 -7.46875 21.734375 -7.15625 22.109375 -7.03125 C 22.484375 -6.90625 22.765625 -6.75 22.953125 -6.5625 C 23.140625 -6.375 23.234375 -5.9375 23.234375 -5.25 C 23.234375 -4.0625 22.5625 -2.796875 21.21875 -1.453125 C 19.875 -0.109375 17.515625 0.5625 14.140625 0.5625 C 10.210938 0.5625 7.546875 -0.859375 6.140625 -3.703125 C 4.734375 -6.546875 4.03125 -10.242188 4.03125 -14.796875 L 4.125 -28.375 C 4.125 -30.0625 3.859375 -31.234375 3.328125 -31.890625 C 2.796875 -32.546875 2.265625 -33.0625 1.734375 -33.4375 C 1.203125 -33.8125 0.9375 -34.40625 0.9375 -35.21875 Z M 0.9375 -35.21875 "/></g></g></g><g fill="#fbe8d8" fill-opacity="1"><g transform="translate(70.68858, 57.318836)"><g><path d="M 0.9375 -35.21875 C 0.9375 -36.15625 1.25 -36.78125 1.875 -37.09375 C 2.5 -37.40625 3.375 -37.71875 4.5 -38.03125 C 5.625 -38.34375 6.9375 -38.96875 8.4375 -39.90625 C 10.425781 -41.15625 11.859375 -42.359375 12.734375 -43.515625 C 13.609375 -44.671875 14.296875 -45.601562 14.796875 -46.3125 C 15.296875 -47.03125 15.953125 -47.390625 16.765625 -47.390625 C 17.890625 -47.390625 18.5625 -46.828125 18.78125 -45.703125 C 19 -44.585938 19.109375 -43.34375 19.109375 -41.96875 L 19.109375 -38.5 C 19.109375 -37.8125 19.453125 -37.46875 20.140625 -37.46875 L 21.640625 -37.46875 C 23.203125 -37.46875 23.984375 -36.6875 23.984375 -35.125 C 23.984375 -33.5 23.203125 -32.6875 21.640625 -32.6875 L 20.140625 -32.6875 C 19.453125 -32.6875 19.109375 -32.34375 19.109375 -31.65625 L 19.109375 -20.703125 C 19.109375 -16.703125 19.15625 -13.796875 19.25 -11.984375 C 19.34375 -10.179688 19.828125 -8.84375 20.703125 -7.96875 C 21.265625 -7.46875 21.734375 -7.15625 22.109375 -7.03125 C 22.484375 -6.90625 22.765625 -6.75 22.953125 -6.5625 C 23.140625 -6.375 23.234375 -5.9375 23.234375 -5.25 C 23.234375 -4.0625 22.5625 -2.796875 21.21875 -1.453125 C 19.875 -0.109375 17.515625 0.5625 14.140625 0.5625 C 10.210938 0.5625 7.546875 -0.859375 6.140625 -3.703125 C 4.734375 -6.546875 4.03125 -10.242188 4.03125 -14.796875 L 4.125 -28.375 C 4.125 -30.0625 3.859375 -31.234375 3.328125 -31.890625 C 2.796875 -32.546875 2.265625 -33.0625 1.734375 -33.4375 C 1.203125 -33.8125 0.9375 -34.40625 0.9375 -35.21875 Z M 0.9375 -35.21875 "/></g></g></g><g fill="#fbe8d8" fill-opacity="1"><g transform="translate(91.295351, 57.318836)"><g><path d="M 22.203125 0.5625 C 15.953125 0.5625 11 -1.132812 7.34375 -4.53125 C 3.695312 -7.9375 1.875 -12.671875 1.875 -18.734375 C 1.875 -24.859375 3.695312 -29.601562 7.34375 -32.96875 C 11 -36.34375 15.953125 -38.03125 22.203125 -38.03125 C 28.441406 -38.03125 33.390625 -36.34375 37.046875 -32.96875 C 40.703125 -29.601562 42.53125 -24.859375 42.53125 -18.734375 C 42.53125 -12.671875 40.703125 -7.9375 37.046875 -4.53125 C 33.390625 -1.132812 28.441406 0.5625 22.203125 0.5625 Z M 17.328125 -18.734375 C 17.328125 -16.171875 17.46875 -13.8125 17.75 -11.65625 C 18.03125 -9.507812 18.53125 -7.8125 19.25 -6.5625 C 19.96875 -5.3125 20.953125 -4.6875 22.203125 -4.6875 C 23.515625 -4.6875 24.53125 -5.3125 25.25 -6.5625 C 25.96875 -7.8125 26.453125 -9.507812 26.703125 -11.65625 C 26.953125 -13.8125 27.078125 -16.171875 27.078125 -18.734375 C 27.078125 -21.359375 26.953125 -23.726562 26.703125 -25.84375 C 26.453125 -27.96875 25.96875 -29.65625 25.25 -30.90625 C 24.53125 -32.15625 23.515625 -32.78125 22.203125 -32.78125 C 20.953125 -32.78125 19.96875 -32.15625 19.25 -30.90625 C 18.53125 -29.65625 18.03125 -27.96875 17.75 -25.84375 C 17.46875 -23.726562 17.328125 -21.359375 17.328125 -18.734375 Z M 17.328125 -18.734375 "/></g></g></g><g fill="#fbe8d8" fill-opacity="1"><g transform="translate(131.853335, 57.318836)"><g><path d="M 0.9375 -1.78125 C 0.9375 -2.46875 1.09375 -2.984375 1.40625 -3.328125 C 1.71875 -3.671875 2.09375 -4.109375 2.53125 -4.640625 C 2.96875 -5.171875 3.34375 -6 3.65625 -7.125 C 3.96875 -8.25 4.125 -9.898438 4.125 -12.078125 C 4.125 -14.953125 4.140625 -17.03125 4.171875 -18.3125 C 4.203125 -19.59375 4.21875 -20.53125 4.21875 -21.125 C 4.21875 -21.71875 4.21875 -22.390625 4.21875 -23.140625 C 4.21875 -24.828125 3.953125 -26 3.421875 -26.65625 C 2.890625 -27.3125 2.359375 -27.820312 1.828125 -28.1875 C 1.296875 -28.5625 1.03125 -29.15625 1.03125 -29.96875 C 1.03125 -30.90625 1.34375 -31.546875 1.96875 -31.890625 C 2.59375 -32.234375 3.484375 -32.53125 4.640625 -32.78125 C 5.796875 -33.03125 7.1875 -33.4375 8.8125 -34 C 10.800781 -34.75 12.171875 -35.421875 12.921875 -36.015625 C 13.671875 -36.609375 14.234375 -37.09375 14.609375 -37.46875 C 14.984375 -37.84375 15.578125 -38.03125 16.390625 -38.03125 C 17.515625 -38.03125 18.265625 -37.53125 18.640625 -36.53125 C 19.015625 -35.53125 19.203125 -34.34375 19.203125 -32.96875 L 19.203125 -32.59375 C 19.203125 -31.03125 19.234375 -30.265625 19.296875 -30.296875 C 19.359375 -30.328125 19.796875 -31.03125 20.609375 -32.40625 C 21.671875 -34.21875 23.15625 -35.609375 25.0625 -36.578125 C 26.96875 -37.546875 28.789062 -38.03125 30.53125 -38.03125 C 33.96875 -38.03125 36.1875 -37.296875 37.1875 -35.828125 C 38.1875 -34.359375 38.21875 -32.21875 37.28125 -29.40625 C 36.53125 -27.164062 35.859375 -25.625 35.265625 -24.78125 C 34.671875 -23.9375 34.09375 -23.515625 33.53125 -23.515625 C 32.90625 -23.515625 32.21875 -23.890625 31.46875 -24.640625 C 30.71875 -25.390625 29.890625 -26.125 28.984375 -26.84375 C 28.085938 -27.5625 26.984375 -27.921875 25.671875 -27.921875 C 24.921875 -27.921875 24.03125 -27.671875 23 -27.171875 C 21.96875 -26.671875 21.078125 -25.765625 20.328125 -24.453125 C 19.578125 -23.140625 19.203125 -21.296875 19.203125 -18.921875 L 19.203125 -12.078125 C 19.203125 -9.898438 19.359375 -8.25 19.671875 -7.125 C 19.984375 -6 20.359375 -5.171875 20.796875 -4.640625 C 21.234375 -4.109375 21.609375 -3.671875 21.921875 -3.328125 C 22.234375 -2.984375 22.390625 -2.46875 22.390625 -1.78125 C 22.390625 -0.84375 22.03125 -0.21875 21.3125 0.09375 C 20.59375 0.40625 19.703125 0.5625 18.640625 0.5625 C 17.453125 0.5625 16.21875 0.46875 14.9375 0.28125 C 13.65625 0.09375 12.546875 0 11.609375 0 C 10.671875 0 9.5625 0.09375 8.28125 0.28125 C 7.007812 0.46875 5.8125 0.5625 4.6875 0.5625 C 3.625 0.5625 2.734375 0.40625 2.015625 0.09375 C 1.296875 -0.21875 0.9375 -0.84375 0.9375 -1.78125 Z M 0.9375 -1.78125 "/></g></g></g><g fill="#fbe8d8" fill-opacity="1"><g transform="translate(167.353259, 57.318836)"><g><path d="M 0.9375 -1.78125 C 0.9375 -2.46875 1.09375 -2.984375 1.40625 -3.328125 C 1.71875 -3.671875 2.09375 -4.109375 2.53125 -4.640625 C 2.96875 -5.171875 3.34375 -6 3.65625 -7.125 C 3.96875 -8.25 4.125 -9.898438 4.125 -12.078125 C 4.125 -14.953125 4.140625 -17.03125 4.171875 -18.3125 C 4.203125 -19.59375 4.21875 -20.53125 4.21875 -21.125 C 4.21875 -21.71875 4.21875 -22.390625 4.21875 -23.140625 C 4.21875 -24.828125 3.953125 -26 3.421875 -26.65625 C 2.890625 -27.3125 2.359375 -27.820312 1.828125 -28.1875 C 1.296875 -28.5625 1.03125 -29.15625 1.03125 -29.96875 C 1.03125 -30.90625 1.34375 -31.546875 1.96875 -31.890625 C 2.59375 -32.234375 3.484375 -32.53125 4.640625 -32.78125 C 5.796875 -33.03125 7.1875 -33.4375 8.8125 -34 C 10.800781 -34.75 12.171875 -35.421875 12.921875 -36.015625 C 13.671875 -36.609375 14.234375 -37.09375 14.609375 -37.46875 C 14.984375 -37.84375 15.578125 -38.03125 16.390625 -38.03125 C 17.515625 -38.03125 18.265625 -37.53125 18.640625 -36.53125 C 19.015625 -35.53125 19.203125 -34.34375 19.203125 -32.96875 L 19.203125 -32.21875 C 19.203125 -31.34375 19.359375 -30.90625 19.671875 -30.90625 C 19.984375 -30.90625 20.484375 -31.265625 21.171875 -31.984375 C 21.859375 -32.703125 22.75 -33.53125 23.84375 -34.46875 C 24.9375 -35.40625 26.242188 -36.234375 27.765625 -36.953125 C 29.296875 -37.671875 31.03125 -38.03125 32.96875 -38.03125 C 35.90625 -38.03125 38.125 -37.40625 39.625 -36.15625 C 41.125 -34.90625 42.140625 -33.34375 42.671875 -31.46875 C 43.203125 -29.59375 43.46875 -27.691406 43.46875 -25.765625 L 43.46875 -12.078125 C 43.46875 -9.898438 43.625 -8.25 43.9375 -7.125 C 44.25 -6 44.625 -5.171875 45.0625 -4.640625 C 45.5 -4.109375 45.875 -3.671875 46.1875 -3.328125 C 46.5 -2.984375 46.65625 -2.46875 46.65625 -1.78125 C 46.65625 -0.84375 46.390625 -0.21875 45.859375 0.09375 C 45.328125 0.40625 44.625 0.5625 43.75 0.5625 C 42.875 0.5625 41.859375 0.46875 40.703125 0.28125 C 39.546875 0.09375 38.4375 0 37.375 0 C 36.375 0 35.515625 0.046875 34.796875 0.140625 C 34.078125 0.234375 33.3125 0.34375 32.5 0.46875 C 31.25 0.59375 30.234375 0.3125 29.453125 -0.375 C 28.671875 -1.0625 28.28125 -2.03125 28.28125 -3.28125 L 28.28125 -18.640625 C 28.28125 -21.640625 27.96875 -23.921875 27.34375 -25.484375 C 26.726562 -27.046875 25.609375 -27.828125 23.984375 -27.828125 C 22.546875 -27.828125 21.390625 -27.09375 20.515625 -25.625 C 19.640625 -24.15625 19.203125 -21.140625 19.203125 -16.578125 L 19.203125 -12.078125 C 19.203125 -9.898438 19.359375 -8.25 19.671875 -7.125 C 19.984375 -6 20.359375 -5.171875 20.796875 -4.640625 C 21.234375 -4.109375 21.609375 -3.671875 21.921875 -3.328125 C 22.234375 -2.984375 22.390625 -2.46875 22.390625 -1.78125 C 22.390625 -0.84375 22.03125 -0.21875 21.3125 0.09375 C 20.59375 0.40625 19.703125 0.5625 18.640625 0.5625 C 17.453125 0.5625 16.21875 0.46875 14.9375 0.28125 C 13.65625 0.09375 12.546875 0 11.609375 0 C 10.671875 0 9.5625 0.09375 8.28125 0.28125 C 7.007812 0.46875 5.8125 0.5625 4.6875 0.5625 C 3.625 0.5625 2.734375 0.40625 2.015625 0.09375 C 1.296875 -0.21875 0.9375 -0.84375 0.9375 -1.78125 Z M 0.9375 -1.78125 "/></g></g></g><g fill="#fbe8d8" fill-opacity="1"><g transform="translate(211.095937, 57.318836)"><g><path d="M 22.578125 0.5625 C 19.265625 0.5625 16.015625 -0.09375 12.828125 -1.40625 C 9.648438 -2.71875 7.03125 -4.773438 4.96875 -7.578125 C 2.90625 -10.390625 1.875 -14.078125 1.875 -18.640625 C 1.875 -22.515625 2.71875 -25.898438 4.40625 -28.796875 C 6.09375 -31.703125 8.429688 -33.96875 11.421875 -35.59375 C 14.421875 -37.21875 17.890625 -38.03125 21.828125 -38.03125 C 25.703125 -38.03125 28.851562 -37.5625 31.28125 -36.625 C 33.71875 -35.6875 35.609375 -34.484375 36.953125 -33.015625 C 38.296875 -31.546875 39.21875 -30.046875 39.71875 -28.515625 C 40.21875 -26.992188 40.46875 -25.671875 40.46875 -24.546875 C 40.46875 -21.421875 39.5 -18.875 37.5625 -16.90625 C 35.625 -14.9375 33.15625 -13.5 30.15625 -12.59375 C 27.164062 -11.6875 24.109375 -11.234375 20.984375 -11.234375 C 20.109375 -11.234375 19.46875 -10.921875 19.0625 -10.296875 C 18.65625 -9.671875 18.53125 -8.953125 18.6875 -8.140625 C 18.84375 -7.335938 19.34375 -6.625 20.1875 -6 C 21.03125 -5.375 22.234375 -5.0625 23.796875 -5.0625 C 26.046875 -5.0625 27.820312 -5.46875 29.125 -6.28125 C 30.4375 -7.09375 31.484375 -8.023438 32.265625 -9.078125 C 33.046875 -10.140625 33.796875 -11.078125 34.515625 -11.890625 C 35.234375 -12.703125 36.1875 -13.109375 37.375 -13.109375 C 38.4375 -13.109375 39.234375 -12.78125 39.765625 -12.125 C 40.296875 -11.46875 40.5625 -10.734375 40.5625 -9.921875 C 40.5625 -7.804688 39.734375 -5.96875 38.078125 -4.40625 C 36.421875 -2.84375 34.21875 -1.625 31.46875 -0.75 C 28.726562 0.125 25.765625 0.5625 22.578125 0.5625 Z M 21.828125 -33.25 C 20.515625 -33.25 19.46875 -32.46875 18.6875 -30.90625 C 17.90625 -29.34375 17.515625 -27.253906 17.515625 -24.640625 C 17.515625 -22.015625 17.90625 -19.921875 18.6875 -18.359375 C 19.46875 -16.796875 20.515625 -16.015625 21.828125 -16.015625 C 23.140625 -16.015625 24.1875 -16.796875 24.96875 -18.359375 C 25.75 -19.921875 26.140625 -22.015625 26.140625 -24.640625 C 26.140625 -27.253906 25.75 -29.34375 24.96875 -30.90625 C 24.1875 -32.46875 23.140625 -33.25 21.828125 -33.25 Z M 21.828125 -33.25 "/></g></g></g><g fill="#fbe8d8" fill-opacity="1"><g transform="translate(249.686907, 57.318836)"><g><path d="M 0 6.375 C 0 4.9375 0.453125 3.609375 1.359375 2.390625 C 2.265625 1.171875 3.59375 0.5625 5.34375 0.5625 C 6.96875 0.5625 8.148438 0.84375 8.890625 1.40625 C 9.640625 1.96875 10.1875 2.65625 10.53125 3.46875 C 10.875 4.28125 11.15625 5.09375 11.375 5.90625 C 11.59375 6.71875 11.90625 7.40625 12.3125 7.96875 C 12.71875 8.53125 13.421875 8.8125 14.421875 8.8125 C 16.234375 8.8125 17.515625 8 18.265625 6.375 C 19.015625 4.75 19.015625 2.78125 18.265625 0.46875 C 17.640625 -1.46875 16.890625 -3.648438 16.015625 -6.078125 C 15.140625 -8.515625 14.25 -10.90625 13.34375 -13.25 C 12.4375 -15.59375 11.640625 -17.625 10.953125 -19.34375 C 10.265625 -21.0625 9.828125 -22.203125 9.640625 -22.765625 C 8.460938 -25.640625 7.390625 -27.804688 6.421875 -29.265625 C 5.453125 -30.734375 4.625 -31.78125 3.9375 -32.40625 C 3.25 -33.03125 2.71875 -33.546875 2.34375 -33.953125 C 1.96875 -34.359375 1.78125 -34.9375 1.78125 -35.6875 C 1.78125 -36.625 2.15625 -37.25 2.90625 -37.5625 C 3.65625 -37.875 4.5625 -38.03125 5.625 -38.03125 C 6.8125 -38.03125 8.054688 -37.9375 9.359375 -37.75 C 10.671875 -37.5625 11.796875 -37.46875 12.734375 -37.46875 C 13.921875 -37.46875 15.265625 -37.5625 16.765625 -37.75 C 18.265625 -37.9375 19.640625 -38.03125 20.890625 -38.03125 C 22.140625 -38.03125 23.15625 -37.875 23.9375 -37.5625 C 24.71875 -37.25 25.109375 -36.625 25.109375 -35.6875 C 25.109375 -34.8125 24.84375 -34.1875 24.3125 -33.8125 C 23.78125 -33.4375 23.515625 -32.6875 23.515625 -31.5625 C 23.515625 -30.5 23.703125 -29.140625 24.078125 -27.484375 C 24.453125 -25.835938 24.9375 -24.171875 25.53125 -22.484375 C 26.125 -20.796875 26.671875 -19.328125 27.171875 -18.078125 C 27.734375 -16.703125 28.320312 -16.734375 28.9375 -18.171875 C 29.5625 -19.484375 30.15625 -21.015625 30.71875 -22.765625 C 31.28125 -24.515625 31.765625 -26.195312 32.171875 -27.8125 C 32.578125 -29.4375 32.78125 -30.6875 32.78125 -31.5625 C 32.78125 -32.6875 32.484375 -33.484375 31.890625 -33.953125 C 31.296875 -34.421875 31 -35.09375 31 -35.96875 C 31 -36.78125 31.25 -37.328125 31.75 -37.609375 C 32.25 -37.890625 32.8125 -38.03125 33.4375 -38.03125 C 34.1875 -38.03125 34.984375 -37.9375 35.828125 -37.75 C 36.671875 -37.5625 37.375 -37.46875 37.9375 -37.46875 C 38.5 -37.46875 39.203125 -37.5625 40.046875 -37.75 C 40.890625 -37.9375 41.65625 -38.03125 42.34375 -38.03125 C 43.03125 -38.03125 43.578125 -37.90625 43.984375 -37.65625 C 44.390625 -37.40625 44.59375 -36.90625 44.59375 -36.15625 C 44.59375 -35.40625 44.40625 -34.828125 44.03125 -34.421875 C 43.65625 -34.015625 43.109375 -33.5 42.390625 -32.875 C 41.671875 -32.25 40.828125 -31.21875 39.859375 -29.78125 C 38.890625 -28.351562 37.84375 -26.171875 36.71875 -23.234375 C 36.53125 -22.671875 36.125 -21.515625 35.5 -19.765625 C 34.875 -18.015625 34.125 -15.953125 33.25 -13.578125 C 32.375 -11.203125 31.484375 -8.8125 30.578125 -6.40625 C 29.671875 -4.007812 28.84375 -1.875 28.09375 0 C 26.351562 4.1875 24.015625 7.742188 21.078125 10.671875 C 18.140625 13.609375 14.546875 15.078125 10.296875 15.078125 C 8.679688 15.078125 7.078125 14.796875 5.484375 14.234375 C 3.890625 13.671875 2.578125 12.75 1.546875 11.46875 C 0.515625 10.1875 0 8.488281 0 6.375 Z M 0 6.375 "/></g></g></g><g fill="#fbe8d8" fill-opacity="1"><g transform="translate(290.900563, 57.318836)"><g><path d="M 1.875 -9 C 1.875 -10.238281 2.234375 -11.234375 2.953125 -11.984375 C 3.671875 -12.734375 4.71875 -13.109375 6.09375 -13.109375 C 7.28125 -13.109375 8.242188 -12.671875 8.984375 -11.796875 C 9.734375 -10.921875 10.515625 -9.921875 11.328125 -8.796875 C 12.140625 -7.679688 13.171875 -6.6875 14.421875 -5.8125 C 15.671875 -4.9375 17.359375 -4.5 19.484375 -4.5 C 21.109375 -4.5 22.390625 -4.671875 23.328125 -5.015625 C 24.265625 -5.359375 24.734375 -6.15625 24.734375 -7.40625 C 24.734375 -8.40625 24.1875 -9.210938 23.09375 -9.828125 C 22 -10.453125 20.609375 -11.03125 18.921875 -11.5625 C 17.234375 -12.09375 15.4375 -12.6875 13.53125 -13.34375 C 11.625 -14 9.828125 -14.828125 8.140625 -15.828125 C 6.460938 -16.828125 5.078125 -18.125 3.984375 -19.71875 C 2.890625 -21.3125 2.34375 -23.328125 2.34375 -25.765625 C 2.34375 -28.503906 2.96875 -30.703125 4.21875 -32.359375 C 5.46875 -34.015625 7.023438 -35.25 8.890625 -36.0625 C 10.765625 -36.875 12.625 -37.40625 14.46875 -37.65625 C 16.3125 -37.90625 17.828125 -38.03125 19.015625 -38.03125 C 22.203125 -38.03125 25.164062 -37.65625 27.90625 -36.90625 C 30.65625 -36.15625 32.875 -35.046875 34.5625 -33.578125 C 36.25 -32.109375 37.09375 -30.3125 37.09375 -28.1875 C 37.09375 -27.132812 36.703125 -26.234375 35.921875 -25.484375 C 35.140625 -24.734375 34.21875 -24.359375 33.15625 -24.359375 C 31.53125 -24.359375 30.21875 -24.8125 29.21875 -25.71875 C 28.226562 -26.625 27.328125 -27.648438 26.515625 -28.796875 C 25.703125 -29.953125 24.765625 -30.984375 23.703125 -31.890625 C 22.640625 -32.796875 21.265625 -33.25 19.578125 -33.25 C 17.890625 -33.25 16.78125 -32.859375 16.25 -32.078125 C 15.71875 -31.296875 15.453125 -30.5 15.453125 -29.6875 C 15.453125 -28.507812 15.984375 -27.609375 17.046875 -26.984375 C 18.109375 -26.359375 19.484375 -25.84375 21.171875 -25.4375 C 22.859375 -25.03125 24.632812 -24.578125 26.5 -24.078125 C 28.375 -23.578125 30.15625 -22.90625 31.84375 -22.0625 C 33.53125 -21.21875 34.90625 -20.03125 35.96875 -18.5 C 37.03125 -16.96875 37.5625 -14.953125 37.5625 -12.453125 C 37.5625 -9.273438 36.640625 -6.734375 34.796875 -4.828125 C 32.953125 -2.921875 30.59375 -1.546875 27.71875 -0.703125 C 24.851562 0.140625 21.828125 0.5625 18.640625 0.5625 C 17.328125 0.5625 15.734375 0.40625 13.859375 0.09375 C 11.984375 -0.21875 10.125 -0.734375 8.28125 -1.453125 C 6.445312 -2.171875 4.921875 -3.140625 3.703125 -4.359375 C 2.484375 -5.578125 1.875 -7.125 1.875 -9 Z M 1.875 -9 "/></g></g></g></g></g></svg>