<svg xmlns="http://www.w3.org/2000/svg" xmlns:xlink="http://www.w3.org/1999/xlink" width="840" zoomAndPan="magnify" viewBox="0 0 630 225" height="300" preserveAspectRatio="xMidYMid meet" version="1.0"><defs><g/><clipPath id="94f1a256d1"><rect x="0" width="401" y="0" height="141"/></clipPath></defs><rect x="-63" width="756" fill="#ffffff" y="-22.5" height="270" fill-opacity="1"/><rect x="-63" width="756" fill="#5a7969" y="-22.5" height="270" fill-opacity="1"/><g transform="matrix(1, 0, 0, 1, 114, 43)"><g clip-path="url(#94f1a256d1)"><g fill="#fbe8d8" fill-opacity="1"><g transform="translate(0.778354, 57.275439)"><g><path d="M 1.875 -23.421875 C 1.875 -27.910156 2.859375 -31.96875 4.828125 -35.59375 C 6.796875 -39.21875 9.539062 -42.085938 13.0625 -44.203125 C 16.59375 -46.328125 20.640625 -47.390625 25.203125 -47.390625 C 27.015625 -47.390625 28.414062 -47.296875 29.40625 -47.109375 C 30.40625 -46.921875 31.59375 -46.828125 32.96875 -46.828125 C 34.03125 -46.828125 35.03125 -46.921875 35.96875 -47.109375 C 36.90625 -47.296875 37.75 -47.390625 38.5 -47.390625 C 39 -47.390625 39.4375 -47.296875 39.8125 -47.109375 C 40.1875 -46.921875 40.5 -46.550781 40.75 -46 C 41.8125 -43.375 42.75 -40.921875 43.5625 -38.640625 C 44.375 -36.359375 44.796875 -34.515625 44.828125 -33.109375 C 44.859375 -31.703125 44.125 -31 42.625 -31 C 41.25 -31 40.09375 -31.546875 39.15625 -32.640625 C 38.21875 -33.734375 37.25 -35.015625 36.25 -36.484375 C 35.25 -37.953125 34.046875 -39.234375 32.640625 -40.328125 C 31.234375 -41.421875 29.378906 -41.96875 27.078125 -41.96875 C 24.890625 -41.96875 23.109375 -41.09375 21.734375 -39.34375 C 20.359375 -37.59375 19.359375 -35.3125 18.734375 -32.5 C 18.109375 -29.6875 17.796875 -26.660156 17.796875 -23.421875 C 17.796875 -20.171875 18.109375 -17.109375 18.734375 -14.234375 C 19.359375 -11.359375 20.359375 -9.015625 21.734375 -7.203125 C 23.109375 -5.398438 24.953125 -4.5 27.265625 -4.5 C 29.316406 -4.5 30.859375 -5 31.890625 -6 C 32.921875 -7 33.71875 -8.226562 34.28125 -9.6875 C 34.84375 -11.15625 35.359375 -12.625 35.828125 -14.09375 C 36.296875 -15.5625 36.96875 -16.796875 37.84375 -17.796875 C 38.71875 -18.796875 40 -19.296875 41.6875 -19.296875 C 43.625 -19.296875 45.054688 -18.625 45.984375 -17.28125 C 46.921875 -15.9375 47.265625 -14.28125 47.015625 -12.3125 C 46.773438 -10.34375 45.859375 -8.375 44.265625 -6.40625 C 42.671875 -4.445312 40.3125 -2.796875 37.1875 -1.453125 C 34.0625 -0.109375 30.066406 0.5625 25.203125 0.5625 C 20.453125 0.5625 16.328125 -0.5 12.828125 -2.625 C 9.335938 -4.75 6.640625 -7.617188 4.734375 -11.234375 C 2.828125 -14.859375 1.875 -18.921875 1.875 -23.421875 Z M 1.875 -23.421875 "/></g></g></g><g fill="#fbe8d8" fill-opacity="1"><g transform="translate(44.989367, 57.275439)"><g><path d="M 22.203125 0.5625 C 15.953125 0.5625 11 -1.132812 7.34375 -4.53125 C 3.695312 -7.9375 1.875 -12.671875 1.875 -18.734375 C 1.875 -24.859375 3.695312 -29.601562 7.34375 -32.96875 C 11 -36.34375 15.953125 -38.03125 22.203125 -38.03125 C 28.441406 -38.03125 33.390625 -36.34375 37.046875 -32.96875 C 40.703125 -29.601562 42.53125 -24.859375 42.53125 -18.734375 C 42.53125 -12.671875 40.703125 -7.9375 37.046875 -4.53125 C 33.390625 -1.132812 28.441406 0.5625 22.203125 0.5625 Z M 17.328125 -18.734375 C 17.328125 -16.171875 17.46875 -13.8125 17.75 -11.65625 C 18.03125 -9.507812 18.53125 -7.8125 19.25 -6.5625 C 19.96875 -5.3125 20.953125 -4.6875 22.203125 -4.6875 C 23.515625 -4.6875 24.53125 -5.3125 25.25 -6.5625 C 25.96875 -7.8125 26.453125 -9.507812 26.703125 -11.65625 C 26.953125 -13.8125 27.078125 -16.171875 27.078125 -18.734375 C 27.078125 -21.359375 26.953125 -23.726562 26.703125 -25.84375 C 26.453125 -27.96875 25.96875 -29.65625 25.25 -30.90625 C 24.53125 -32.15625 23.515625 -32.78125 22.203125 -32.78125 C 20.953125 -32.78125 19.96875 -32.15625 19.25 -30.90625 C 18.53125 -29.65625 18.03125 -27.96875 17.75 -25.84375 C 17.46875 -23.726562 17.328125 -21.359375 17.328125 -18.734375 Z M 17.328125 -18.734375 "/></g></g></g><g fill="#fbe8d8" fill-opacity="1"><g transform="translate(85.547351, 57.275439)"><g><path d="M 12.078125 0 C 11.140625 0 10.03125 0.09375 8.75 0.28125 C 7.476562 0.46875 6.28125 0.5625 5.15625 0.5625 C 4.09375 0.5625 3.203125 0.40625 2.484375 0.09375 C 1.765625 -0.21875 1.40625 -0.84375 1.40625 -1.78125 C 1.40625 -2.46875 1.5625 -2.984375 1.875 -3.328125 C 2.1875 -3.671875 2.5625 -4.109375 3 -4.640625 C 3.4375 -5.171875 3.8125 -6 4.125 -7.125 C 4.4375 -8.25 4.59375 -9.898438 4.59375 -12.078125 C 4.59375 -14.953125 4.609375 -17.03125 4.640625 -18.3125 C 4.671875 -19.59375 4.6875 -20.53125 4.6875 -21.125 C 4.6875 -21.71875 4.6875 -22.390625 4.6875 -23.140625 C 4.6875 -24.828125 4.421875 -26 3.890625 -26.65625 C 3.359375 -27.3125 2.828125 -27.820312 2.296875 -28.1875 C 1.765625 -28.5625 1.5 -29.15625 1.5 -29.96875 C 1.5 -30.90625 1.8125 -31.546875 2.4375 -31.890625 C 3.0625 -32.234375 3.953125 -32.53125 5.109375 -32.78125 C 6.265625 -33.03125 7.65625 -33.4375 9.28125 -34 C 11.269531 -34.75 12.640625 -35.421875 13.390625 -36.015625 C 14.140625 -36.609375 14.703125 -37.09375 15.078125 -37.46875 C 15.453125 -37.84375 16.046875 -38.03125 16.859375 -38.03125 C 17.984375 -38.03125 18.734375 -37.53125 19.109375 -36.53125 C 19.484375 -35.53125 19.671875 -34.34375 19.671875 -32.96875 L 19.671875 -32.21875 C 19.671875 -31.34375 19.828125 -30.90625 20.140625 -30.90625 C 20.453125 -30.90625 20.953125 -31.265625 21.640625 -31.984375 C 22.328125 -32.703125 23.21875 -33.53125 24.3125 -34.46875 C 25.40625 -35.40625 26.710938 -36.234375 28.234375 -36.953125 C 29.765625 -37.671875 31.5 -38.03125 33.4375 -38.03125 C 35.375 -38.03125 36.96875 -37.671875 38.21875 -36.953125 C 39.46875 -36.234375 40.453125 -35.40625 41.171875 -34.46875 C 41.890625 -33.53125 42.46875 -32.703125 42.90625 -31.984375 C 43.34375 -31.265625 43.6875 -30.90625 43.9375 -30.90625 C 44.375 -30.90625 44.9375 -31.25 45.625 -31.9375 C 46.3125 -32.625 47.179688 -33.453125 48.234375 -34.421875 C 49.296875 -35.390625 50.59375 -36.234375 52.125 -36.953125 C 53.65625 -37.671875 55.484375 -38.03125 57.609375 -38.03125 C 60.546875 -38.03125 62.757812 -37.40625 64.25 -36.15625 C 65.75 -34.90625 66.765625 -33.34375 67.296875 -31.46875 C 67.828125 -29.59375 68.09375 -27.691406 68.09375 -25.765625 L 68.09375 -12.078125 C 68.09375 -9.898438 68.25 -8.25 68.5625 -7.125 C 68.875 -6 69.234375 -5.171875 69.640625 -4.640625 C 70.046875 -4.109375 70.421875 -3.671875 70.765625 -3.328125 C 71.109375 -2.984375 71.28125 -2.46875 71.28125 -1.78125 C 71.28125 -0.84375 71.015625 -0.21875 70.484375 0.09375 C 69.953125 0.40625 69.25 0.5625 68.375 0.5625 C 67.5 0.5625 66.484375 0.46875 65.328125 0.28125 C 64.179688 0.09375 63.078125 0 62.015625 0 C 61.015625 0 60.15625 0.046875 59.4375 0.140625 C 58.71875 0.234375 57.953125 0.34375 57.140625 0.46875 C 55.890625 0.59375 54.875 0.3125 54.09375 -0.375 C 53.3125 -1.0625 52.921875 -2.03125 52.921875 -3.28125 L 52.921875 -18.640625 C 52.921875 -21.640625 52.625 -23.921875 52.03125 -25.484375 C 51.4375 -27.046875 50.328125 -27.828125 48.703125 -27.828125 C 47.398438 -27.828125 46.28125 -27.25 45.34375 -26.09375 C 44.40625 -24.9375 43.9375 -22.609375 43.9375 -19.109375 L 43.9375 -12.078125 C 43.9375 -9.898438 44.09375 -8.25 44.40625 -7.125 C 44.71875 -6 45.09375 -5.171875 45.53125 -4.640625 C 45.96875 -4.109375 46.335938 -3.671875 46.640625 -3.328125 C 46.953125 -2.984375 47.109375 -2.46875 47.109375 -1.78125 C 47.109375 -0.84375 46.84375 -0.21875 46.3125 0.09375 C 45.789062 0.40625 45.09375 0.5625 44.21875 0.5625 C 43.34375 0.5625 42.328125 0.46875 41.171875 0.28125 C 40.015625 0.09375 38.90625 0 37.84375 0 C 36.84375 0 35.984375 0.046875 35.265625 0.140625 C 34.546875 0.234375 33.78125 0.34375 32.96875 0.46875 C 31.71875 0.59375 30.703125 0.3125 29.921875 -0.375 C 29.140625 -1.0625 28.75 -2.03125 28.75 -3.28125 L 28.75 -18.640625 C 28.75 -21.640625 28.4375 -23.921875 27.8125 -25.484375 C 27.195312 -27.046875 26.078125 -27.828125 24.453125 -27.828125 C 23.015625 -27.828125 21.859375 -27.09375 20.984375 -25.625 C 20.109375 -24.15625 19.671875 -21.140625 19.671875 -16.578125 L 19.671875 -12.078125 C 19.671875 -9.898438 19.828125 -8.25 20.140625 -7.125 C 20.453125 -6 20.828125 -5.171875 21.265625 -4.640625 C 21.703125 -4.109375 22.078125 -3.671875 22.390625 -3.328125 C 22.703125 -2.984375 22.859375 -2.46875 22.859375 -1.78125 C 22.859375 -0.84375 22.5 -0.21875 21.78125 0.09375 C 21.0625 0.40625 20.171875 0.5625 19.109375 0.5625 C 17.921875 0.5625 16.6875 0.46875 15.40625 0.28125 C 14.125 0.09375 13.015625 0 12.078125 0 Z M 12.078125 0 "/></g></g></g><g fill="#fbe8d8" fill-opacity="1"><g transform="translate(154.392964, 57.275439)"><g><path d="M 11.609375 15.828125 C 10.671875 15.828125 9.5625 15.921875 8.28125 16.109375 C 7.007812 16.296875 5.8125 16.390625 4.6875 16.390625 C 3.625 16.390625 2.734375 16.234375 2.015625 15.921875 C 1.296875 15.609375 0.9375 14.984375 0.9375 14.046875 C 0.9375 13.359375 1.09375 12.84375 1.40625 12.5 C 1.71875 12.15625 2.09375 11.71875 2.53125 11.1875 C 2.96875 10.65625 3.34375 9.828125 3.65625 8.703125 C 3.96875 7.585938 4.125 5.9375 4.125 3.75 C 4.125 1.625 4.125 -0.84375 4.125 -3.65625 C 4.125 -6.46875 4.140625 -9.257812 4.171875 -12.03125 C 4.203125 -14.8125 4.21875 -17.21875 4.21875 -19.25 C 4.21875 -21.28125 4.21875 -22.578125 4.21875 -23.140625 C 4.21875 -24.828125 3.953125 -26 3.421875 -26.65625 C 2.890625 -27.3125 2.359375 -27.820312 1.828125 -28.1875 C 1.296875 -28.5625 1.03125 -29.15625 1.03125 -29.96875 C 1.03125 -30.90625 1.34375 -31.546875 1.96875 -31.890625 C 2.59375 -32.234375 3.484375 -32.53125 4.640625 -32.78125 C 5.796875 -33.03125 7.1875 -33.4375 8.8125 -34 C 10.800781 -34.75 12.171875 -35.421875 12.921875 -36.015625 C 13.671875 -36.609375 14.234375 -37.09375 14.609375 -37.46875 C 14.984375 -37.84375 15.578125 -38.03125 16.390625 -38.03125 C 17.515625 -38.03125 18.265625 -37.53125 18.640625 -36.53125 C 19.015625 -35.53125 19.203125 -34.34375 19.203125 -32.96875 L 19.203125 -32.875 C 19.203125 -31.875 19.28125 -31.390625 19.4375 -31.421875 C 19.59375 -31.453125 19.890625 -31.796875 20.328125 -32.453125 C 20.765625 -33.109375 21.375 -33.875 22.15625 -34.75 C 22.9375 -35.625 23.953125 -36.390625 25.203125 -37.046875 C 26.453125 -37.703125 27.945312 -38.03125 29.6875 -38.03125 C 32.875 -38.03125 35.546875 -37.09375 37.703125 -35.21875 C 39.859375 -33.34375 41.484375 -30.953125 42.578125 -28.046875 C 43.671875 -25.148438 44.203125 -22.046875 44.171875 -18.734375 C 44.140625 -15.421875 43.546875 -12.3125 42.390625 -9.40625 C 41.234375 -6.507812 39.515625 -4.125 37.234375 -2.25 C 34.953125 -0.375 32.09375 0.5625 28.65625 0.5625 C 26.789062 0.5625 25.171875 0.28125 23.796875 -0.28125 C 22.421875 -0.84375 21.328125 -1.5625 20.515625 -2.4375 C 20.015625 -3 19.671875 -3.25 19.484375 -3.1875 C 19.296875 -3.125 19.203125 -2.75 19.203125 -2.0625 L 19.203125 3.75 C 19.203125 5.9375 19.359375 7.585938 19.671875 8.703125 C 19.984375 9.828125 20.359375 10.65625 20.796875 11.1875 C 21.234375 11.71875 21.609375 12.15625 21.921875 12.5 C 22.234375 12.84375 22.390625 13.359375 22.390625 14.046875 C 22.390625 14.984375 22.03125 15.609375 21.3125 15.921875 C 20.59375 16.234375 19.703125 16.390625 18.640625 16.390625 C 17.453125 16.390625 16.21875 16.296875 14.9375 16.109375 C 13.65625 15.921875 12.546875 15.828125 11.609375 15.828125 Z M 23.796875 -27.453125 C 22.109375 -27.453125 20.84375 -26.390625 20 -24.265625 C 19.15625 -22.140625 18.734375 -19.671875 18.734375 -16.859375 C 18.734375 -14.046875 19.15625 -11.640625 20 -9.640625 C 20.84375 -7.648438 22.109375 -6.65625 23.796875 -6.65625 C 25.484375 -6.65625 26.742188 -7.664062 27.578125 -9.6875 C 28.421875 -11.71875 28.84375 -14.140625 28.84375 -16.953125 C 28.84375 -19.765625 28.421875 -22.21875 27.578125 -24.3125 C 26.742188 -26.40625 25.484375 -27.453125 23.796875 -27.453125 Z M 23.796875 -27.453125 "/></g></g></g><g fill="#fbe8d8" fill-opacity="1"><g transform="translate(196.543289, 57.275439)"><g><path d="M 11.609375 0 C 10.671875 0 9.5625 0.09375 8.28125 0.28125 C 7.007812 0.46875 5.8125 0.5625 4.6875 0.5625 C 3.625 0.5625 2.734375 0.40625 2.015625 0.09375 C 1.296875 -0.21875 0.9375 -0.84375 0.9375 -1.78125 C 0.9375 -2.46875 1.09375 -2.984375 1.40625 -3.328125 C 1.71875 -3.671875 2.09375 -4.109375 2.53125 -4.640625 C 2.96875 -5.171875 3.34375 -6 3.65625 -7.125 C 3.96875 -8.25 4.125 -9.898438 4.125 -12.078125 C 4.125 -14.203125 4.125 -16.671875 4.125 -19.484375 C 4.125 -22.296875 4.140625 -25.085938 4.171875 -27.859375 C 4.203125 -30.640625 4.21875 -33.046875 4.21875 -35.078125 C 4.21875 -37.109375 4.21875 -38.40625 4.21875 -38.96875 C 4.21875 -40.65625 3.953125 -41.828125 3.421875 -42.484375 C 2.890625 -43.140625 2.359375 -43.65625 1.828125 -44.03125 C 1.296875 -44.40625 1.03125 -45 1.03125 -45.8125 C 1.03125 -46.738281 1.34375 -47.375 1.96875 -47.71875 C 2.59375 -48.0625 3.484375 -48.359375 4.640625 -48.609375 C 5.796875 -48.859375 7.1875 -49.265625 8.8125 -49.828125 C 10.800781 -50.578125 12.171875 -51.25 12.921875 -51.84375 C 13.671875 -52.4375 14.234375 -52.921875 14.609375 -53.296875 C 14.984375 -53.671875 15.578125 -53.859375 16.390625 -53.859375 C 17.515625 -53.859375 18.265625 -53.359375 18.640625 -52.359375 C 19.015625 -51.359375 19.203125 -50.171875 19.203125 -48.796875 L 19.203125 -12.078125 C 19.203125 -9.898438 19.359375 -8.25 19.671875 -7.125 C 19.984375 -6 20.359375 -5.171875 20.796875 -4.640625 C 21.234375 -4.109375 21.609375 -3.671875 21.921875 -3.328125 C 22.234375 -2.984375 22.390625 -2.46875 22.390625 -1.78125 C 22.390625 -0.84375 22.03125 -0.21875 21.3125 0.09375 C 20.59375 0.40625 19.703125 0.5625 18.640625 0.5625 C 17.453125 0.5625 16.21875 0.46875 14.9375 0.28125 C 13.65625 0.09375 12.546875 0 11.609375 0 Z M 11.609375 0 "/></g></g></g><g fill="#fbe8d8" fill-opacity="1"><g transform="translate(216.026054, 57.275439)"><g><path d="M 11.890625 0 C 10.953125 0 9.84375 0.09375 8.5625 0.28125 C 7.289062 0.46875 6.09375 0.5625 4.96875 0.5625 C 3.90625 0.5625 3.015625 0.40625 2.296875 0.09375 C 1.578125 -0.21875 1.21875 -0.84375 1.21875 -1.78125 C 1.21875 -2.46875 1.375 -2.984375 1.6875 -3.328125 C 2 -3.671875 2.375 -4.109375 2.8125 -4.640625 C 3.25 -5.171875 3.625 -6 3.9375 -7.125 C 4.25 -8.25 4.40625 -9.898438 4.40625 -12.078125 C 4.40625 -14.953125 4.421875 -17.03125 4.453125 -18.3125 C 4.484375 -19.59375 4.5 -20.53125 4.5 -21.125 C 4.5 -21.71875 4.5 -22.390625 4.5 -23.140625 C 4.5 -24.828125 4.234375 -26 3.703125 -26.65625 C 3.171875 -27.3125 2.640625 -27.820312 2.109375 -28.1875 C 1.578125 -28.5625 1.3125 -29.15625 1.3125 -29.96875 C 1.3125 -30.90625 1.625 -31.546875 2.25 -31.890625 C 2.875 -32.234375 3.765625 -32.53125 4.921875 -32.78125 C 6.078125 -33.03125 7.46875 -33.4375 9.09375 -34 C 11.082031 -34.75 12.453125 -35.421875 13.203125 -36.015625 C 13.953125 -36.609375 14.515625 -37.09375 14.890625 -37.46875 C 15.265625 -37.84375 15.859375 -38.03125 16.671875 -38.03125 C 17.796875 -38.03125 18.546875 -37.53125 18.921875 -36.53125 C 19.296875 -35.53125 19.484375 -34.34375 19.484375 -32.96875 L 19.484375 -12.078125 C 19.484375 -9.898438 19.640625 -8.25 19.953125 -7.125 C 20.265625 -6 20.640625 -5.171875 21.078125 -4.640625 C 21.515625 -4.109375 21.890625 -3.671875 22.203125 -3.328125 C 22.515625 -2.984375 22.671875 -2.46875 22.671875 -1.78125 C 22.671875 -0.84375 22.3125 -0.21875 21.59375 0.09375 C 20.875 0.40625 19.984375 0.5625 18.921875 0.5625 C 17.734375 0.5625 16.5 0.46875 15.21875 0.28125 C 13.9375 0.09375 12.828125 0 11.890625 0 Z M 1.21875 -40.65625 C 0.59375 -42.53125 0.921875 -44.554688 2.203125 -46.734375 C 3.484375 -48.921875 5.4375 -50.703125 8.0625 -52.078125 C 10.238281 -53.203125 12.234375 -53.765625 14.046875 -53.765625 C 16.796875 -53.765625 18.578125 -52.640625 19.390625 -50.390625 C 20.078125 -48.453125 19.78125 -46.421875 18.5 -44.296875 C 17.21875 -42.179688 15.265625 -40.40625 12.640625 -38.96875 C 10.398438 -37.84375 8.375 -37.28125 6.5625 -37.28125 C 3.875 -37.28125 2.09375 -38.40625 1.21875 -40.65625 Z M 1.21875 -40.65625 "/></g></g></g><g fill="#fbe8d8" fill-opacity="1"><g transform="translate(235.696155, 57.275439)"><g><path d="M 12.171875 0.5625 C 8.679688 0.5625 6.09375 -0.46875 4.40625 -2.53125 C 2.71875 -4.59375 1.875 -7.054688 1.875 -9.921875 C 1.875 -14.109375 3.429688 -17.40625 6.546875 -19.8125 C 9.671875 -22.21875 13.734375 -23.953125 18.734375 -25.015625 C 23.484375 -26.015625 25.859375 -27.570312 25.859375 -29.6875 C 25.859375 -30.5 25.515625 -31.296875 24.828125 -32.078125 C 24.140625 -32.859375 22.953125 -33.25 21.265625 -33.25 C 19.578125 -33.25 18.203125 -32.796875 17.140625 -31.890625 C 16.078125 -30.984375 15.140625 -29.953125 14.328125 -28.796875 C 13.515625 -27.648438 12.625 -26.625 11.65625 -25.71875 C 10.6875 -24.8125 9.394531 -24.359375 7.78125 -24.359375 C 6.71875 -24.359375 5.796875 -24.734375 5.015625 -25.484375 C 4.234375 -26.234375 3.84375 -27.132812 3.84375 -28.1875 C 3.84375 -30.3125 4.6875 -32.109375 6.375 -33.578125 C 8.0625 -35.046875 10.257812 -36.15625 12.96875 -36.90625 C 15.6875 -37.65625 18.640625 -38.03125 21.828125 -38.03125 C 25.265625 -38.03125 28.382812 -37.484375 31.1875 -36.390625 C 34 -35.296875 36.25 -33.46875 37.9375 -30.90625 C 39.625 -28.351562 40.46875 -24.859375 40.46875 -20.421875 L 40.46875 -12.078125 C 40.46875 -9.898438 40.625 -8.25 40.9375 -7.125 C 41.25 -6 41.625 -5.171875 42.0625 -4.640625 C 42.5 -4.109375 42.875 -3.671875 43.1875 -3.328125 C 43.5 -2.984375 43.65625 -2.46875 43.65625 -1.78125 C 43.65625 -0.84375 43.375 -0.21875 42.8125 0.09375 C 42.25 0.40625 41.53125 0.5625 40.65625 0.5625 C 39.71875 0.5625 38.6875 0.46875 37.5625 0.28125 C 36.4375 0.09375 35.40625 0 34.46875 0 C 33.46875 0 32.59375 0.046875 31.84375 0.140625 C 31.09375 0.234375 30.3125 0.34375 29.5 0.46875 C 28.507812 0.59375 27.625 0.46875 26.84375 0.09375 C 26.0625 -0.28125 25.609375 -0.96875 25.484375 -1.96875 C 25.421875 -2.96875 25.265625 -3.640625 25.015625 -3.984375 C 24.765625 -4.328125 24.453125 -4.5 24.078125 -4.5 C 23.390625 -4.5 22.5 -4.078125 21.40625 -3.234375 C 20.3125 -2.390625 19 -1.546875 17.46875 -0.703125 C 15.9375 0.140625 14.171875 0.5625 12.171875 0.5625 Z M 16.390625 -13.765625 C 16.390625 -11.953125 16.84375 -10.65625 17.75 -9.875 C 18.65625 -9.101562 19.734375 -8.71875 20.984375 -8.71875 C 22.546875 -8.71875 23.734375 -9.382812 24.546875 -10.71875 C 25.359375 -12.0625 25.765625 -13.640625 25.765625 -15.453125 L 25.765625 -19.953125 C 25.765625 -21.640625 24.984375 -22.078125 23.421875 -21.265625 C 22.421875 -20.765625 21.375 -20.21875 20.28125 -19.625 C 19.1875 -19.03125 18.265625 -18.296875 17.515625 -17.421875 C 16.765625 -16.546875 16.390625 -15.328125 16.390625 -13.765625 Z M 16.390625 -13.765625 "/></g></g></g><g fill="#fbe8d8" fill-opacity="1"><g transform="translate(276.441476, 57.275439)"><g><path d="M 0.9375 -1.78125 C 0.9375 -2.46875 1.09375 -2.984375 1.40625 -3.328125 C 1.71875 -3.671875 2.09375 -4.109375 2.53125 -4.640625 C 2.96875 -5.171875 3.34375 -6 3.65625 -7.125 C 3.96875 -8.25 4.125 -9.898438 4.125 -12.078125 C 4.125 -14.953125 4.140625 -17.03125 4.171875 -18.3125 C 4.203125 -19.59375 4.21875 -20.53125 4.21875 -21.125 C 4.21875 -21.71875 4.21875 -22.390625 4.21875 -23.140625 C 4.21875 -24.828125 3.953125 -26 3.421875 -26.65625 C 2.890625 -27.3125 2.359375 -27.820312 1.828125 -28.1875 C 1.296875 -28.5625 1.03125 -29.15625 1.03125 -29.96875 C 1.03125 -30.90625 1.34375 -31.546875 1.96875 -31.890625 C 2.59375 -32.234375 3.484375 -32.53125 4.640625 -32.78125 C 5.796875 -33.03125 7.1875 -33.4375 8.8125 -34 C 10.800781 -34.75 12.171875 -35.421875 12.921875 -36.015625 C 13.671875 -36.609375 14.234375 -37.09375 14.609375 -37.46875 C 14.984375 -37.84375 15.578125 -38.03125 16.390625 -38.03125 C 17.515625 -38.03125 18.265625 -37.53125 18.640625 -36.53125 C 19.015625 -35.53125 19.203125 -34.34375 19.203125 -32.96875 L 19.203125 -32.21875 C 19.203125 -31.34375 19.359375 -30.90625 19.671875 -30.90625 C 19.984375 -30.90625 20.484375 -31.265625 21.171875 -31.984375 C 21.859375 -32.703125 22.75 -33.53125 23.84375 -34.46875 C 24.9375 -35.40625 26.242188 -36.234375 27.765625 -36.953125 C 29.296875 -37.671875 31.03125 -38.03125 32.96875 -38.03125 C 35.90625 -38.03125 38.125 -37.40625 39.625 -36.15625 C 41.125 -34.90625 42.140625 -33.34375 42.671875 -31.46875 C 43.203125 -29.59375 43.46875 -27.691406 43.46875 -25.765625 L 43.46875 -12.078125 C 43.46875 -9.898438 43.625 -8.25 43.9375 -7.125 C 44.25 -6 44.625 -5.171875 45.0625 -4.640625 C 45.5 -4.109375 45.875 -3.671875 46.1875 -3.328125 C 46.5 -2.984375 46.65625 -2.46875 46.65625 -1.78125 C 46.65625 -0.84375 46.390625 -0.21875 45.859375 0.09375 C 45.328125 0.40625 44.625 0.5625 43.75 0.5625 C 42.875 0.5625 41.859375 0.46875 40.703125 0.28125 C 39.546875 0.09375 38.4375 0 37.375 0 C 36.375 0 35.515625 0.046875 34.796875 0.140625 C 34.078125 0.234375 33.3125 0.34375 32.5 0.46875 C 31.25 0.59375 30.234375 0.3125 29.453125 -0.375 C 28.671875 -1.0625 28.28125 -2.03125 28.28125 -3.28125 L 28.28125 -18.640625 C 28.28125 -21.640625 27.96875 -23.921875 27.34375 -25.484375 C 26.726562 -27.046875 25.609375 -27.828125 23.984375 -27.828125 C 22.546875 -27.828125 21.390625 -27.09375 20.515625 -25.625 C 19.640625 -24.15625 19.203125 -21.140625 19.203125 -16.578125 L 19.203125 -12.078125 C 19.203125 -9.898438 19.359375 -8.25 19.671875 -7.125 C 19.984375 -6 20.359375 -5.171875 20.796875 -4.640625 C 21.234375 -4.109375 21.609375 -3.671875 21.921875 -3.328125 C 22.234375 -2.984375 22.390625 -2.46875 22.390625 -1.78125 C 22.390625 -0.84375 22.03125 -0.21875 21.3125 0.09375 C 20.59375 0.40625 19.703125 0.5625 18.640625 0.5625 C 17.453125 0.5625 16.21875 0.46875 14.9375 0.28125 C 13.65625 0.09375 12.546875 0 11.609375 0 C 10.671875 0 9.5625 0.09375 8.28125 0.28125 C 7.007812 0.46875 5.8125 0.5625 4.6875 0.5625 C 3.625 0.5625 2.734375 0.40625 2.015625 0.09375 C 1.296875 -0.21875 0.9375 -0.84375 0.9375 -1.78125 Z M 0.9375 -1.78125 "/></g></g></g><g fill="#fbe8d8" fill-opacity="1"><g transform="translate(320.184153, 57.275439)"><g><path d="M 1.875 -18.640625 C 1.875 -24.453125 3.710938 -29.132812 7.390625 -32.6875 C 11.078125 -36.25 16.234375 -38.03125 22.859375 -38.03125 C 28.597656 -38.03125 32.953125 -36.75 35.921875 -34.1875 C 38.890625 -31.625 40.375 -28.410156 40.375 -24.546875 C 40.375 -22.421875 39.625 -20.515625 38.125 -18.828125 C 36.625 -17.140625 34.5625 -16.296875 31.9375 -16.296875 C 29.8125 -16.296875 28.0625 -17.03125 26.6875 -18.5 C 25.320312 -19.96875 24.640625 -21.578125 24.640625 -23.328125 C 24.640625 -25.390625 24.78125 -27.148438 25.0625 -28.609375 C 25.34375 -30.078125 25.453125 -31.21875 25.390625 -32.03125 C 25.328125 -32.84375 24.796875 -33.25 23.796875 -33.25 C 22.234375 -33.25 20.90625 -31.953125 19.8125 -29.359375 C 18.71875 -26.773438 18.203125 -23.265625 18.265625 -18.828125 C 18.328125 -14.640625 19.0625 -11.28125 20.46875 -8.75 C 21.875 -6.226562 23.953125 -5 26.703125 -5.0625 C 28.566406 -5.0625 29.96875 -5.46875 30.90625 -6.28125 C 31.84375 -7.09375 32.578125 -8.023438 33.109375 -9.078125 C 33.640625 -10.140625 34.1875 -11.078125 34.75 -11.890625 C 35.3125 -12.703125 36.1875 -13.109375 37.375 -13.109375 C 38.4375 -13.109375 39.234375 -12.78125 39.765625 -12.125 C 40.296875 -11.46875 40.5625 -10.734375 40.5625 -9.921875 C 40.5625 -7.804688 39.734375 -5.96875 38.078125 -4.40625 C 36.421875 -2.84375 34.21875 -1.625 31.46875 -0.75 C 28.726562 0.125 25.765625 0.5625 22.578125 0.5625 C 19.265625 0.5625 16.015625 -0.078125 12.828125 -1.359375 C 9.648438 -2.640625 7.03125 -4.695312 4.96875 -7.53125 C 2.90625 -10.375 1.875 -14.078125 1.875 -18.640625 Z M 1.875 -18.640625 "/></g></g></g><g fill="#fbe8d8" fill-opacity="1"><g transform="translate(358.775096, 57.275439)"><g><path d="M 22.578125 0.5625 C 19.265625 0.5625 16.015625 -0.09375 12.828125 -1.40625 C 9.648438 -2.71875 7.03125 -4.773438 4.96875 -7.578125 C 2.90625 -10.390625 1.875 -14.078125 1.875 -18.640625 C 1.875 -22.515625 2.71875 -25.898438 4.40625 -28.796875 C 6.09375 -31.703125 8.429688 -33.96875 11.421875 -35.59375 C 14.421875 -37.21875 17.890625 -38.03125 21.828125 -38.03125 C 25.703125 -38.03125 28.851562 -37.5625 31.28125 -36.625 C 33.71875 -35.6875 35.609375 -34.484375 36.953125 -33.015625 C 38.296875 -31.546875 39.21875 -30.046875 39.71875 -28.515625 C 40.21875 -26.992188 40.46875 -25.671875 40.46875 -24.546875 C 40.46875 -21.421875 39.5 -18.875 37.5625 -16.90625 C 35.625 -14.9375 33.15625 -13.5 30.15625 -12.59375 C 27.164062 -11.6875 24.109375 -11.234375 20.984375 -11.234375 C 20.109375 -11.234375 19.46875 -10.921875 19.0625 -10.296875 C 18.65625 -9.671875 18.53125 -8.953125 18.6875 -8.140625 C 18.84375 -7.335938 19.34375 -6.625 20.1875 -6 C 21.03125 -5.375 22.234375 -5.0625 23.796875 -5.0625 C 26.046875 -5.0625 27.820312 -5.46875 29.125 -6.28125 C 30.4375 -7.09375 31.484375 -8.023438 32.265625 -9.078125 C 33.046875 -10.140625 33.796875 -11.078125 34.515625 -11.890625 C 35.234375 -12.703125 36.1875 -13.109375 37.375 -13.109375 C 38.4375 -13.109375 39.234375 -12.78125 39.765625 -12.125 C 40.296875 -11.46875 40.5625 -10.734375 40.5625 -9.921875 C 40.5625 -7.804688 39.734375 -5.96875 38.078125 -4.40625 C 36.421875 -2.84375 34.21875 -1.625 31.46875 -0.75 C 28.726562 0.125 25.765625 0.5625 22.578125 0.5625 Z M 21.828125 -33.25 C 20.515625 -33.25 19.46875 -32.46875 18.6875 -30.90625 C 17.90625 -29.34375 17.515625 -27.253906 17.515625 -24.640625 C 17.515625 -22.015625 17.90625 -19.921875 18.6875 -18.359375 C 19.46875 -16.796875 20.515625 -16.015625 21.828125 -16.015625 C 23.140625 -16.015625 24.1875 -16.796875 24.96875 -18.359375 C 25.75 -19.921875 26.140625 -22.015625 26.140625 -24.640625 C 26.140625 -27.253906 25.75 -29.34375 24.96875 -30.90625 C 24.1875 -32.46875 23.140625 -33.25 21.828125 -33.25 Z M 21.828125 -33.25 "/></g></g></g><g fill="#fbe8d8" fill-opacity="1"><g transform="translate(67.755382, 123.338205)"><g><path d="M 0.9375 -29.96875 C 0.9375 -30.90625 1.25 -31.546875 1.875 -31.890625 C 2.5 -32.234375 3.390625 -32.53125 4.546875 -32.78125 C 5.703125 -33.03125 7.09375 -33.4375 8.71875 -34 C 10.707031 -34.75 12.078125 -35.421875 12.828125 -36.015625 C 13.578125 -36.609375 14.140625 -37.09375 14.515625 -37.46875 C 14.890625 -37.84375 15.484375 -38.03125 16.296875 -38.03125 C 17.421875 -38.03125 18.171875 -37.53125 18.546875 -36.53125 C 18.921875 -35.53125 19.109375 -34.34375 19.109375 -32.96875 C 19.171875 -31.03125 19.21875 -29.453125 19.25 -28.234375 C 19.28125 -27.023438 19.296875 -25.453125 19.296875 -23.515625 L 19.296875 -18.921875 C 19.296875 -14.984375 19.640625 -12.3125 20.328125 -10.90625 C 21.015625 -9.507812 22.078125 -8.8125 23.515625 -8.8125 C 24.953125 -8.8125 25.984375 -9.507812 26.609375 -10.90625 C 27.234375 -12.3125 27.546875 -15.015625 27.546875 -19.015625 L 27.546875 -23.515625 C 27.546875 -25.078125 27.28125 -26.171875 26.75 -26.796875 C 26.21875 -27.421875 25.6875 -27.914062 25.15625 -28.28125 C 24.625 -28.65625 24.359375 -29.21875 24.359375 -29.96875 C 24.359375 -30.90625 24.671875 -31.546875 25.296875 -31.890625 C 25.921875 -32.234375 26.804688 -32.53125 27.953125 -32.78125 C 29.109375 -33.03125 30.5 -33.4375 32.125 -34 C 34.125 -34.75 35.5 -35.421875 36.25 -36.015625 C 37 -36.609375 37.5625 -37.09375 37.9375 -37.46875 C 38.3125 -37.84375 38.90625 -38.03125 39.71875 -38.03125 C 40.84375 -38.03125 41.59375 -37.53125 41.96875 -36.53125 C 42.34375 -35.53125 42.53125 -34.34375 42.53125 -32.96875 L 42.625 -25.390625 C 42.625 -22.578125 42.640625 -20.328125 42.671875 -18.640625 C 42.703125 -16.953125 42.71875 -15.609375 42.71875 -14.609375 C 42.71875 -13.609375 42.71875 -12.734375 42.71875 -11.984375 C 42.71875 -9.804688 42.875 -8.15625 43.1875 -7.03125 C 43.5 -5.90625 43.875 -5.078125 44.3125 -4.546875 C 44.75 -4.015625 45.125 -3.578125 45.4375 -3.234375 C 45.75 -2.890625 45.90625 -2.375 45.90625 -1.6875 C 45.90625 -0.75 45.640625 -0.125 45.109375 0.1875 C 44.578125 0.5 43.875 0.65625 43 0.65625 C 42.125 0.65625 41.109375 0.5625 39.953125 0.375 C 38.796875 0.1875 37.6875 0.09375 36.625 0.09375 C 35.625 0.09375 34.765625 0.140625 34.046875 0.234375 C 33.328125 0.328125 32.5625 0.4375 31.75 0.5625 C 30.5625 0.6875 29.59375 0.46875 28.84375 -0.09375 C 28.101562 -0.65625 27.671875 -1.46875 27.546875 -2.53125 C 27.296875 -4.40625 27.015625 -5.34375 26.703125 -5.34375 C 26.390625 -5.34375 25.609375 -4.6875 24.359375 -3.375 C 23.359375 -2.3125 21.90625 -1.390625 20 -0.609375 C 18.09375 0.171875 16.296875 0.5625 14.609375 0.5625 C 11.734375 0.5625 9.53125 -0.0625 8 -1.3125 C 6.476562 -2.5625 5.453125 -4.125 4.921875 -6 C 4.390625 -7.875 4.125 -9.773438 4.125 -11.703125 L 4.125 -23.140625 C 4.125 -24.828125 3.859375 -26 3.328125 -26.65625 C 2.796875 -27.3125 2.265625 -27.820312 1.734375 -28.1875 C 1.203125 -28.5625 0.9375 -29.15625 0.9375 -29.96875 Z M 0.9375 -29.96875 "/></g></g></g><g fill="#fbe8d8" fill-opacity="1"><g transform="translate(110.748728, 123.338205)"><g><path d="M 11.609375 15.828125 C 10.671875 15.828125 9.5625 15.921875 8.28125 16.109375 C 7.007812 16.296875 5.8125 16.390625 4.6875 16.390625 C 3.625 16.390625 2.734375 16.234375 2.015625 15.921875 C 1.296875 15.609375 0.9375 14.984375 0.9375 14.046875 C 0.9375 13.359375 1.09375 12.84375 1.40625 12.5 C 1.71875 12.15625 2.09375 11.71875 2.53125 11.1875 C 2.96875 10.65625 3.34375 9.828125 3.65625 8.703125 C 3.96875 7.585938 4.125 5.9375 4.125 3.75 C 4.125 1.625 4.125 -0.84375 4.125 -3.65625 C 4.125 -6.46875 4.140625 -9.257812 4.171875 -12.03125 C 4.203125 -14.8125 4.21875 -17.21875 4.21875 -19.25 C 4.21875 -21.28125 4.21875 -22.578125 4.21875 -23.140625 C 4.21875 -24.828125 3.953125 -26 3.421875 -26.65625 C 2.890625 -27.3125 2.359375 -27.820312 1.828125 -28.1875 C 1.296875 -28.5625 1.03125 -29.15625 1.03125 -29.96875 C 1.03125 -30.90625 1.34375 -31.546875 1.96875 -31.890625 C 2.59375 -32.234375 3.484375 -32.53125 4.640625 -32.78125 C 5.796875 -33.03125 7.1875 -33.4375 8.8125 -34 C 10.800781 -34.75 12.171875 -35.421875 12.921875 -36.015625 C 13.671875 -36.609375 14.234375 -37.09375 14.609375 -37.46875 C 14.984375 -37.84375 15.578125 -38.03125 16.390625 -38.03125 C 17.515625 -38.03125 18.265625 -37.53125 18.640625 -36.53125 C 19.015625 -35.53125 19.203125 -34.34375 19.203125 -32.96875 L 19.203125 -32.875 C 19.203125 -31.875 19.28125 -31.390625 19.4375 -31.421875 C 19.59375 -31.453125 19.890625 -31.796875 20.328125 -32.453125 C 20.765625 -33.109375 21.375 -33.875 22.15625 -34.75 C 22.9375 -35.625 23.953125 -36.390625 25.203125 -37.046875 C 26.453125 -37.703125 27.945312 -38.03125 29.6875 -38.03125 C 32.875 -38.03125 35.546875 -37.09375 37.703125 -35.21875 C 39.859375 -33.34375 41.484375 -30.953125 42.578125 -28.046875 C 43.671875 -25.148438 44.203125 -22.046875 44.171875 -18.734375 C 44.140625 -15.421875 43.546875 -12.3125 42.390625 -9.40625 C 41.234375 -6.507812 39.515625 -4.125 37.234375 -2.25 C 34.953125 -0.375 32.09375 0.5625 28.65625 0.5625 C 26.789062 0.5625 25.171875 0.28125 23.796875 -0.28125 C 22.421875 -0.84375 21.328125 -1.5625 20.515625 -2.4375 C 20.015625 -3 19.671875 -3.25 19.484375 -3.1875 C 19.296875 -3.125 19.203125 -2.75 19.203125 -2.0625 L 19.203125 3.75 C 19.203125 5.9375 19.359375 7.585938 19.671875 8.703125 C 19.984375 9.828125 20.359375 10.65625 20.796875 11.1875 C 21.234375 11.71875 21.609375 12.15625 21.921875 12.5 C 22.234375 12.84375 22.390625 13.359375 22.390625 14.046875 C 22.390625 14.984375 22.03125 15.609375 21.3125 15.921875 C 20.59375 16.234375 19.703125 16.390625 18.640625 16.390625 C 17.453125 16.390625 16.21875 16.296875 14.9375 16.109375 C 13.65625 15.921875 12.546875 15.828125 11.609375 15.828125 Z M 23.796875 -27.453125 C 22.109375 -27.453125 20.84375 -26.390625 20 -24.265625 C 19.15625 -22.140625 18.734375 -19.671875 18.734375 -16.859375 C 18.734375 -14.046875 19.15625 -11.640625 20 -9.640625 C 20.84375 -7.648438 22.109375 -6.65625 23.796875 -6.65625 C 25.484375 -6.65625 26.742188 -7.664062 27.578125 -9.6875 C 28.421875 -11.71875 28.84375 -14.140625 28.84375 -16.953125 C 28.84375 -19.765625 28.421875 -22.21875 27.578125 -24.3125 C 26.742188 -26.40625 25.484375 -27.453125 23.796875 -27.453125 Z M 23.796875 -27.453125 "/></g></g></g><g fill="#fbe8d8" fill-opacity="1"><g transform="translate(152.899052, 123.338205)"><g><path d="M 1.875 -15.734375 C 1.875 -22.484375 3.445312 -27.882812 6.59375 -31.9375 C 9.75 -36 14.203125 -38.03125 19.953125 -38.03125 C 21.390625 -38.03125 22.609375 -37.984375 23.609375 -37.890625 C 24.609375 -37.796875 25.515625 -37.6875 26.328125 -37.5625 L 26.328125 -38.96875 C 26.328125 -40.65625 26.0625 -41.828125 25.53125 -42.484375 C 25 -43.140625 24.46875 -43.65625 23.9375 -44.03125 C 23.40625 -44.40625 23.140625 -45 23.140625 -45.8125 C 23.140625 -46.738281 23.5 -47.375 24.21875 -47.71875 C 24.9375 -48.0625 25.929688 -48.359375 27.203125 -48.609375 C 28.484375 -48.859375 29.9375 -49.265625 31.5625 -49.828125 C 33.5625 -50.578125 34.921875 -51.25 35.640625 -51.84375 C 36.359375 -52.4375 36.875 -52.921875 37.1875 -53.296875 C 37.5 -53.671875 38.0625 -53.859375 38.875 -53.859375 C 40 -53.859375 40.75 -53.359375 41.125 -52.359375 C 41.5 -51.359375 41.6875 -50.171875 41.6875 -48.796875 L 41.6875 -12.078125 C 41.6875 -9.898438 41.84375 -8.25 42.15625 -7.125 C 42.46875 -6 42.84375 -5.171875 43.28125 -4.640625 C 43.71875 -4.109375 44.09375 -3.671875 44.40625 -3.328125 C 44.71875 -2.984375 44.875 -2.46875 44.875 -1.78125 C 44.875 -0.84375 44.5625 -0.21875 43.9375 0.09375 C 43.3125 0.40625 42.53125 0.5625 41.59375 0.5625 C 40.59375 0.5625 39.515625 0.46875 38.359375 0.28125 C 37.203125 0.09375 36.15625 0 35.21875 0 C 34.21875 0 33.40625 0.0625 32.78125 0.1875 C 32.15625 0.3125 31.4375 0.4375 30.625 0.5625 C 29.4375 0.6875 28.453125 0.421875 27.671875 -0.234375 C 26.898438 -0.890625 26.484375 -1.8125 26.421875 -3 C 26.359375 -4.5625 26.140625 -5.34375 25.765625 -5.34375 C 25.390625 -5.34375 24.765625 -4.78125 23.890625 -3.65625 C 23.015625 -2.53125 21.84375 -1.546875 20.375 -0.703125 C 18.90625 0.140625 16.890625 0.5625 14.328125 0.5625 C 10.273438 0.5625 7.1875 -0.921875 5.0625 -3.890625 C 2.9375 -6.859375 1.875 -10.804688 1.875 -15.734375 Z M 17.515625 -21.453125 C 17.515625 -18.015625 17.859375 -15.21875 18.546875 -13.0625 C 19.234375 -10.90625 20.359375 -9.828125 21.921875 -9.828125 C 23.546875 -9.828125 24.6875 -10.90625 25.34375 -13.0625 C 26 -15.21875 26.328125 -18.015625 26.328125 -21.453125 C 26.328125 -24.953125 26 -27.757812 25.34375 -29.875 C 24.6875 -32 23.546875 -33.0625 21.921875 -33.0625 C 20.359375 -33.0625 19.234375 -32 18.546875 -29.875 C 17.859375 -27.757812 17.515625 -24.953125 17.515625 -21.453125 Z M 17.515625 -21.453125 "/></g></g></g><g fill="#fbe8d8" fill-opacity="1"><g transform="translate(194.862054, 123.338205)"><g><path d="M 12.171875 0.5625 C 8.679688 0.5625 6.09375 -0.46875 4.40625 -2.53125 C 2.71875 -4.59375 1.875 -7.054688 1.875 -9.921875 C 1.875 -14.109375 3.429688 -17.40625 6.546875 -19.8125 C 9.671875 -22.21875 13.734375 -23.953125 18.734375 -25.015625 C 23.484375 -26.015625 25.859375 -27.570312 25.859375 -29.6875 C 25.859375 -30.5 25.515625 -31.296875 24.828125 -32.078125 C 24.140625 -32.859375 22.953125 -33.25 21.265625 -33.25 C 19.578125 -33.25 18.203125 -32.796875 17.140625 -31.890625 C 16.078125 -30.984375 15.140625 -29.953125 14.328125 -28.796875 C 13.515625 -27.648438 12.625 -26.625 11.65625 -25.71875 C 10.6875 -24.8125 9.394531 -24.359375 7.78125 -24.359375 C 6.71875 -24.359375 5.796875 -24.734375 5.015625 -25.484375 C 4.234375 -26.234375 3.84375 -27.132812 3.84375 -28.1875 C 3.84375 -30.3125 4.6875 -32.109375 6.375 -33.578125 C 8.0625 -35.046875 10.257812 -36.15625 12.96875 -36.90625 C 15.6875 -37.65625 18.640625 -38.03125 21.828125 -38.03125 C 25.265625 -38.03125 28.382812 -37.484375 31.1875 -36.390625 C 34 -35.296875 36.25 -33.46875 37.9375 -30.90625 C 39.625 -28.351562 40.46875 -24.859375 40.46875 -20.421875 L 40.46875 -12.078125 C 40.46875 -9.898438 40.625 -8.25 40.9375 -7.125 C 41.25 -6 41.625 -5.171875 42.0625 -4.640625 C 42.5 -4.109375 42.875 -3.671875 43.1875 -3.328125 C 43.5 -2.984375 43.65625 -2.46875 43.65625 -1.78125 C 43.65625 -0.84375 43.375 -0.21875 42.8125 0.09375 C 42.25 0.40625 41.53125 0.5625 40.65625 0.5625 C 39.71875 0.5625 38.6875 0.46875 37.5625 0.28125 C 36.4375 0.09375 35.40625 0 34.46875 0 C 33.46875 0 32.59375 0.046875 31.84375 0.140625 C 31.09375 0.234375 30.3125 0.34375 29.5 0.46875 C 28.507812 0.59375 27.625 0.46875 26.84375 0.09375 C 26.0625 -0.28125 25.609375 -0.96875 25.484375 -1.96875 C 25.421875 -2.96875 25.265625 -3.640625 25.015625 -3.984375 C 24.765625 -4.328125 24.453125 -4.5 24.078125 -4.5 C 23.390625 -4.5 22.5 -4.078125 21.40625 -3.234375 C 20.3125 -2.390625 19 -1.546875 17.46875 -0.703125 C 15.9375 0.140625 14.171875 0.5625 12.171875 0.5625 Z M 16.390625 -13.765625 C 16.390625 -11.953125 16.84375 -10.65625 17.75 -9.875 C 18.65625 -9.101562 19.734375 -8.71875 20.984375 -8.71875 C 22.546875 -8.71875 23.734375 -9.382812 24.546875 -10.71875 C 25.359375 -12.0625 25.765625 -13.640625 25.765625 -15.453125 L 25.765625 -19.953125 C 25.765625 -21.640625 24.984375 -22.078125 23.421875 -21.265625 C 22.421875 -20.765625 21.375 -20.21875 20.28125 -19.625 C 19.1875 -19.03125 18.265625 -18.296875 17.515625 -17.421875 C 16.765625 -16.546875 16.390625 -15.328125 16.390625 -13.765625 Z M 16.390625 -13.765625 "/></g></g></g><g fill="#fbe8d8" fill-opacity="1"><g transform="translate(235.607375, 123.338205)"><g><path d="M 0.9375 -35.21875 C 0.9375 -36.15625 1.25 -36.78125 1.875 -37.09375 C 2.5 -37.40625 3.375 -37.71875 4.5 -38.03125 C 5.625 -38.34375 6.9375 -38.96875 8.4375 -39.90625 C 10.425781 -41.15625 11.859375 -42.359375 12.734375 -43.515625 C 13.609375 -44.671875 14.296875 -45.601562 14.796875 -46.3125 C 15.296875 -47.03125 15.953125 -47.390625 16.765625 -47.390625 C 17.890625 -47.390625 18.5625 -46.828125 18.78125 -45.703125 C 19 -44.585938 19.109375 -43.34375 19.109375 -41.96875 L 19.109375 -38.5 C 19.109375 -37.8125 19.453125 -37.46875 20.140625 -37.46875 L 21.640625 -37.46875 C 23.203125 -37.46875 23.984375 -36.6875 23.984375 -35.125 C 23.984375 -33.5 23.203125 -32.6875 21.640625 -32.6875 L 20.140625 -32.6875 C 19.453125 -32.6875 19.109375 -32.34375 19.109375 -31.65625 L 19.109375 -20.703125 C 19.109375 -16.703125 19.15625 -13.796875 19.25 -11.984375 C 19.34375 -10.179688 19.828125 -8.84375 20.703125 -7.96875 C 21.265625 -7.46875 21.734375 -7.15625 22.109375 -7.03125 C 22.484375 -6.90625 22.765625 -6.75 22.953125 -6.5625 C 23.140625 -6.375 23.234375 -5.9375 23.234375 -5.25 C 23.234375 -4.0625 22.5625 -2.796875 21.21875 -1.453125 C 19.875 -0.109375 17.515625 0.5625 14.140625 0.5625 C 10.210938 0.5625 7.546875 -0.859375 6.140625 -3.703125 C 4.734375 -6.546875 4.03125 -10.242188 4.03125 -14.796875 L 4.125 -28.375 C 4.125 -30.0625 3.859375 -31.234375 3.328125 -31.890625 C 2.796875 -32.546875 2.265625 -33.0625 1.734375 -33.4375 C 1.203125 -33.8125 0.9375 -34.40625 0.9375 -35.21875 Z M 0.9375 -35.21875 "/></g></g></g><g fill="#fbe8d8" fill-opacity="1"><g transform="translate(256.214145, 123.338205)"><g><path d="M 22.578125 0.5625 C 19.265625 0.5625 16.015625 -0.09375 12.828125 -1.40625 C 9.648438 -2.71875 7.03125 -4.773438 4.96875 -7.578125 C 2.90625 -10.390625 1.875 -14.078125 1.875 -18.640625 C 1.875 -22.515625 2.71875 -25.898438 4.40625 -28.796875 C 6.09375 -31.703125 8.429688 -33.96875 11.421875 -35.59375 C 14.421875 -37.21875 17.890625 -38.03125 21.828125 -38.03125 C 25.703125 -38.03125 28.851562 -37.5625 31.28125 -36.625 C 33.71875 -35.6875 35.609375 -34.484375 36.953125 -33.015625 C 38.296875 -31.546875 39.21875 -30.046875 39.71875 -28.515625 C 40.21875 -26.992188 40.46875 -25.671875 40.46875 -24.546875 C 40.46875 -21.421875 39.5 -18.875 37.5625 -16.90625 C 35.625 -14.9375 33.15625 -13.5 30.15625 -12.59375 C 27.164062 -11.6875 24.109375 -11.234375 20.984375 -11.234375 C 20.109375 -11.234375 19.46875 -10.921875 19.0625 -10.296875 C 18.65625 -9.671875 18.53125 -8.953125 18.6875 -8.140625 C 18.84375 -7.335938 19.34375 -6.625 20.1875 -6 C 21.03125 -5.375 22.234375 -5.0625 23.796875 -5.0625 C 26.046875 -5.0625 27.820312 -5.46875 29.125 -6.28125 C 30.4375 -7.09375 31.484375 -8.023438 32.265625 -9.078125 C 33.046875 -10.140625 33.796875 -11.078125 34.515625 -11.890625 C 35.234375 -12.703125 36.1875 -13.109375 37.375 -13.109375 C 38.4375 -13.109375 39.234375 -12.78125 39.765625 -12.125 C 40.296875 -11.46875 40.5625 -10.734375 40.5625 -9.921875 C 40.5625 -7.804688 39.734375 -5.96875 38.078125 -4.40625 C 36.421875 -2.84375 34.21875 -1.625 31.46875 -0.75 C 28.726562 0.125 25.765625 0.5625 22.578125 0.5625 Z M 21.828125 -33.25 C 20.515625 -33.25 19.46875 -32.46875 18.6875 -30.90625 C 17.90625 -29.34375 17.515625 -27.253906 17.515625 -24.640625 C 17.515625 -22.015625 17.90625 -19.921875 18.6875 -18.359375 C 19.46875 -16.796875 20.515625 -16.015625 21.828125 -16.015625 C 23.140625 -16.015625 24.1875 -16.796875 24.96875 -18.359375 C 25.75 -19.921875 26.140625 -22.015625 26.140625 -24.640625 C 26.140625 -27.253906 25.75 -29.34375 24.96875 -30.90625 C 24.1875 -32.46875 23.140625 -33.25 21.828125 -33.25 Z M 21.828125 -33.25 "/></g></g></g><g fill="#fbe8d8" fill-opacity="1"><g transform="translate(294.805102, 123.338205)"><g><path d="M 1.875 -9 C 1.875 -10.238281 2.234375 -11.234375 2.953125 -11.984375 C 3.671875 -12.734375 4.71875 -13.109375 6.09375 -13.109375 C 7.28125 -13.109375 8.242188 -12.671875 8.984375 -11.796875 C 9.734375 -10.921875 10.515625 -9.921875 11.328125 -8.796875 C 12.140625 -7.679688 13.171875 -6.6875 14.421875 -5.8125 C 15.671875 -4.9375 17.359375 -4.5 19.484375 -4.5 C 21.109375 -4.5 22.390625 -4.671875 23.328125 -5.015625 C 24.265625 -5.359375 24.734375 -6.15625 24.734375 -7.40625 C 24.734375 -8.40625 24.1875 -9.210938 23.09375 -9.828125 C 22 -10.453125 20.609375 -11.03125 18.921875 -11.5625 C 17.234375 -12.09375 15.4375 -12.6875 13.53125 -13.34375 C 11.625 -14 9.828125 -14.828125 8.140625 -15.828125 C 6.460938 -16.828125 5.078125 -18.125 3.984375 -19.71875 C 2.890625 -21.3125 2.34375 -23.328125 2.34375 -25.765625 C 2.34375 -28.503906 2.96875 -30.703125 4.21875 -32.359375 C 5.46875 -34.015625 7.023438 -35.25 8.890625 -36.0625 C 10.765625 -36.875 12.625 -37.40625 14.46875 -37.65625 C 16.3125 -37.90625 17.828125 -38.03125 19.015625 -38.03125 C 22.203125 -38.03125 25.164062 -37.65625 27.90625 -36.90625 C 30.65625 -36.15625 32.875 -35.046875 34.5625 -33.578125 C 36.25 -32.109375 37.09375 -30.3125 37.09375 -28.1875 C 37.09375 -27.132812 36.703125 -26.234375 35.921875 -25.484375 C 35.140625 -24.734375 34.21875 -24.359375 33.15625 -24.359375 C 31.53125 -24.359375 30.21875 -24.8125 29.21875 -25.71875 C 28.226562 -26.625 27.328125 -27.648438 26.515625 -28.796875 C 25.703125 -29.953125 24.765625 -30.984375 23.703125 -31.890625 C 22.640625 -32.796875 21.265625 -33.25 19.578125 -33.25 C 17.890625 -33.25 16.78125 -32.859375 16.25 -32.078125 C 15.71875 -31.296875 15.453125 -30.5 15.453125 -29.6875 C 15.453125 -28.507812 15.984375 -27.609375 17.046875 -26.984375 C 18.109375 -26.359375 19.484375 -25.84375 21.171875 -25.4375 C 22.859375 -25.03125 24.632812 -24.578125 26.5 -24.078125 C 28.375 -23.578125 30.15625 -22.90625 31.84375 -22.0625 C 33.53125 -21.21875 34.90625 -20.03125 35.96875 -18.5 C 37.03125 -16.96875 37.5625 -14.953125 37.5625 -12.453125 C 37.5625 -9.273438 36.640625 -6.734375 34.796875 -4.828125 C 32.953125 -2.921875 30.59375 -1.546875 27.71875 -0.703125 C 24.851562 0.140625 21.828125 0.5625 18.640625 0.5625 C 17.328125 0.5625 15.734375 0.40625 13.859375 0.09375 C 11.984375 -0.21875 10.125 -0.734375 8.28125 -1.453125 C 6.445312 -2.171875 4.921875 -3.140625 3.703125 -4.359375 C 2.484375 -5.578125 1.875 -7.125 1.875 -9 Z M 1.875 -9 "/></g></g></g></g></g></svg>