<svg xmlns="http://www.w3.org/2000/svg" xmlns:xlink="http://www.w3.org/1999/xlink" width="840" zoomAndPan="magnify" viewBox="0 0 630 225" height="300" preserveAspectRatio="xMidYMid meet" version="1.0"><defs><g/><clipPath id="71ffef8177"><rect x="0" width="266" y="0" height="75"/></clipPath></defs><rect x="-63" width="756" fill="#ffffff" y="-22.5" height="270" fill-opacity="1"/><rect x="-63" width="756" fill="#fbe8d8" y="-22.5" height="270" fill-opacity="1"/><g transform="matrix(1, 0, 0, 1, 181, 75)"><g clip-path="url(#71ffef8177)"><g fill="#5a7969" fill-opacity="1"><g transform="translate(1.68439, 57.318836)"><g><path d="M 0.9375 -45.0625 C 0.9375 -46 1.296875 -46.617188 2.015625 -46.921875 C 2.734375 -47.234375 3.625 -47.390625 4.6875 -47.390625 C 5.8125 -47.390625 7.007812 -47.296875 8.28125 -47.109375 C 9.5625 -46.921875 10.671875 -46.828125 11.609375 -46.828125 C 12.546875 -46.828125 13.65625 -46.921875 14.9375 -47.109375 C 16.21875 -47.296875 17.453125 -47.390625 18.640625 -47.390625 C 19.703125 -47.390625 20.59375 -47.234375 21.3125 -46.921875 C 22.03125 -46.617188 22.390625 -46 22.390625 -45.0625 C 22.390625 -44.375 22.234375 -43.859375 21.921875 -43.515625 C 21.609375 -43.171875 21.234375 -42.734375 20.796875 -42.203125 C 20.359375 -41.671875 19.984375 -40.84375 19.671875 -39.71875 C 19.359375 -38.59375 19.203125 -36.9375 19.203125 -34.75 L 19.203125 -30.625 C 19.203125 -29.0625 19.984375 -28.28125 21.546875 -28.28125 L 27.921875 -28.28125 C 29.472656 -28.28125 30.25 -29.0625 30.25 -30.625 L 30.25 -34.75 C 30.25 -36.9375 30.09375 -38.59375 29.78125 -39.71875 C 29.46875 -40.84375 29.09375 -41.671875 28.65625 -42.203125 C 28.226562 -42.734375 27.859375 -43.171875 27.546875 -43.515625 C 27.234375 -43.859375 27.078125 -44.375 27.078125 -45.0625 C 27.078125 -46 27.429688 -46.617188 28.140625 -46.921875 C 28.859375 -47.234375 29.75 -47.390625 30.8125 -47.390625 C 31.9375 -47.390625 33.140625 -47.296875 34.421875 -47.109375 C 35.703125 -46.921875 36.8125 -46.828125 37.75 -46.828125 C 38.6875 -46.828125 39.796875 -46.921875 41.078125 -47.109375 C 42.359375 -47.296875 43.59375 -47.390625 44.78125 -47.390625 C 45.84375 -47.390625 46.726562 -47.234375 47.4375 -46.921875 C 48.15625 -46.617188 48.515625 -46 48.515625 -45.0625 C 48.515625 -44.375 48.359375 -43.859375 48.046875 -43.515625 C 47.734375 -43.171875 47.359375 -42.734375 46.921875 -42.203125 C 46.492188 -41.671875 46.125 -40.84375 45.8125 -39.71875 C 45.5 -38.59375 45.34375 -36.9375 45.34375 -34.75 L 45.34375 -12.078125 C 45.34375 -9.898438 45.5 -8.25 45.8125 -7.125 C 46.125 -6 46.492188 -5.171875 46.921875 -4.640625 C 47.359375 -4.109375 47.734375 -3.671875 48.046875 -3.328125 C 48.359375 -2.984375 48.515625 -2.46875 48.515625 -1.78125 C 48.515625 -0.84375 48.15625 -0.21875 47.4375 0.09375 C 46.726562 0.40625 45.84375 0.5625 44.78125 0.5625 C 43.59375 0.5625 42.359375 0.46875 41.078125 0.28125 C 39.796875 0.09375 38.6875 0 37.75 0 C 36.8125 0 35.703125 0.09375 34.421875 0.28125 C 33.140625 0.46875 31.9375 0.5625 30.8125 0.5625 C 29.75 0.5625 28.859375 0.40625 28.140625 0.09375 C 27.429688 -0.21875 27.078125 -0.84375 27.078125 -1.78125 C 27.078125 -2.46875 27.234375 -2.984375 27.546875 -3.328125 C 27.859375 -3.671875 28.226562 -4.109375 28.65625 -4.640625 C 29.09375 -5.171875 29.46875 -6 29.78125 -7.125 C 30.09375 -8.25 30.25 -9.898438 30.25 -12.078125 L 30.25 -20.984375 C 30.25 -22.546875 29.472656 -23.328125 27.921875 -23.328125 L 21.546875 -23.328125 C 19.984375 -23.328125 19.203125 -22.546875 19.203125 -20.984375 L 19.203125 -12.078125 C 19.203125 -9.898438 19.359375 -8.25 19.671875 -7.125 C 19.984375 -6 20.359375 -5.171875 20.796875 -4.640625 C 21.234375 -4.109375 21.609375 -3.671875 21.921875 -3.328125 C 22.234375 -2.984375 22.390625 -2.46875 22.390625 -1.78125 C 22.390625 -0.84375 22.03125 -0.21875 21.3125 0.09375 C 20.59375 0.40625 19.703125 0.5625 18.640625 0.5625 C 17.453125 0.5625 16.21875 0.46875 14.9375 0.28125 C 13.65625 0.09375 12.546875 0 11.609375 0 C 10.671875 0 9.5625 0.09375 8.28125 0.28125 C 7.007812 0.46875 5.8125 0.5625 4.6875 0.5625 C 3.625 0.5625 2.734375 0.40625 2.015625 0.09375 C 1.296875 -0.21875 0.9375 -0.84375 0.9375 -1.78125 C 0.9375 -2.46875 1.09375 -2.984375 1.40625 -3.328125 C 1.71875 -3.671875 2.09375 -4.109375 2.53125 -4.640625 C 2.96875 -5.171875 3.34375 -6 3.65625 -7.125 C 3.96875 -8.25 4.125 -9.898438 4.125 -12.078125 L 4.125 -34.75 C 4.125 -36.9375 3.96875 -38.59375 3.65625 -39.71875 C 3.34375 -40.84375 2.96875 -41.671875 2.53125 -42.203125 C 2.09375 -42.734375 1.71875 -43.171875 1.40625 -43.515625 C 1.09375 -43.859375 0.9375 -44.375 0.9375 -45.0625 Z M 0.9375 -45.0625 "/></g></g></g><g fill="#5a7969" fill-opacity="1"><g transform="translate(47.30042, 57.318836)"><g><path d="M 22.203125 0.5625 C 15.953125 0.5625 11 -1.132812 7.34375 -4.53125 C 3.695312 -7.9375 1.875 -12.671875 1.875 -18.734375 C 1.875 -24.859375 3.695312 -29.601562 7.34375 -32.96875 C 11 -36.34375 15.953125 -38.03125 22.203125 -38.03125 C 28.441406 -38.03125 33.390625 -36.34375 37.046875 -32.96875 C 40.703125 -29.601562 42.53125 -24.859375 42.53125 -18.734375 C 42.53125 -12.671875 40.703125 -7.9375 37.046875 -4.53125 C 33.390625 -1.132812 28.441406 0.5625 22.203125 0.5625 Z M 17.328125 -18.734375 C 17.328125 -16.171875 17.46875 -13.8125 17.75 -11.65625 C 18.03125 -9.507812 18.53125 -7.8125 19.25 -6.5625 C 19.96875 -5.3125 20.953125 -4.6875 22.203125 -4.6875 C 23.515625 -4.6875 24.53125 -5.3125 25.25 -6.5625 C 25.96875 -7.8125 26.453125 -9.507812 26.703125 -11.65625 C 26.953125 -13.8125 27.078125 -16.171875 27.078125 -18.734375 C 27.078125 -21.359375 26.953125 -23.726562 26.703125 -25.84375 C 26.453125 -27.96875 25.96875 -29.65625 25.25 -30.90625 C 24.53125 -32.15625 23.515625 -32.78125 22.203125 -32.78125 C 20.953125 -32.78125 19.96875 -32.15625 19.25 -30.90625 C 18.53125 -29.65625 18.03125 -27.96875 17.75 -25.84375 C 17.46875 -23.726562 17.328125 -21.359375 17.328125 -18.734375 Z M 17.328125 -18.734375 "/></g></g></g><g fill="#5a7969" fill-opacity="1"><g transform="translate(87.858404, 57.318836)"><g><path d="M 1.875 -9 C 1.875 -10.238281 2.234375 -11.234375 2.953125 -11.984375 C 3.671875 -12.734375 4.71875 -13.109375 6.09375 -13.109375 C 7.28125 -13.109375 8.242188 -12.671875 8.984375 -11.796875 C 9.734375 -10.921875 10.515625 -9.921875 11.328125 -8.796875 C 12.140625 -7.679688 13.171875 -6.6875 14.421875 -5.8125 C 15.671875 -4.9375 17.359375 -4.5 19.484375 -4.5 C 21.109375 -4.5 22.390625 -4.671875 23.328125 -5.015625 C 24.265625 -5.359375 24.734375 -6.15625 24.734375 -7.40625 C 24.734375 -8.40625 24.1875 -9.210938 23.09375 -9.828125 C 22 -10.453125 20.609375 -11.03125 18.921875 -11.5625 C 17.234375 -12.09375 15.4375 -12.6875 13.53125 -13.34375 C 11.625 -14 9.828125 -14.828125 8.140625 -15.828125 C 6.460938 -16.828125 5.078125 -18.125 3.984375 -19.71875 C 2.890625 -21.3125 2.34375 -23.328125 2.34375 -25.765625 C 2.34375 -28.503906 2.96875 -30.703125 4.21875 -32.359375 C 5.46875 -34.015625 7.023438 -35.25 8.890625 -36.0625 C 10.765625 -36.875 12.625 -37.40625 14.46875 -37.65625 C 16.3125 -37.90625 17.828125 -38.03125 19.015625 -38.03125 C 22.203125 -38.03125 25.164062 -37.65625 27.90625 -36.90625 C 30.65625 -36.15625 32.875 -35.046875 34.5625 -33.578125 C 36.25 -32.109375 37.09375 -30.3125 37.09375 -28.1875 C 37.09375 -27.132812 36.703125 -26.234375 35.921875 -25.484375 C 35.140625 -24.734375 34.21875 -24.359375 33.15625 -24.359375 C 31.53125 -24.359375 30.21875 -24.8125 29.21875 -25.71875 C 28.226562 -26.625 27.328125 -27.648438 26.515625 -28.796875 C 25.703125 -29.953125 24.765625 -30.984375 23.703125 -31.890625 C 22.640625 -32.796875 21.265625 -33.25 19.578125 -33.25 C 17.890625 -33.25 16.78125 -32.859375 16.25 -32.078125 C 15.71875 -31.296875 15.453125 -30.5 15.453125 -29.6875 C 15.453125 -28.507812 15.984375 -27.609375 17.046875 -26.984375 C 18.109375 -26.359375 19.484375 -25.84375 21.171875 -25.4375 C 22.859375 -25.03125 24.632812 -24.578125 26.5 -24.078125 C 28.375 -23.578125 30.15625 -22.90625 31.84375 -22.0625 C 33.53125 -21.21875 34.90625 -20.03125 35.96875 -18.5 C 37.03125 -16.96875 37.5625 -14.953125 37.5625 -12.453125 C 37.5625 -9.273438 36.640625 -6.734375 34.796875 -4.828125 C 32.953125 -2.921875 30.59375 -1.546875 27.71875 -0.703125 C 24.851562 0.140625 21.828125 0.5625 18.640625 0.5625 C 17.328125 0.5625 15.734375 0.40625 13.859375 0.09375 C 11.984375 -0.21875 10.125 -0.734375 8.28125 -1.453125 C 6.445312 -2.171875 4.921875 -3.140625 3.703125 -4.359375 C 2.484375 -5.578125 1.875 -7.125 1.875 -9 Z M 1.875 -9 "/></g></g></g><g fill="#5a7969" fill-opacity="1"><g transform="translate(123.452003, 57.318836)"><g><path d="M 11.609375 15.828125 C 10.671875 15.828125 9.5625 15.921875 8.28125 16.109375 C 7.007812 16.296875 5.8125 16.390625 4.6875 16.390625 C 3.625 16.390625 2.734375 16.234375 2.015625 15.921875 C 1.296875 15.609375 0.9375 14.984375 0.9375 14.046875 C 0.9375 13.359375 1.09375 12.84375 1.40625 12.5 C 1.71875 12.15625 2.09375 11.71875 2.53125 11.1875 C 2.96875 10.65625 3.34375 9.828125 3.65625 8.703125 C 3.96875 7.585938 4.125 5.9375 4.125 3.75 C 4.125 1.625 4.125 -0.84375 4.125 -3.65625 C 4.125 -6.46875 4.140625 -9.257812 4.171875 -12.03125 C 4.203125 -14.8125 4.21875 -17.21875 4.21875 -19.25 C 4.21875 -21.28125 4.21875 -22.578125 4.21875 -23.140625 C 4.21875 -24.828125 3.953125 -26 3.421875 -26.65625 C 2.890625 -27.3125 2.359375 -27.820312 1.828125 -28.1875 C 1.296875 -28.5625 1.03125 -29.15625 1.03125 -29.96875 C 1.03125 -30.90625 1.34375 -31.546875 1.96875 -31.890625 C 2.59375 -32.234375 3.484375 -32.53125 4.640625 -32.78125 C 5.796875 -33.03125 7.1875 -33.4375 8.8125 -34 C 10.800781 -34.75 12.171875 -35.421875 12.921875 -36.015625 C 13.671875 -36.609375 14.234375 -37.09375 14.609375 -37.46875 C 14.984375 -37.84375 15.578125 -38.03125 16.390625 -38.03125 C 17.515625 -38.03125 18.265625 -37.53125 18.640625 -36.53125 C 19.015625 -35.53125 19.203125 -34.34375 19.203125 -32.96875 L 19.203125 -32.875 C 19.203125 -31.875 19.28125 -31.390625 19.4375 -31.421875 C 19.59375 -31.453125 19.890625 -31.796875 20.328125 -32.453125 C 20.765625 -33.109375 21.375 -33.875 22.15625 -34.75 C 22.9375 -35.625 23.953125 -36.390625 25.203125 -37.046875 C 26.453125 -37.703125 27.945312 -38.03125 29.6875 -38.03125 C 32.875 -38.03125 35.546875 -37.09375 37.703125 -35.21875 C 39.859375 -33.34375 41.484375 -30.953125 42.578125 -28.046875 C 43.671875 -25.148438 44.203125 -22.046875 44.171875 -18.734375 C 44.140625 -15.421875 43.546875 -12.3125 42.390625 -9.40625 C 41.234375 -6.507812 39.515625 -4.125 37.234375 -2.25 C 34.953125 -0.375 32.09375 0.5625 28.65625 0.5625 C 26.789062 0.5625 25.171875 0.28125 23.796875 -0.28125 C 22.421875 -0.84375 21.328125 -1.5625 20.515625 -2.4375 C 20.015625 -3 19.671875 -3.25 19.484375 -3.1875 C 19.296875 -3.125 19.203125 -2.75 19.203125 -2.0625 L 19.203125 3.75 C 19.203125 5.9375 19.359375 7.585938 19.671875 8.703125 C 19.984375 9.828125 20.359375 10.65625 20.796875 11.1875 C 21.234375 11.71875 21.609375 12.15625 21.921875 12.5 C 22.234375 12.84375 22.390625 13.359375 22.390625 14.046875 C 22.390625 14.984375 22.03125 15.609375 21.3125 15.921875 C 20.59375 16.234375 19.703125 16.390625 18.640625 16.390625 C 17.453125 16.390625 16.21875 16.296875 14.9375 16.109375 C 13.65625 15.921875 12.546875 15.828125 11.609375 15.828125 Z M 23.796875 -27.453125 C 22.109375 -27.453125 20.84375 -26.390625 20 -24.265625 C 19.15625 -22.140625 18.734375 -19.671875 18.734375 -16.859375 C 18.734375 -14.046875 19.15625 -11.640625 20 -9.640625 C 20.84375 -7.648438 22.109375 -6.65625 23.796875 -6.65625 C 25.484375 -6.65625 26.742188 -7.664062 27.578125 -9.6875 C 28.421875 -11.71875 28.84375 -14.140625 28.84375 -16.953125 C 28.84375 -19.765625 28.421875 -22.21875 27.578125 -24.3125 C 26.742188 -26.40625 25.484375 -27.453125 23.796875 -27.453125 Z M 23.796875 -27.453125 "/></g></g></g><g fill="#5a7969" fill-opacity="1"><g transform="translate(165.602328, 57.318836)"><g><path d="M 11.890625 0 C 10.953125 0 9.84375 0.09375 8.5625 0.28125 C 7.289062 0.46875 6.09375 0.5625 4.96875 0.5625 C 3.90625 0.5625 3.015625 0.40625 2.296875 0.09375 C 1.578125 -0.21875 1.21875 -0.84375 1.21875 -1.78125 C 1.21875 -2.46875 1.375 -2.984375 1.6875 -3.328125 C 2 -3.671875 2.375 -4.109375 2.8125 -4.640625 C 3.25 -5.171875 3.625 -6 3.9375 -7.125 C 4.25 -8.25 4.40625 -9.898438 4.40625 -12.078125 C 4.40625 -14.953125 4.421875 -17.03125 4.453125 -18.3125 C 4.484375 -19.59375 4.5 -20.53125 4.5 -21.125 C 4.5 -21.71875 4.5 -22.390625 4.5 -23.140625 C 4.5 -24.828125 4.234375 -26 3.703125 -26.65625 C 3.171875 -27.3125 2.640625 -27.820312 2.109375 -28.1875 C 1.578125 -28.5625 1.3125 -29.15625 1.3125 -29.96875 C 1.3125 -30.90625 1.625 -31.546875 2.25 -31.890625 C 2.875 -32.234375 3.765625 -32.53125 4.921875 -32.78125 C 6.078125 -33.03125 7.46875 -33.4375 9.09375 -34 C 11.082031 -34.75 12.453125 -35.421875 13.203125 -36.015625 C 13.953125 -36.609375 14.515625 -37.09375 14.890625 -37.46875 C 15.265625 -37.84375 15.859375 -38.03125 16.671875 -38.03125 C 17.796875 -38.03125 18.546875 -37.53125 18.921875 -36.53125 C 19.296875 -35.53125 19.484375 -34.34375 19.484375 -32.96875 L 19.484375 -12.078125 C 19.484375 -9.898438 19.640625 -8.25 19.953125 -7.125 C 20.265625 -6 20.640625 -5.171875 21.078125 -4.640625 C 21.515625 -4.109375 21.890625 -3.671875 22.203125 -3.328125 C 22.515625 -2.984375 22.671875 -2.46875 22.671875 -1.78125 C 22.671875 -0.84375 22.3125 -0.21875 21.59375 0.09375 C 20.875 0.40625 19.984375 0.5625 18.921875 0.5625 C 17.734375 0.5625 16.5 0.46875 15.21875 0.28125 C 13.9375 0.09375 12.828125 0 11.890625 0 Z M 1.21875 -40.65625 C 0.59375 -42.53125 0.921875 -44.554688 2.203125 -46.734375 C 3.484375 -48.921875 5.4375 -50.703125 8.0625 -52.078125 C 10.238281 -53.203125 12.234375 -53.765625 14.046875 -53.765625 C 16.796875 -53.765625 18.578125 -52.640625 19.390625 -50.390625 C 20.078125 -48.453125 19.78125 -46.421875 18.5 -44.296875 C 17.21875 -42.179688 15.265625 -40.40625 12.640625 -38.96875 C 10.398438 -37.84375 8.375 -37.28125 6.5625 -37.28125 C 3.875 -37.28125 2.09375 -38.40625 1.21875 -40.65625 Z M 1.21875 -40.65625 "/></g></g></g><g fill="#5a7969" fill-opacity="1"><g transform="translate(185.272429, 57.318836)"><g><path d="M 1.875 -18.640625 C 1.875 -24.453125 3.710938 -29.132812 7.390625 -32.6875 C 11.078125 -36.25 16.234375 -38.03125 22.859375 -38.03125 C 28.597656 -38.03125 32.953125 -36.75 35.921875 -34.1875 C 38.890625 -31.625 40.375 -28.410156 40.375 -24.546875 C 40.375 -22.421875 39.625 -20.515625 38.125 -18.828125 C 36.625 -17.140625 34.5625 -16.296875 31.9375 -16.296875 C 29.8125 -16.296875 28.0625 -17.03125 26.6875 -18.5 C 25.320312 -19.96875 24.640625 -21.578125 24.640625 -23.328125 C 24.640625 -25.390625 24.78125 -27.148438 25.0625 -28.609375 C 25.34375 -30.078125 25.453125 -31.21875 25.390625 -32.03125 C 25.328125 -32.84375 24.796875 -33.25 23.796875 -33.25 C 22.234375 -33.25 20.90625 -31.953125 19.8125 -29.359375 C 18.71875 -26.773438 18.203125 -23.265625 18.265625 -18.828125 C 18.328125 -14.640625 19.0625 -11.28125 20.46875 -8.75 C 21.875 -6.226562 23.953125 -5 26.703125 -5.0625 C 28.566406 -5.0625 29.96875 -5.46875 30.90625 -6.28125 C 31.84375 -7.09375 32.578125 -8.023438 33.109375 -9.078125 C 33.640625 -10.140625 34.1875 -11.078125 34.75 -11.890625 C 35.3125 -12.703125 36.1875 -13.109375 37.375 -13.109375 C 38.4375 -13.109375 39.234375 -12.78125 39.765625 -12.125 C 40.296875 -11.46875 40.5625 -10.734375 40.5625 -9.921875 C 40.5625 -7.804688 39.734375 -5.96875 38.078125 -4.40625 C 36.421875 -2.84375 34.21875 -1.625 31.46875 -0.75 C 28.726562 0.125 25.765625 0.5625 22.578125 0.5625 C 19.265625 0.5625 16.015625 -0.078125 12.828125 -1.359375 C 9.648438 -2.640625 7.03125 -4.695312 4.96875 -7.53125 C 2.90625 -10.375 1.875 -14.078125 1.875 -18.640625 Z M 1.875 -18.640625 "/></g></g></g><g fill="#5a7969" fill-opacity="1"><g transform="translate(223.863385, 57.318836)"><g><path d="M 22.578125 0.5625 C 19.265625 0.5625 16.015625 -0.09375 12.828125 -1.40625 C 9.648438 -2.71875 7.03125 -4.773438 4.96875 -7.578125 C 2.90625 -10.390625 1.875 -14.078125 1.875 -18.640625 C 1.875 -22.515625 2.71875 -25.898438 4.40625 -28.796875 C 6.09375 -31.703125 8.429688 -33.96875 11.421875 -35.59375 C 14.421875 -37.21875 17.890625 -38.03125 21.828125 -38.03125 C 25.703125 -38.03125 28.851562 -37.5625 31.28125 -36.625 C 33.71875 -35.6875 35.609375 -34.484375 36.953125 -33.015625 C 38.296875 -31.546875 39.21875 -30.046875 39.71875 -28.515625 C 40.21875 -26.992188 40.46875 -25.671875 40.46875 -24.546875 C 40.46875 -21.421875 39.5 -18.875 37.5625 -16.90625 C 35.625 -14.9375 33.15625 -13.5 30.15625 -12.59375 C 27.164062 -11.6875 24.109375 -11.234375 20.984375 -11.234375 C 20.109375 -11.234375 19.46875 -10.921875 19.0625 -10.296875 C 18.65625 -9.671875 18.53125 -8.953125 18.6875 -8.140625 C 18.84375 -7.335938 19.34375 -6.625 20.1875 -6 C 21.03125 -5.375 22.234375 -5.0625 23.796875 -5.0625 C 26.046875 -5.0625 27.820312 -5.46875 29.125 -6.28125 C 30.4375 -7.09375 31.484375 -8.023438 32.265625 -9.078125 C 33.046875 -10.140625 33.796875 -11.078125 34.515625 -11.890625 C 35.234375 -12.703125 36.1875 -13.109375 37.375 -13.109375 C 38.4375 -13.109375 39.234375 -12.78125 39.765625 -12.125 C 40.296875 -11.46875 40.5625 -10.734375 40.5625 -9.921875 C 40.5625 -7.804688 39.734375 -5.96875 38.078125 -4.40625 C 36.421875 -2.84375 34.21875 -1.625 31.46875 -0.75 C 28.726562 0.125 25.765625 0.5625 22.578125 0.5625 Z M 21.828125 -33.25 C 20.515625 -33.25 19.46875 -32.46875 18.6875 -30.90625 C 17.90625 -29.34375 17.515625 -27.253906 17.515625 -24.640625 C 17.515625 -22.015625 17.90625 -19.921875 18.6875 -18.359375 C 19.46875 -16.796875 20.515625 -16.015625 21.828125 -16.015625 C 23.140625 -16.015625 24.1875 -16.796875 24.96875 -18.359375 C 25.75 -19.921875 26.140625 -22.015625 26.140625 -24.640625 C 26.140625 -27.253906 25.75 -29.34375 24.96875 -30.90625 C 24.1875 -32.46875 23.140625 -33.25 21.828125 -33.25 Z M 21.828125 -33.25 "/></g></g></g></g></g></svg>