<svg xmlns="http://www.w3.org/2000/svg" xmlns:xlink="http://www.w3.org/1999/xlink" width="1080" zoomAndPan="magnify" viewBox="0 0 810 1439.999935" height="1920" preserveAspectRatio="xMidYMid meet" version="1.0"><defs><g/><clipPath id="a40bef0a15"><rect x="0" width="745" y="0" height="742"/></clipPath><clipPath id="339c848b8a"><path d="M 0.480469 0.71875 L 232 0.71875 L 232 344 L 0.480469 344 Z M 0.480469 0.71875 " clip-rule="nonzero"/></clipPath><clipPath id="2df87c0c49"><rect x="0" width="232" y="0" height="344"/></clipPath><clipPath id="6187e14f4f"><path d="M 162 74 L 370.320312 74 L 370.320312 417.121094 L 162 417.121094 Z M 162 74 " clip-rule="nonzero"/></clipPath><clipPath id="6e46749f2d"><rect x="0" width="209" y="0" height="344"/></clipPath><clipPath id="b9f846889c"><rect x="0" width="371" y="0" height="418"/></clipPath></defs><rect x="-81" width="972" fill="#ffffff" y="-143.999994" height="1727.999922" fill-opacity="1"/><rect x="-81" width="972" fill="#cb6b4d" y="-143.999994" height="1727.999922" fill-opacity="1"/><g transform="matrix(1, 0, 0, 1, 33, 158)"><g clip-path="url(#a40bef0a15)"><g fill="#ffffff" fill-opacity="1"><g transform="translate(342.912894, 664.682039)"><g><path d="M -30.3125 -7.359375 C -25.175781 -6.285156 -20.859375 -4.203125 -17.359375 -1.109375 C -13.867188 1.984375 -11.425781 5.75 -10.03125 10.1875 C -8.632812 14.625 -8.476562 19.410156 -9.5625 24.546875 C -10.644531 29.734375 -12.710938 34.066406 -15.765625 37.546875 C -18.828125 41.035156 -22.578125 43.488281 -27.015625 44.90625 C -31.460938 46.320312 -36.253906 46.492188 -41.390625 45.421875 C -46.585938 44.328125 -50.921875 42.238281 -54.390625 39.15625 C -57.867188 36.070312 -60.320312 32.316406 -61.75 27.890625 C -63.175781 23.472656 -63.347656 18.671875 -62.265625 13.484375 C -61.179688 8.347656 -59.09375 4.03125 -56 0.53125 C -52.914062 -2.96875 -49.160156 -5.429688 -44.734375 -6.859375 C -40.316406 -8.285156 -35.507812 -8.453125 -30.3125 -7.359375 Z M -16.09375 23.1875 C -15.269531 19.269531 -15.378906 15.628906 -16.421875 12.265625 C -17.460938 8.898438 -19.296875 6.054688 -21.921875 3.734375 C -24.546875 1.410156 -27.789062 -0.15625 -31.65625 -0.96875 C -35.582031 -1.789062 -39.203125 -1.660156 -42.515625 -0.578125 C -45.835938 0.492188 -48.648438 2.359375 -50.953125 5.015625 C -53.253906 7.671875 -54.816406 10.957031 -55.640625 14.875 C -56.472656 18.84375 -56.363281 22.492188 -55.3125 25.828125 C -54.269531 29.171875 -52.445312 32 -49.84375 34.3125 C -47.238281 36.632812 -43.972656 38.207031 -40.046875 39.03125 C -36.179688 39.84375 -32.578125 39.710938 -29.234375 38.640625 C -25.898438 37.566406 -23.082031 35.710938 -20.78125 33.078125 C -18.488281 30.453125 -16.925781 27.15625 -16.09375 23.1875 Z M -16.09375 23.1875 "/></g></g></g><g fill="#ffffff" fill-opacity="1"><g transform="translate(273.321689, 648.213669)"><g><path d="M -6.90625 -3.125 L -28.359375 44.21875 L -44.375 36.953125 C -47.945312 35.335938 -50.753906 33.273438 -52.796875 30.765625 C -54.847656 28.265625 -56.054688 25.503906 -56.421875 22.484375 C -56.796875 19.460938 -56.242188 16.332031 -54.765625 13.09375 C -53.296875 9.84375 -51.300781 7.359375 -48.78125 5.640625 C -46.269531 3.929688 -43.398438 3.019531 -40.171875 2.90625 C -36.941406 2.800781 -33.539062 3.554688 -29.96875 5.171875 L -19.890625 9.734375 L -12.84375 -5.828125 Z M -22.40625 15.28125 L -32.359375 10.78125 C -40.109375 7.257812 -45.535156 8.921875 -48.640625 15.765625 C -51.753906 22.628906 -49.4375 27.820312 -41.6875 31.34375 L -31.734375 35.84375 Z M -22.40625 15.28125 "/></g></g></g><g fill="#ffffff" fill-opacity="1"><g transform="translate(221.623069, 623.615953)"><g><path d="M -6.1875 -4.375 L -36.234375 38.046875 L -61.984375 19.796875 L -58.46875 14.828125 L -38.046875 29.296875 L -28.5625 15.90625 L -47.46875 2.515625 L -43.984375 -2.390625 L -25.078125 11 L -15.03125 -3.1875 L -36.109375 -18.125 L -32.59375 -23.09375 Z M -6.1875 -4.375 "/></g></g></g><g fill="#ffffff" fill-opacity="1"><g transform="translate(177.508173, 591.898996)"><g><path d="M -5.15625 -5.546875 L -43.203125 29.859375 L -47.40625 25.359375 L -37.203125 -23.40625 L -66.984375 4.3125 L -71.328125 -0.359375 L -33.28125 -35.765625 L -29.140625 -31.3125 L -39.359375 17.46875 L -9.5625 -10.265625 Z M -5.15625 -5.546875 "/></g></g></g><g fill="#ffffff" fill-opacity="1"><g transform="translate(133.808089, 541.429817)"><g/></g></g><g fill="#ffffff" fill-opacity="1"><g transform="translate(117.364161, 517.364642)"><g><path d="M -3.1875 -6.875 L -50.359375 14.953125 L -58.8125 -3.3125 C -60.90625 -7.851562 -61.445312 -12.003906 -60.4375 -15.765625 C -59.4375 -19.535156 -57.023438 -22.304688 -53.203125 -24.078125 C -50.921875 -25.140625 -48.648438 -25.535156 -46.390625 -25.265625 C -44.140625 -25.003906 -42.070312 -24.132812 -40.1875 -22.65625 C -40.320312 -25.53125 -39.71875 -28.054688 -38.375 -30.234375 C -37.03125 -32.410156 -35.035156 -34.113281 -32.390625 -35.34375 C -28.296875 -37.226562 -24.429688 -37.332031 -20.796875 -35.65625 C -17.160156 -33.988281 -14.242188 -30.773438 -12.046875 -26.015625 Z M -11.453125 -10.25 L -17.5 -23.3125 C -18.914062 -26.363281 -20.695312 -28.390625 -22.84375 -29.390625 C -25 -30.390625 -27.335938 -30.304688 -29.859375 -29.140625 C -32.367188 -27.972656 -33.925781 -26.242188 -34.53125 -23.953125 C -35.132812 -21.660156 -34.726562 -18.984375 -33.3125 -15.921875 L -27.296875 -2.921875 Z M -32.6875 -0.4375 L -38.328125 -12.625 C -39.679688 -15.539062 -41.367188 -17.472656 -43.390625 -18.421875 C -45.410156 -19.367188 -47.585938 -19.300781 -49.921875 -18.21875 C -52.304688 -17.113281 -53.78125 -15.476562 -54.34375 -13.3125 C -54.914062 -11.144531 -54.535156 -8.617188 -53.203125 -5.734375 L -47.5625 6.453125 Z M -32.6875 -0.4375 "/></g></g></g><g fill="#ffffff" fill-opacity="1"><g transform="translate(93.461715, 462.852816)"><g><path d="M -1.796875 -7.359375 L -52.3125 4.9375 L -59.78125 -25.734375 L -53.859375 -27.171875 L -47.9375 -2.84375 L -31.984375 -6.734375 L -37.453125 -29.25 L -31.609375 -30.671875 L -26.140625 -8.15625 L -9.265625 -12.265625 L -15.375 -37.375 L -9.453125 -38.8125 Z M -1.796875 -7.359375 "/></g></g></g><g fill="#ffffff" fill-opacity="1"><g transform="translate(80.972994, 409.971976)"><g><path d="M -0.25 -7.578125 L -52.203125 -5.828125 L -52.8125 -23.78125 C -52.988281 -29.125 -52.039062 -33.820312 -49.96875 -37.875 C -47.90625 -41.9375 -44.972656 -45.144531 -41.171875 -47.5 C -37.367188 -49.851562 -32.894531 -51.117188 -27.75 -51.296875 C -22.644531 -51.460938 -18.097656 -50.5 -14.109375 -48.40625 C -10.128906 -46.320312 -6.96875 -43.320312 -4.625 -39.40625 C -2.289062 -35.5 -1.035156 -30.875 -0.859375 -25.53125 Z M -6.703125 -13.890625 L -7.09375 -25.328125 C -7.226562 -29.285156 -8.175781 -32.726562 -9.9375 -35.65625 C -11.695312 -38.59375 -14.085938 -40.851562 -17.109375 -42.4375 C -20.128906 -44.03125 -23.597656 -44.757812 -27.515625 -44.625 C -31.472656 -44.488281 -34.890625 -43.519531 -37.765625 -41.71875 C -40.648438 -39.914062 -42.875 -37.472656 -44.4375 -34.390625 C -46 -31.316406 -46.707031 -27.75 -46.5625 -23.6875 L -46.1875 -12.546875 Z M -6.703125 -13.890625 "/></g></g></g><g fill="#ffffff" fill-opacity="1"><g transform="translate(81.116551, 343.147524)"><g/></g></g><g fill="#ffffff" fill-opacity="1"><g transform="translate(83.8397, 314.491071)"><g><path d="M 10.203125 -29.484375 C 8.640625 -24.472656 6.15625 -20.375 2.75 -17.1875 C -0.65625 -14 -4.632812 -11.921875 -9.1875 -10.953125 C -13.738281 -9.984375 -18.523438 -10.28125 -23.546875 -11.84375 C -28.585938 -13.425781 -32.695312 -15.90625 -35.875 -19.28125 C -39.050781 -22.65625 -41.132812 -26.617188 -42.125 -31.171875 C -43.113281 -35.734375 -42.828125 -40.519531 -41.265625 -45.53125 C -39.679688 -50.59375 -37.1875 -54.707031 -33.78125 -57.875 C -30.382812 -61.039062 -26.414062 -63.125 -21.875 -64.125 C -17.34375 -65.125 -12.554688 -64.832031 -7.515625 -63.25 C -2.492188 -61.6875 1.609375 -59.203125 4.796875 -55.796875 C 7.992188 -52.390625 10.085938 -48.414062 11.078125 -43.875 C 12.078125 -39.34375 11.785156 -34.546875 10.203125 -29.484375 Z M -21.5625 -18.21875 C -17.726562 -17.03125 -14.085938 -16.789062 -10.640625 -17.5 C -7.203125 -18.21875 -4.203125 -19.773438 -1.640625 -22.171875 C 0.921875 -24.566406 2.789062 -27.648438 3.96875 -31.421875 C 5.164062 -35.253906 5.382812 -38.867188 4.625 -42.265625 C 3.875 -45.671875 2.285156 -48.644531 -0.140625 -51.1875 C -2.566406 -53.738281 -5.695312 -55.609375 -9.53125 -56.796875 C -13.394531 -58.003906 -17.03125 -58.242188 -20.4375 -57.515625 C -23.851562 -56.796875 -26.835938 -55.253906 -29.390625 -52.890625 C -31.953125 -50.523438 -33.832031 -47.425781 -35.03125 -43.59375 C -36.207031 -39.820312 -36.421875 -36.21875 -35.671875 -32.78125 C -34.921875 -29.351562 -33.347656 -26.367188 -30.953125 -23.828125 C -28.554688 -21.296875 -25.425781 -19.425781 -21.5625 -18.21875 Z M -21.5625 -18.21875 "/></g></g></g><g fill="#ffffff" fill-opacity="1"><g transform="translate(106.704139, 246.819167)"><g><path d="M 3.796875 -6.546875 L -41.15625 -32.640625 L -31.203125 -49.796875 C -29.378906 -52.921875 -27.210938 -55.296875 -24.703125 -56.921875 C -22.191406 -58.554688 -19.488281 -59.390625 -16.59375 -59.421875 C -13.707031 -59.460938 -10.769531 -58.613281 -7.78125 -56.875 C -4.132812 -54.769531 -1.671875 -52.085938 -0.390625 -48.828125 C 0.890625 -45.566406 0.984375 -42.046875 -0.109375 -38.265625 L 23.15625 -39.890625 L 19.203125 -33.078125 L -3.296875 -31.453125 L -9.046875 -21.5625 L 7.078125 -12.203125 Z M -14.4375 -24.6875 L -8.140625 -35.53125 C -6.222656 -38.832031 -5.519531 -41.835938 -6.03125 -44.546875 C -6.550781 -47.253906 -8.25 -49.441406 -11.125 -51.109375 C -13.988281 -52.773438 -16.734375 -53.164062 -19.359375 -52.28125 C -21.992188 -51.40625 -24.269531 -49.316406 -26.1875 -46.015625 L -32.484375 -35.171875 Z M -14.4375 -24.6875 "/></g></g></g><g fill="#ffffff" fill-opacity="1"><g transform="translate(138.005597, 195.33928)"><g><path d="M 5 -5.6875 L -34.03125 -40.03125 L -13.171875 -63.734375 L -8.59375 -59.703125 L -25.125 -40.90625 L -12.8125 -30.078125 L 2.484375 -47.46875 L 7 -43.484375 L -8.296875 -26.09375 L 4.75 -14.625 L 21.8125 -34.03125 L 26.390625 -30 Z M 5 -5.6875 "/></g></g></g><g fill="#ffffff" fill-opacity="1"><g transform="translate(173.90708, 154.727452)"><g><path d="M 25.3125 -17.5 C 22.238281 -15.226562 19.007812 -13.675781 15.625 -12.84375 C 12.238281 -12.007812 8.878906 -11.851562 5.546875 -12.375 C 2.210938 -12.894531 -0.957031 -14.085938 -3.96875 -15.953125 C -6.988281 -17.816406 -9.660156 -20.320312 -11.984375 -23.46875 C -14.304688 -26.613281 -15.921875 -29.878906 -16.828125 -33.265625 C -17.734375 -36.660156 -17.953125 -40.039062 -17.484375 -43.40625 C -17.023438 -46.769531 -15.910156 -49.9375 -14.140625 -52.90625 C -12.367188 -55.875 -9.953125 -58.492188 -6.890625 -60.765625 C -3.703125 -63.117188 -0.328125 -64.71875 3.234375 -65.5625 C 6.804688 -66.40625 10.335938 -66.519531 13.828125 -65.90625 C 17.328125 -65.300781 20.535156 -63.945312 23.453125 -61.84375 L 17.71875 -57.609375 C 14.40625 -59.347656 10.957031 -60.050781 7.375 -59.71875 C 3.800781 -59.382812 0.40625 -58.023438 -2.8125 -55.640625 C -5.914062 -53.347656 -8.15625 -50.613281 -9.53125 -47.4375 C -10.90625 -44.257812 -11.359375 -40.9375 -10.890625 -37.46875 C -10.429688 -34.007812 -9.007812 -30.664062 -6.625 -27.4375 C -4.238281 -24.207031 -1.445312 -21.863281 1.75 -20.40625 C 4.945312 -18.957031 8.265625 -18.425781 11.703125 -18.8125 C 15.148438 -19.195312 18.425781 -20.535156 21.53125 -22.828125 C 24.363281 -24.921875 26.460938 -27.335938 27.828125 -30.078125 C 29.191406 -32.816406 29.832031 -35.675781 29.75 -38.65625 C 29.664062 -41.644531 28.832031 -44.582031 27.25 -47.46875 L 10.234375 -34.890625 L 6.515625 -39.90625 L 29.203125 -56.6875 C 32.660156 -52.164062 34.804688 -47.488281 35.640625 -42.65625 C 36.484375 -37.820312 36.046875 -33.210938 34.328125 -28.828125 C 32.609375 -24.453125 29.601562 -20.675781 25.3125 -17.5 Z M 25.3125 -17.5 "/></g></g></g><g fill="#ffffff" fill-opacity="1"><g transform="translate(230.816209, 113.889707)"><g><path d="M 29.140625 -11.140625 C 24.296875 -9.117188 19.554688 -8.382812 14.921875 -8.9375 C 10.296875 -9.5 6.148438 -11.210938 2.484375 -14.078125 C -1.179688 -16.941406 -4.023438 -20.796875 -6.046875 -25.640625 C -8.085938 -30.523438 -8.835938 -35.269531 -8.296875 -39.875 C -7.753906 -44.476562 -6.054688 -48.625 -3.203125 -52.3125 C -0.359375 -56.007812 3.484375 -58.867188 8.328125 -60.890625 C 13.222656 -62.929688 17.976562 -63.664062 22.59375 -63.09375 C 27.207031 -62.53125 31.351562 -60.832031 35.03125 -58 C 38.71875 -55.164062 41.582031 -51.304688 43.625 -46.421875 C 45.644531 -41.578125 46.375 -36.835938 45.8125 -32.203125 C 45.257812 -27.566406 43.566406 -23.40625 40.734375 -19.71875 C 37.898438 -16.039062 34.035156 -13.179688 29.140625 -11.140625 Z M 0.109375 -28.21875 C 1.660156 -24.519531 3.8125 -21.582031 6.5625 -19.40625 C 9.320312 -17.238281 12.441406 -15.9375 15.921875 -15.5 C 19.410156 -15.070312 22.976562 -15.625 26.625 -17.15625 C 30.332031 -18.707031 33.242188 -20.863281 35.359375 -23.625 C 37.472656 -26.394531 38.722656 -29.523438 39.109375 -33.015625 C 39.503906 -36.515625 38.925781 -40.113281 37.375 -43.8125 C 35.8125 -47.550781 33.65625 -50.492188 30.90625 -52.640625 C 28.15625 -54.796875 25.050781 -56.09375 21.59375 -56.53125 C 18.144531 -56.96875 14.566406 -56.410156 10.859375 -54.859375 C 7.210938 -53.328125 4.316406 -51.175781 2.171875 -48.40625 C 0.0234375 -45.632812 -1.242188 -42.507812 -1.640625 -39.03125 C -2.035156 -35.5625 -1.453125 -31.957031 0.109375 -28.21875 Z M 0.109375 -28.21875 "/></g></g></g><g fill="#ffffff" fill-opacity="1"><g transform="translate(297.090724, 87.673308)"><g><path d="M 7.484375 -1.234375 L -0.96875 -52.53125 L 5.09375 -53.53125 L 40.09375 -18.03125 L 33.46875 -58.203125 L 39.75 -59.234375 L 48.203125 -7.9375 L 42.21875 -6.953125 L 7.234375 -42.4375 L 13.84375 -2.28125 Z M 7.484375 -1.234375 "/></g></g></g><g fill="#ffffff" fill-opacity="1"><g transform="translate(362.769444, 79.191349)"><g/></g></g><g fill="#ffffff" fill-opacity="1"><g transform="translate(392.069912, 78.183626)"><g><path d="M 30.546875 6.3125 C 25.378906 5.40625 20.992188 3.472656 17.390625 0.515625 C 13.785156 -2.441406 11.210938 -6.117188 9.671875 -10.515625 C 8.128906 -14.921875 7.8125 -19.707031 8.71875 -24.875 C 9.625 -30.09375 11.539062 -34.488281 14.46875 -38.0625 C 17.40625 -41.644531 21.070312 -44.222656 25.46875 -45.796875 C 29.863281 -47.378906 34.644531 -47.71875 39.8125 -46.8125 C 45.039062 -45.90625 49.441406 -43.96875 53.015625 -41 C 56.597656 -38.03125 59.175781 -34.363281 60.75 -30 C 62.332031 -25.632812 62.671875 -20.84375 61.765625 -15.625 C 60.859375 -10.457031 58.921875 -6.066406 55.953125 -2.453125 C 52.984375 1.160156 49.3125 3.75 44.9375 5.3125 C 40.570312 6.882812 35.773438 7.21875 30.546875 6.3125 Z M 15.296875 -23.71875 C 14.609375 -19.769531 14.835938 -16.132812 15.984375 -12.8125 C 17.140625 -9.5 19.066406 -6.722656 21.765625 -4.484375 C 24.472656 -2.253906 27.773438 -0.800781 31.671875 -0.125 C 35.628906 0.5625 39.242188 0.3125 42.515625 -0.875 C 45.785156 -2.0625 48.523438 -4.019531 50.734375 -6.75 C 52.953125 -9.488281 54.40625 -12.832031 55.09375 -16.78125 C 55.789062 -20.769531 55.554688 -24.410156 54.390625 -27.703125 C 53.234375 -31.003906 51.316406 -33.769531 48.640625 -36 C 45.960938 -38.226562 42.644531 -39.6875 38.6875 -40.375 C 34.789062 -41.050781 31.191406 -40.796875 27.890625 -39.609375 C 24.597656 -38.429688 21.847656 -36.484375 19.640625 -33.765625 C 17.441406 -31.054688 15.992188 -27.707031 15.296875 -23.71875 Z M 15.296875 -23.71875 "/></g></g></g><g fill="#ffffff" fill-opacity="1"><g transform="translate(462.193456, 92.257933)"><g><path d="M 7 2.890625 L 26.828125 -45.171875 L 43.09375 -38.46875 C 46.71875 -36.96875 49.59375 -35 51.71875 -32.5625 C 53.851562 -30.125 55.15625 -27.398438 55.625 -24.390625 C 56.09375 -21.390625 55.648438 -18.242188 54.296875 -14.953125 C 52.929688 -11.660156 51.019531 -9.113281 48.5625 -7.3125 C 46.113281 -5.519531 43.273438 -4.507812 40.046875 -4.28125 C 36.828125 -4.050781 33.40625 -4.6875 29.78125 -6.1875 L 19.5625 -10.40625 L 13.046875 5.375 Z M 21.890625 -16.046875 L 31.984375 -11.875 C 39.847656 -8.625 45.210938 -10.472656 48.078125 -17.421875 C 50.953125 -24.390625 48.457031 -29.5 40.59375 -32.75 L 30.5 -36.921875 Z M 21.890625 -16.046875 "/></g></g></g><g fill="#ffffff" fill-opacity="1"><g transform="translate(514.699391, 115.070979)"><g><path d="M 6.328125 4.171875 L 34.90625 -39.25 L 61.265625 -21.90625 L 57.921875 -16.8125 L 37.015625 -30.578125 L 27.984375 -16.875 L 47.34375 -4.125 L 44.046875 0.890625 L 24.6875 -11.859375 L 15.125 2.65625 L 36.71875 16.875 L 33.375 21.96875 Z M 6.328125 4.171875 "/></g></g></g><g fill="#ffffff" fill-opacity="1"><g transform="translate(559.877438, 145.258508)"><g><path d="M 5.34375 5.375 L 42.15625 -31.328125 L 46.515625 -26.96875 L 37.96875 22.125 L 66.796875 -6.609375 L 71.296875 -2.09375 L 34.484375 34.609375 L 30.203125 30.296875 L 38.734375 -18.796875 L 9.90625 9.9375 Z M 5.34375 5.375 "/></g></g></g><g fill="#ffffff" fill-opacity="1"><g transform="translate(605.270369, 194.2015)"><g/></g></g><g fill="#ffffff" fill-opacity="1"><g transform="translate(622.521525, 217.690245)"><g><path d="M 3.421875 6.765625 L 49.828125 -16.671875 L 58.890625 1.296875 C 61.148438 5.753906 61.835938 9.882812 60.953125 13.6875 C 60.066406 17.488281 57.75 20.335938 54 22.234375 C 51.75 23.367188 49.492188 23.84375 47.234375 23.65625 C 44.972656 23.46875 42.875 22.671875 40.9375 21.265625 C 41.164062 24.128906 40.648438 26.671875 39.390625 28.890625 C 38.128906 31.117188 36.195312 32.890625 33.59375 34.203125 C 29.5625 36.234375 25.695312 36.472656 22 34.921875 C 18.3125 33.378906 15.285156 30.269531 12.921875 25.59375 Z M 11.796875 9.84375 L 18.296875 22.703125 C 19.804688 25.703125 21.65625 27.664062 23.84375 28.59375 C 26.03125 29.519531 28.363281 29.351562 30.84375 28.09375 C 33.3125 26.84375 34.804688 25.0625 35.328125 22.75 C 35.847656 20.445312 35.347656 17.789062 33.828125 14.78125 L 27.375 1.984375 Z M 32.671875 -0.703125 L 38.734375 11.296875 C 40.179688 14.171875 41.929688 16.046875 43.984375 16.921875 C 46.046875 17.796875 48.222656 17.65625 50.515625 16.5 C 52.859375 15.3125 54.28125 13.625 54.78125 11.4375 C 55.28125 9.25 54.816406 6.738281 53.390625 3.90625 L 47.328125 -8.09375 Z M 32.671875 -0.703125 "/></g></g></g><g fill="#ffffff" fill-opacity="1"><g transform="translate(648.29265, 271.350043)"><g><path d="M 2.046875 7.296875 L 52.109375 -6.71875 L 60.625 23.671875 L 54.75 25.3125 L 48 1.21875 L 32.203125 5.640625 L 38.453125 27.953125 L 32.65625 29.578125 L 26.40625 7.265625 L 9.6875 11.953125 L 16.65625 36.828125 L 10.78125 38.46875 Z M 2.046875 7.296875 "/></g></g></g><g fill="#ffffff" fill-opacity="1"><g transform="translate(662.582187, 323.77102)"><g><path d="M 0.515625 7.5625 L 52.375 4.03125 L 53.59375 21.953125 C 53.957031 27.285156 53.175781 32.015625 51.25 36.140625 C 49.320312 40.273438 46.492188 43.582031 42.765625 46.0625 C 39.046875 48.539062 34.617188 49.957031 29.484375 50.3125 C 24.390625 50.65625 19.816406 49.847656 15.765625 47.890625 C 11.710938 45.941406 8.453125 43.050781 5.984375 39.21875 C 3.515625 35.394531 2.097656 30.816406 1.734375 25.484375 Z M 7.171875 13.65625 L 7.953125 25.0625 C 8.222656 29.007812 9.285156 32.421875 11.140625 35.296875 C 13.003906 38.171875 15.472656 40.347656 18.546875 41.828125 C 21.628906 43.316406 25.125 43.925781 29.03125 43.65625 C 32.976562 43.382812 36.363281 42.296875 39.1875 40.390625 C 42.007812 38.492188 44.144531 35.976562 45.59375 32.84375 C 47.039062 29.71875 47.628906 26.128906 47.359375 22.078125 L 46.59375 10.96875 Z M 7.171875 13.65625 "/></g></g></g><g fill="#ffffff" fill-opacity="1"><g transform="translate(664.723756, 390.562951)"><g/></g></g><g fill="#ffffff" fill-opacity="1"><g transform="translate(662.987045, 419.296204)"><g><path d="M -9.203125 29.828125 C -7.804688 24.765625 -5.460938 20.582031 -2.171875 17.28125 C 1.117188 13.976562 5.023438 11.765625 9.546875 10.640625 C 14.078125 9.515625 18.875 9.648438 23.9375 11.046875 C 29.03125 12.441406 33.222656 14.773438 36.515625 18.046875 C 39.804688 21.316406 42.023438 25.210938 43.171875 29.734375 C 44.316406 34.253906 44.191406 39.046875 42.796875 44.109375 C 41.390625 49.222656 39.039062 53.421875 35.75 56.703125 C 32.46875 59.984375 28.570312 62.195312 24.0625 63.34375 C 19.5625 64.488281 14.765625 64.363281 9.671875 62.96875 C 4.609375 61.570312 0.421875 59.226562 -2.890625 55.9375 C -6.203125 52.644531 -8.429688 48.75 -9.578125 44.25 C -10.734375 39.75 -10.609375 34.941406 -9.203125 29.828125 Z M 22.171875 17.484375 C 18.296875 16.421875 14.648438 16.304688 11.234375 17.140625 C 7.816406 17.972656 4.867188 19.625 2.390625 22.09375 C -0.0859375 24.570312 -1.851562 27.722656 -2.90625 31.546875 C -3.96875 35.410156 -4.0625 39.03125 -3.1875 42.40625 C -2.3125 45.78125 -0.617188 48.695312 1.890625 51.15625 C 4.398438 53.625 7.59375 55.390625 11.46875 56.453125 C 15.375 57.523438 19.019531 57.640625 22.40625 56.796875 C 25.800781 55.953125 28.734375 54.300781 31.203125 51.84375 C 33.671875 49.394531 35.4375 46.238281 36.5 42.375 C 37.550781 38.550781 37.644531 34.941406 36.78125 31.546875 C 35.914062 28.148438 34.238281 25.222656 31.75 22.765625 C 29.269531 20.316406 26.078125 18.554688 22.171875 17.484375 Z M 22.171875 17.484375 "/></g></g></g><g fill="#ffffff" fill-opacity="1"><g transform="translate(642.461631, 487.709983)"><g><path d="M -3.578125 6.6875 L 42.25 31.234375 L 32.890625 48.703125 C 31.179688 51.890625 29.097656 54.335938 26.640625 56.046875 C 24.179688 57.753906 21.503906 58.679688 18.609375 58.828125 C 15.722656 58.972656 12.757812 58.226562 9.71875 56.59375 C 6 54.601562 3.441406 52 2.046875 48.78125 C 0.660156 45.5625 0.457031 42.046875 1.4375 38.234375 L -21.78125 40.65625 L -18.0625 33.71875 L 4.375 31.3125 L 9.78125 21.234375 L -6.65625 12.4375 Z M 15.265625 24.1875 L 9.34375 35.25 C 7.539062 38.613281 6.941406 41.632812 7.546875 44.3125 C 8.160156 47 9.9375 49.128906 12.875 50.703125 C 15.789062 52.265625 18.546875 52.5625 21.140625 51.59375 C 23.742188 50.625 25.945312 48.457031 27.75 45.09375 L 33.671875 34.03125 Z M 15.265625 24.1875 "/></g></g></g><g fill="#ffffff" fill-opacity="1"><g transform="translate(612.938634, 540.23153)"><g><path d="M -4.8125 5.859375 L 35.375 38.84375 L 15.359375 63.234375 L 10.640625 59.359375 L 26.515625 40.015625 L 13.828125 29.609375 L -0.875 47.515625 L -5.515625 43.703125 L 9.1875 25.796875 L -4.25 14.765625 L -20.640625 34.734375 L -25.34375 30.875 Z M -4.8125 5.859375 "/></g></g></g><g fill="#ffffff" fill-opacity="1"><g transform="translate(578.450702, 582.049106)"><g><path d="M -24.703125 18.34375 C -21.710938 15.976562 -18.539062 14.320312 -15.1875 13.375 C -11.832031 12.425781 -8.476562 12.148438 -5.125 12.546875 C -1.769531 12.953125 1.441406 14.035156 4.515625 15.796875 C 7.597656 17.566406 10.351562 19.984375 12.78125 23.046875 C 15.207031 26.109375 16.929688 29.316406 17.953125 32.671875 C 18.972656 36.023438 19.304688 39.390625 18.953125 42.765625 C 18.609375 46.148438 17.601562 49.359375 15.9375 52.390625 C 14.269531 55.429688 11.941406 58.132812 8.953125 60.5 C 5.859375 62.957031 2.546875 64.671875 -0.984375 65.640625 C -4.523438 66.609375 -8.050781 66.84375 -11.5625 66.34375 C -15.082031 65.851562 -18.335938 64.613281 -21.328125 62.625 L -15.734375 58.203125 C -12.359375 59.816406 -8.890625 60.394531 -5.328125 59.9375 C -1.765625 59.476562 1.582031 58.003906 4.71875 55.515625 C 7.738281 53.117188 9.882812 50.304688 11.15625 47.078125 C 12.425781 43.859375 12.765625 40.523438 12.171875 37.078125 C 11.585938 33.628906 10.046875 30.332031 7.546875 27.1875 C 5.054688 24.050781 2.1875 21.8125 -1.0625 20.46875 C -4.3125 19.125 -7.648438 18.703125 -11.078125 19.203125 C -14.503906 19.710938 -17.726562 21.164062 -20.75 23.5625 C -23.5 25.75 -25.507812 28.234375 -26.78125 31.015625 C -28.050781 33.796875 -28.59375 36.675781 -28.40625 39.65625 C -28.226562 42.632812 -27.289062 45.539062 -25.59375 48.375 L -9.015625 35.21875 L -5.140625 40.109375 L -27.25 57.65625 C -30.863281 53.257812 -33.171875 48.65625 -34.171875 43.84375 C -35.171875 39.039062 -34.882812 34.421875 -33.3125 29.984375 C -31.75 25.546875 -28.878906 21.664062 -24.703125 18.34375 Z M -24.703125 18.34375 "/></g></g></g><g fill="#ffffff" fill-opacity="1"><g transform="translate(522.968156, 624.814565)"><g><path d="M -28.75 12.140625 C -23.976562 9.941406 -19.265625 9.039062 -14.609375 9.4375 C -9.960938 9.832031 -5.757812 11.398438 -2 14.140625 C 1.757812 16.890625 4.734375 20.648438 6.921875 25.421875 C 9.128906 30.234375 10.039062 34.945312 9.65625 39.5625 C 9.269531 44.175781 7.710938 48.375 4.984375 52.15625 C 2.265625 55.945312 -1.476562 58.941406 -6.25 61.140625 C -11.070312 63.347656 -15.796875 64.242188 -20.421875 63.828125 C -25.054688 63.421875 -29.257812 61.863281 -33.03125 59.15625 C -36.8125 56.457031 -39.804688 52.703125 -42.015625 47.890625 C -44.203125 43.117188 -45.09375 38.40625 -44.6875 33.75 C -44.289062 29.09375 -42.738281 24.878906 -40.03125 21.109375 C -37.332031 17.335938 -33.570312 14.347656 -28.75 12.140625 Z M 0.859375 28.203125 C -0.804688 24.554688 -3.054688 21.691406 -5.890625 19.609375 C -8.734375 17.535156 -11.898438 16.347656 -15.390625 16.046875 C -18.878906 15.742188 -22.421875 16.421875 -26.015625 18.078125 C -29.660156 19.742188 -32.492188 21.992188 -34.515625 24.828125 C -36.546875 27.660156 -37.691406 30.828125 -37.953125 34.328125 C -38.222656 37.835938 -37.523438 41.414062 -35.859375 45.0625 C -34.171875 48.75 -31.910156 51.617188 -29.078125 53.671875 C -26.253906 55.722656 -23.109375 56.90625 -19.640625 57.21875 C -16.179688 57.539062 -12.628906 56.867188 -8.984375 55.203125 C -5.390625 53.546875 -2.566406 51.289062 -0.515625 48.4375 C 1.535156 45.59375 2.695312 42.429688 2.96875 38.953125 C 3.25 35.472656 2.546875 31.890625 0.859375 28.203125 Z M 0.859375 28.203125 "/></g></g></g><g fill="#ffffff" fill-opacity="1"><g transform="translate(457.637212, 653.284594)"><g><path d="M -7.4375 1.484375 L 2.765625 52.453125 L -3.265625 53.671875 L -39.4375 19.40625 L -31.453125 59.3125 L -37.703125 60.5625 L -47.90625 9.59375 L -41.953125 8.390625 L -5.78125 42.65625 L -13.765625 2.75 Z M -7.4375 1.484375 "/></g></g></g></g></g><g transform="matrix(1, 0, 0, 1, 210, 336)"><g clip-path="url(#b9f846889c)"><g clip-path="url(#339c848b8a)"><g transform="matrix(1, 0, 0, 1, 0, -0.000000000000056843)"><g clip-path="url(#2df87c0c49)"><g fill="#fbf8ef" fill-opacity="1"><g transform="translate(3.418882, 265.40345)"><g><path d="M 117.25 5.21875 C 96.988281 5.21875 78.675781 0.367188 62.3125 -9.328125 C 45.957031 -19.035156 32.929688 -32.425781 23.234375 -49.5 C 13.535156 -66.582031 8.6875 -86.269531 8.6875 -108.5625 C 8.6875 -130.851562 13.535156 -150.539062 23.234375 -167.625 C 32.929688 -184.707031 45.957031 -198.097656 62.3125 -207.796875 C 78.675781 -217.492188 96.988281 -222.34375 117.25 -222.34375 C 137.519531 -222.34375 155.832031 -217.492188 172.1875 -207.796875 C 188.539062 -198.097656 201.492188 -184.707031 211.046875 -167.625 C 220.609375 -150.539062 225.390625 -130.851562 225.390625 -108.5625 C 225.390625 -86.269531 220.609375 -66.582031 211.046875 -49.5 C 201.492188 -32.425781 188.539062 -19.035156 172.1875 -9.328125 C 155.832031 0.367188 137.519531 5.21875 117.25 5.21875 Z M 82.515625 -108.5625 C 82.515625 -90.90625 83.523438 -75.203125 85.546875 -61.453125 C 87.578125 -47.703125 91.125 -36.914062 96.1875 -29.09375 C 101.257812 -21.28125 108.28125 -17.375 117.25 -17.375 C 126.226562 -17.375 133.175781 -21.28125 138.09375 -29.09375 C 143.019531 -36.914062 146.421875 -47.703125 148.296875 -61.453125 C 150.179688 -75.203125 151.125 -90.90625 151.125 -108.5625 C 151.125 -126.226562 150.179688 -141.9375 148.296875 -155.6875 C 146.421875 -169.4375 143.019531 -180.21875 138.09375 -188.03125 C 133.175781 -195.851562 126.226562 -199.765625 117.25 -199.765625 C 108.28125 -199.765625 101.257812 -195.851562 96.1875 -188.03125 C 91.125 -180.21875 87.578125 -169.4375 85.546875 -155.6875 C 83.523438 -141.9375 82.515625 -126.226562 82.515625 -108.5625 Z M 82.515625 -108.5625 "/></g></g></g></g></g></g><g clip-path="url(#6187e14f4f)"><g transform="matrix(1, 0, 0, 1, 162, 74)"><g clip-path="url(#6e46749f2d)"><g fill="#e5c7b1" fill-opacity="1"><g transform="translate(2.413871, 264.943082)"><g><path d="M 53.84375 0 C 49.5 0 44.359375 0.429688 38.421875 1.296875 C 32.492188 2.171875 26.925781 2.609375 21.71875 2.609375 C 16.789062 2.609375 12.660156 1.882812 9.328125 0.4375 C 6.003906 -1.007812 4.34375 -3.90625 4.34375 -8.25 C 4.34375 -11.4375 5.066406 -13.828125 6.515625 -15.421875 C 7.960938 -17.015625 9.695312 -19.039062 11.71875 -21.5 C 13.75 -23.957031 15.488281 -27.789062 16.9375 -33 C 18.382812 -38.21875 19.109375 -45.890625 19.109375 -56.015625 L 19.109375 -161.109375 C 19.109375 -171.242188 18.382812 -178.914062 16.9375 -184.125 C 15.488281 -189.34375 13.75 -193.179688 11.71875 -195.640625 C 9.695312 -198.097656 7.960938 -200.125 6.515625 -201.71875 C 5.066406 -203.3125 4.34375 -205.695312 4.34375 -208.875 C 4.34375 -213.21875 6.003906 -216.113281 9.328125 -217.5625 C 12.660156 -219.007812 16.789062 -219.734375 21.71875 -219.734375 C 26.925781 -219.734375 32.492188 -219.296875 38.421875 -218.421875 C 44.359375 -217.554688 49.5 -217.125 53.84375 -217.125 C 62.820312 -217.125 70.492188 -217.34375 76.859375 -217.78125 C 83.234375 -218.21875 89.820312 -218.648438 96.625 -219.078125 C 103.425781 -219.515625 111.601562 -219.734375 121.15625 -219.734375 C 138.53125 -219.734375 152.929688 -215.535156 164.359375 -207.140625 C 175.796875 -198.742188 181.515625 -186.726562 181.515625 -171.09375 C 181.515625 -162.125 179.414062 -154.671875 175.21875 -148.734375 C 171.019531 -142.796875 165.878906 -138.160156 159.796875 -134.828125 C 153.722656 -131.503906 147.570312 -128.972656 141.34375 -127.234375 C 135.125 -125.503906 129.914062 -124.203125 125.71875 -123.328125 C 121.519531 -122.460938 119.421875 -121.453125 119.421875 -120.296875 C 119.421875 -119.421875 120.21875 -118.765625 121.8125 -118.328125 C 123.40625 -117.898438 128.546875 -118.265625 137.234375 -119.421875 C 150.546875 -121.453125 161.976562 -119.929688 171.53125 -114.859375 C 181.082031 -109.796875 188.460938 -102.628906 193.671875 -93.359375 C 198.890625 -84.097656 201.5 -73.96875 201.5 -62.96875 C 201.5 -40.09375 193.898438 -23.441406 178.703125 -13.015625 C 163.503906 -2.597656 142.148438 2.609375 114.640625 2.609375 C 105.960938 2.609375 95.757812 2.171875 84.03125 1.296875 C 72.300781 0.429688 62.238281 0 53.84375 0 Z M 89.03125 -95.96875 L 89.03125 -31.703125 C 89.03125 -28.222656 90.113281 -25.6875 92.28125 -24.09375 C 94.445312 -22.507812 96.976562 -21.71875 99.875 -21.71875 C 110.007812 -21.71875 117.394531 -24.972656 122.03125 -31.484375 C 126.664062 -37.992188 128.984375 -49.066406 128.984375 -64.703125 C 128.984375 -75.992188 126.664062 -85.691406 122.03125 -93.796875 C 117.394531 -101.898438 110.007812 -105.953125 99.875 -105.953125 C 96.976562 -105.953125 94.445312 -105.15625 92.28125 -103.5625 C 90.113281 -101.976562 89.03125 -99.445312 89.03125 -95.96875 Z M 89.03125 -141.140625 C 89.03125 -137.367188 90.113281 -134.832031 92.28125 -133.53125 C 94.445312 -132.226562 96.976562 -131.578125 99.875 -131.578125 C 104.21875 -131.578125 108.125 -134.398438 111.59375 -140.046875 C 115.070312 -145.691406 116.8125 -153.289062 116.8125 -162.84375 C 116.8125 -174.425781 115.070312 -182.460938 111.59375 -186.953125 C 108.125 -191.441406 104.21875 -193.6875 99.875 -193.6875 C 92.644531 -193.6875 89.03125 -190.351562 89.03125 -183.6875 Z M 89.03125 -141.140625 "/></g></g></g></g></g></g></g></g></svg>