<svg xmlns="http://www.w3.org/2000/svg" xmlns:xlink="http://www.w3.org/1999/xlink" width="840" zoomAndPan="magnify" viewBox="0 0 630 225" height="300" preserveAspectRatio="xMidYMid meet" version="1.0"><defs><g/><clipPath id="38bb25b009"><path d="M 279 19 L 319.761719 19 L 319.761719 69 L 279 69 Z M 279 19 " clip-rule="nonzero"/></clipPath><clipPath id="e912fd9e13"><rect x="0" width="320" y="0" height="141"/></clipPath></defs><rect x="-63" width="756" fill="#ffffff" y="-22.5" height="270" fill-opacity="1"/><rect x="-63" width="756" fill="#173a2b" y="-22.5" height="270" fill-opacity="1"/><g transform="matrix(1, 0, 0, 1, 154, 43)"><g clip-path="url(#e912fd9e13)"><g fill="#fbe8d8" fill-opacity="1"><g transform="translate(1.566214, 57.275439)"><g><path d="M 0.84375 -45.0625 C 0.84375 -46 1.203125 -46.617188 1.921875 -46.921875 C 2.640625 -47.234375 3.53125 -47.390625 4.59375 -47.390625 C 5.71875 -47.390625 6.914062 -47.296875 8.1875 -47.109375 C 9.46875 -46.921875 10.578125 -46.828125 11.515625 -46.828125 C 12.453125 -46.828125 13.5625 -46.921875 14.84375 -47.109375 C 16.125 -47.296875 17.359375 -47.390625 18.546875 -47.390625 C 19.609375 -47.390625 20.5 -47.234375 21.21875 -46.921875 C 21.9375 -46.617188 22.296875 -46 22.296875 -45.0625 C 22.296875 -44.375 22.140625 -43.859375 21.828125 -43.515625 C 21.515625 -43.171875 21.140625 -42.734375 20.703125 -42.203125 C 20.265625 -41.671875 19.890625 -40.84375 19.578125 -39.71875 C 19.265625 -38.59375 19.109375 -36.9375 19.109375 -34.75 L 19.109375 -6.5625 C 19.109375 -5.75 19.359375 -5.203125 19.859375 -4.921875 C 20.359375 -4.640625 20.921875 -4.5 21.546875 -4.5 C 22.171875 -4.5 22.703125 -4.5 23.140625 -4.5 C 24.515625 -4.5 25.773438 -5 26.921875 -6 C 28.078125 -7 29.140625 -8.226562 30.109375 -9.6875 C 31.078125 -11.15625 31.984375 -12.625 32.828125 -14.09375 C 33.671875 -15.5625 34.515625 -16.796875 35.359375 -17.796875 C 36.203125 -18.796875 37.0625 -19.296875 37.9375 -19.296875 C 39.4375 -19.296875 40.109375 -18.46875 39.953125 -16.8125 C 39.796875 -15.15625 39.125 -12.207031 37.9375 -7.96875 C 37.5 -6.28125 37.25 -4.796875 37.1875 -3.515625 C 37.125 -2.234375 36.90625 -1.234375 36.53125 -0.515625 C 36.15625 0.203125 35.28125 0.5625 33.90625 0.5625 C 29.226562 0.5625 25.0625 0.46875 21.40625 0.28125 C 17.75 0.09375 14.421875 0 11.421875 0 C 9.929688 0 8.53125 0.09375 7.21875 0.28125 C 5.90625 0.46875 4.75 0.5625 3.75 0.5625 C 2.875 0.5625 2.171875 0.40625 1.640625 0.09375 C 1.109375 -0.21875 0.84375 -0.84375 0.84375 -1.78125 C 0.84375 -2.46875 1 -2.984375 1.3125 -3.328125 C 1.625 -3.671875 2 -4.109375 2.4375 -4.640625 C 2.875 -5.171875 3.25 -6 3.5625 -7.125 C 3.875 -8.25 4.03125 -9.898438 4.03125 -12.078125 L 4.03125 -34.75 C 4.03125 -36.9375 3.875 -38.59375 3.5625 -39.71875 C 3.25 -40.84375 2.875 -41.671875 2.4375 -42.203125 C 2 -42.734375 1.625 -43.171875 1.3125 -43.515625 C 1 -43.859375 0.84375 -44.375 0.84375 -45.0625 Z M 0.84375 -45.0625 "/></g></g></g><g fill="#fbe8d8" fill-opacity="1"><g transform="translate(38.002822, 57.275439)"><g><path d="M 11.890625 0 C 10.953125 0 9.84375 0.09375 8.5625 0.28125 C 7.289062 0.46875 6.09375 0.5625 4.96875 0.5625 C 3.90625 0.5625 3.015625 0.40625 2.296875 0.09375 C 1.578125 -0.21875 1.21875 -0.84375 1.21875 -1.78125 C 1.21875 -2.46875 1.375 -2.984375 1.6875 -3.328125 C 2 -3.671875 2.375 -4.109375 2.8125 -4.640625 C 3.25 -5.171875 3.625 -6 3.9375 -7.125 C 4.25 -8.25 4.40625 -9.898438 4.40625 -12.078125 C 4.40625 -14.953125 4.421875 -17.03125 4.453125 -18.3125 C 4.484375 -19.59375 4.5 -20.53125 4.5 -21.125 C 4.5 -21.71875 4.5 -22.390625 4.5 -23.140625 C 4.5 -24.828125 4.234375 -26 3.703125 -26.65625 C 3.171875 -27.3125 2.640625 -27.820312 2.109375 -28.1875 C 1.578125 -28.5625 1.3125 -29.15625 1.3125 -29.96875 C 1.3125 -30.90625 1.625 -31.546875 2.25 -31.890625 C 2.875 -32.234375 3.765625 -32.53125 4.921875 -32.78125 C 6.078125 -33.03125 7.46875 -33.4375 9.09375 -34 C 11.082031 -34.75 12.453125 -35.421875 13.203125 -36.015625 C 13.953125 -36.609375 14.515625 -37.09375 14.890625 -37.46875 C 15.265625 -37.84375 15.859375 -38.03125 16.671875 -38.03125 C 17.796875 -38.03125 18.546875 -37.53125 18.921875 -36.53125 C 19.296875 -35.53125 19.484375 -34.34375 19.484375 -32.96875 L 19.484375 -12.078125 C 19.484375 -9.898438 19.640625 -8.25 19.953125 -7.125 C 20.265625 -6 20.640625 -5.171875 21.078125 -4.640625 C 21.515625 -4.109375 21.890625 -3.671875 22.203125 -3.328125 C 22.515625 -2.984375 22.671875 -2.46875 22.671875 -1.78125 C 22.671875 -0.84375 22.3125 -0.21875 21.59375 0.09375 C 20.875 0.40625 19.984375 0.5625 18.921875 0.5625 C 17.734375 0.5625 16.5 0.46875 15.21875 0.28125 C 13.9375 0.09375 12.828125 0 11.890625 0 Z M 1.21875 -40.65625 C 0.59375 -42.53125 0.921875 -44.554688 2.203125 -46.734375 C 3.484375 -48.921875 5.4375 -50.703125 8.0625 -52.078125 C 10.238281 -53.203125 12.234375 -53.765625 14.046875 -53.765625 C 16.796875 -53.765625 18.578125 -52.640625 19.390625 -50.390625 C 20.078125 -48.453125 19.78125 -46.421875 18.5 -44.296875 C 17.21875 -42.179688 15.265625 -40.40625 12.640625 -38.96875 C 10.398438 -37.84375 8.375 -37.28125 6.5625 -37.28125 C 3.875 -37.28125 2.09375 -38.40625 1.21875 -40.65625 Z M 1.21875 -40.65625 "/></g></g></g><g fill="#fbe8d8" fill-opacity="1"><g transform="translate(57.672923, 57.275439)"><g><path d="M 1.875 -18.640625 C 1.875 -24.453125 3.710938 -29.132812 7.390625 -32.6875 C 11.078125 -36.25 16.234375 -38.03125 22.859375 -38.03125 C 28.597656 -38.03125 32.953125 -36.75 35.921875 -34.1875 C 38.890625 -31.625 40.375 -28.410156 40.375 -24.546875 C 40.375 -22.421875 39.625 -20.515625 38.125 -18.828125 C 36.625 -17.140625 34.5625 -16.296875 31.9375 -16.296875 C 29.8125 -16.296875 28.0625 -17.03125 26.6875 -18.5 C 25.320312 -19.96875 24.640625 -21.578125 24.640625 -23.328125 C 24.640625 -25.390625 24.78125 -27.148438 25.0625 -28.609375 C 25.34375 -30.078125 25.453125 -31.21875 25.390625 -32.03125 C 25.328125 -32.84375 24.796875 -33.25 23.796875 -33.25 C 22.234375 -33.25 20.90625 -31.953125 19.8125 -29.359375 C 18.71875 -26.773438 18.203125 -23.265625 18.265625 -18.828125 C 18.328125 -14.640625 19.0625 -11.28125 20.46875 -8.75 C 21.875 -6.226562 23.953125 -5 26.703125 -5.0625 C 28.566406 -5.0625 29.96875 -5.46875 30.90625 -6.28125 C 31.84375 -7.09375 32.578125 -8.023438 33.109375 -9.078125 C 33.640625 -10.140625 34.1875 -11.078125 34.75 -11.890625 C 35.3125 -12.703125 36.1875 -13.109375 37.375 -13.109375 C 38.4375 -13.109375 39.234375 -12.78125 39.765625 -12.125 C 40.296875 -11.46875 40.5625 -10.734375 40.5625 -9.921875 C 40.5625 -7.804688 39.734375 -5.96875 38.078125 -4.40625 C 36.421875 -2.84375 34.21875 -1.625 31.46875 -0.75 C 28.726562 0.125 25.765625 0.5625 22.578125 0.5625 C 19.265625 0.5625 16.015625 -0.078125 12.828125 -1.359375 C 9.648438 -2.640625 7.03125 -4.695312 4.96875 -7.53125 C 2.90625 -10.375 1.875 -14.078125 1.875 -18.640625 Z M 1.875 -18.640625 "/></g></g></g><g fill="#fbe8d8" fill-opacity="1"><g transform="translate(96.263879, 57.275439)"><g><path d="M 22.578125 0.5625 C 19.265625 0.5625 16.015625 -0.09375 12.828125 -1.40625 C 9.648438 -2.71875 7.03125 -4.773438 4.96875 -7.578125 C 2.90625 -10.390625 1.875 -14.078125 1.875 -18.640625 C 1.875 -22.515625 2.71875 -25.898438 4.40625 -28.796875 C 6.09375 -31.703125 8.429688 -33.96875 11.421875 -35.59375 C 14.421875 -37.21875 17.890625 -38.03125 21.828125 -38.03125 C 25.703125 -38.03125 28.851562 -37.5625 31.28125 -36.625 C 33.71875 -35.6875 35.609375 -34.484375 36.953125 -33.015625 C 38.296875 -31.546875 39.21875 -30.046875 39.71875 -28.515625 C 40.21875 -26.992188 40.46875 -25.671875 40.46875 -24.546875 C 40.46875 -21.421875 39.5 -18.875 37.5625 -16.90625 C 35.625 -14.9375 33.15625 -13.5 30.15625 -12.59375 C 27.164062 -11.6875 24.109375 -11.234375 20.984375 -11.234375 C 20.109375 -11.234375 19.46875 -10.921875 19.0625 -10.296875 C 18.65625 -9.671875 18.53125 -8.953125 18.6875 -8.140625 C 18.84375 -7.335938 19.34375 -6.625 20.1875 -6 C 21.03125 -5.375 22.234375 -5.0625 23.796875 -5.0625 C 26.046875 -5.0625 27.820312 -5.46875 29.125 -6.28125 C 30.4375 -7.09375 31.484375 -8.023438 32.265625 -9.078125 C 33.046875 -10.140625 33.796875 -11.078125 34.515625 -11.890625 C 35.234375 -12.703125 36.1875 -13.109375 37.375 -13.109375 C 38.4375 -13.109375 39.234375 -12.78125 39.765625 -12.125 C 40.296875 -11.46875 40.5625 -10.734375 40.5625 -9.921875 C 40.5625 -7.804688 39.734375 -5.96875 38.078125 -4.40625 C 36.421875 -2.84375 34.21875 -1.625 31.46875 -0.75 C 28.726562 0.125 25.765625 0.5625 22.578125 0.5625 Z M 21.828125 -33.25 C 20.515625 -33.25 19.46875 -32.46875 18.6875 -30.90625 C 17.90625 -29.34375 17.515625 -27.253906 17.515625 -24.640625 C 17.515625 -22.015625 17.90625 -19.921875 18.6875 -18.359375 C 19.46875 -16.796875 20.515625 -16.015625 21.828125 -16.015625 C 23.140625 -16.015625 24.1875 -16.796875 24.96875 -18.359375 C 25.75 -19.921875 26.140625 -22.015625 26.140625 -24.640625 C 26.140625 -27.253906 25.75 -29.34375 24.96875 -30.90625 C 24.1875 -32.46875 23.140625 -33.25 21.828125 -33.25 Z M 21.828125 -33.25 "/></g></g></g><g fill="#fbe8d8" fill-opacity="1"><g transform="translate(134.854836, 57.275439)"><g><path d="M 0.9375 -1.78125 C 0.9375 -2.46875 1.09375 -2.984375 1.40625 -3.328125 C 1.71875 -3.671875 2.09375 -4.109375 2.53125 -4.640625 C 2.96875 -5.171875 3.34375 -6 3.65625 -7.125 C 3.96875 -8.25 4.125 -9.898438 4.125 -12.078125 C 4.125 -14.953125 4.140625 -17.03125 4.171875 -18.3125 C 4.203125 -19.59375 4.21875 -20.53125 4.21875 -21.125 C 4.21875 -21.71875 4.21875 -22.390625 4.21875 -23.140625 C 4.21875 -24.828125 3.953125 -26 3.421875 -26.65625 C 2.890625 -27.3125 2.359375 -27.820312 1.828125 -28.1875 C 1.296875 -28.5625 1.03125 -29.15625 1.03125 -29.96875 C 1.03125 -30.90625 1.34375 -31.546875 1.96875 -31.890625 C 2.59375 -32.234375 3.484375 -32.53125 4.640625 -32.78125 C 5.796875 -33.03125 7.1875 -33.4375 8.8125 -34 C 10.800781 -34.75 12.171875 -35.421875 12.921875 -36.015625 C 13.671875 -36.609375 14.234375 -37.09375 14.609375 -37.46875 C 14.984375 -37.84375 15.578125 -38.03125 16.390625 -38.03125 C 17.515625 -38.03125 18.265625 -37.53125 18.640625 -36.53125 C 19.015625 -35.53125 19.203125 -34.34375 19.203125 -32.96875 L 19.203125 -32.21875 C 19.203125 -31.34375 19.359375 -30.90625 19.671875 -30.90625 C 19.984375 -30.90625 20.484375 -31.265625 21.171875 -31.984375 C 21.859375 -32.703125 22.75 -33.53125 23.84375 -34.46875 C 24.9375 -35.40625 26.242188 -36.234375 27.765625 -36.953125 C 29.296875 -37.671875 31.03125 -38.03125 32.96875 -38.03125 C 35.90625 -38.03125 38.125 -37.40625 39.625 -36.15625 C 41.125 -34.90625 42.140625 -33.34375 42.671875 -31.46875 C 43.203125 -29.59375 43.46875 -27.691406 43.46875 -25.765625 L 43.46875 -12.078125 C 43.46875 -9.898438 43.625 -8.25 43.9375 -7.125 C 44.25 -6 44.625 -5.171875 45.0625 -4.640625 C 45.5 -4.109375 45.875 -3.671875 46.1875 -3.328125 C 46.5 -2.984375 46.65625 -2.46875 46.65625 -1.78125 C 46.65625 -0.84375 46.390625 -0.21875 45.859375 0.09375 C 45.328125 0.40625 44.625 0.5625 43.75 0.5625 C 42.875 0.5625 41.859375 0.46875 40.703125 0.28125 C 39.546875 0.09375 38.4375 0 37.375 0 C 36.375 0 35.515625 0.046875 34.796875 0.140625 C 34.078125 0.234375 33.3125 0.34375 32.5 0.46875 C 31.25 0.59375 30.234375 0.3125 29.453125 -0.375 C 28.671875 -1.0625 28.28125 -2.03125 28.28125 -3.28125 L 28.28125 -18.640625 C 28.28125 -21.640625 27.96875 -23.921875 27.34375 -25.484375 C 26.726562 -27.046875 25.609375 -27.828125 23.984375 -27.828125 C 22.546875 -27.828125 21.390625 -27.09375 20.515625 -25.625 C 19.640625 -24.15625 19.203125 -21.140625 19.203125 -16.578125 L 19.203125 -12.078125 C 19.203125 -9.898438 19.359375 -8.25 19.671875 -7.125 C 19.984375 -6 20.359375 -5.171875 20.796875 -4.640625 C 21.234375 -4.109375 21.609375 -3.671875 21.921875 -3.328125 C 22.234375 -2.984375 22.390625 -2.46875 22.390625 -1.78125 C 22.390625 -0.84375 22.03125 -0.21875 21.3125 0.09375 C 20.59375 0.40625 19.703125 0.5625 18.640625 0.5625 C 17.453125 0.5625 16.21875 0.46875 14.9375 0.28125 C 13.65625 0.09375 12.546875 0 11.609375 0 C 10.671875 0 9.5625 0.09375 8.28125 0.28125 C 7.007812 0.46875 5.8125 0.5625 4.6875 0.5625 C 3.625 0.5625 2.734375 0.40625 2.015625 0.09375 C 1.296875 -0.21875 0.9375 -0.84375 0.9375 -1.78125 Z M 0.9375 -1.78125 "/></g></g></g><g fill="#fbe8d8" fill-opacity="1"><g transform="translate(178.597514, 57.275439)"><g><path d="M 1.875 -9 C 1.875 -10.238281 2.234375 -11.234375 2.953125 -11.984375 C 3.671875 -12.734375 4.71875 -13.109375 6.09375 -13.109375 C 7.28125 -13.109375 8.242188 -12.671875 8.984375 -11.796875 C 9.734375 -10.921875 10.515625 -9.921875 11.328125 -8.796875 C 12.140625 -7.679688 13.171875 -6.6875 14.421875 -5.8125 C 15.671875 -4.9375 17.359375 -4.5 19.484375 -4.5 C 21.109375 -4.5 22.390625 -4.671875 23.328125 -5.015625 C 24.265625 -5.359375 24.734375 -6.15625 24.734375 -7.40625 C 24.734375 -8.40625 24.1875 -9.210938 23.09375 -9.828125 C 22 -10.453125 20.609375 -11.03125 18.921875 -11.5625 C 17.234375 -12.09375 15.4375 -12.6875 13.53125 -13.34375 C 11.625 -14 9.828125 -14.828125 8.140625 -15.828125 C 6.460938 -16.828125 5.078125 -18.125 3.984375 -19.71875 C 2.890625 -21.3125 2.34375 -23.328125 2.34375 -25.765625 C 2.34375 -28.503906 2.96875 -30.703125 4.21875 -32.359375 C 5.46875 -34.015625 7.023438 -35.25 8.890625 -36.0625 C 10.765625 -36.875 12.625 -37.40625 14.46875 -37.65625 C 16.3125 -37.90625 17.828125 -38.03125 19.015625 -38.03125 C 22.203125 -38.03125 25.164062 -37.65625 27.90625 -36.90625 C 30.65625 -36.15625 32.875 -35.046875 34.5625 -33.578125 C 36.25 -32.109375 37.09375 -30.3125 37.09375 -28.1875 C 37.09375 -27.132812 36.703125 -26.234375 35.921875 -25.484375 C 35.140625 -24.734375 34.21875 -24.359375 33.15625 -24.359375 C 31.53125 -24.359375 30.21875 -24.8125 29.21875 -25.71875 C 28.226562 -26.625 27.328125 -27.648438 26.515625 -28.796875 C 25.703125 -29.953125 24.765625 -30.984375 23.703125 -31.890625 C 22.640625 -32.796875 21.265625 -33.25 19.578125 -33.25 C 17.890625 -33.25 16.78125 -32.859375 16.25 -32.078125 C 15.71875 -31.296875 15.453125 -30.5 15.453125 -29.6875 C 15.453125 -28.507812 15.984375 -27.609375 17.046875 -26.984375 C 18.109375 -26.359375 19.484375 -25.84375 21.171875 -25.4375 C 22.859375 -25.03125 24.632812 -24.578125 26.5 -24.078125 C 28.375 -23.578125 30.15625 -22.90625 31.84375 -22.0625 C 33.53125 -21.21875 34.90625 -20.03125 35.96875 -18.5 C 37.03125 -16.96875 37.5625 -14.953125 37.5625 -12.453125 C 37.5625 -9.273438 36.640625 -6.734375 34.796875 -4.828125 C 32.953125 -2.921875 30.59375 -1.546875 27.71875 -0.703125 C 24.851562 0.140625 21.828125 0.5625 18.640625 0.5625 C 17.328125 0.5625 15.734375 0.40625 13.859375 0.09375 C 11.984375 -0.21875 10.125 -0.734375 8.28125 -1.453125 C 6.445312 -2.171875 4.921875 -3.140625 3.703125 -4.359375 C 2.484375 -5.578125 1.875 -7.125 1.875 -9 Z M 1.875 -9 "/></g></g></g><g fill="#fbe8d8" fill-opacity="1"><g transform="translate(214.191113, 57.275439)"><g><path d="M 11.890625 0 C 10.953125 0 9.84375 0.09375 8.5625 0.28125 C 7.289062 0.46875 6.09375 0.5625 4.96875 0.5625 C 3.90625 0.5625 3.015625 0.40625 2.296875 0.09375 C 1.578125 -0.21875 1.21875 -0.84375 1.21875 -1.78125 C 1.21875 -2.46875 1.375 -2.984375 1.6875 -3.328125 C 2 -3.671875 2.375 -4.109375 2.8125 -4.640625 C 3.25 -5.171875 3.625 -6 3.9375 -7.125 C 4.25 -8.25 4.40625 -9.898438 4.40625 -12.078125 C 4.40625 -14.953125 4.421875 -17.03125 4.453125 -18.3125 C 4.484375 -19.59375 4.5 -20.53125 4.5 -21.125 C 4.5 -21.71875 4.5 -22.390625 4.5 -23.140625 C 4.5 -24.828125 4.234375 -26 3.703125 -26.65625 C 3.171875 -27.3125 2.640625 -27.820312 2.109375 -28.1875 C 1.578125 -28.5625 1.3125 -29.15625 1.3125 -29.96875 C 1.3125 -30.90625 1.625 -31.546875 2.25 -31.890625 C 2.875 -32.234375 3.765625 -32.53125 4.921875 -32.78125 C 6.078125 -33.03125 7.46875 -33.4375 9.09375 -34 C 11.082031 -34.75 12.453125 -35.421875 13.203125 -36.015625 C 13.953125 -36.609375 14.515625 -37.09375 14.890625 -37.46875 C 15.265625 -37.84375 15.859375 -38.03125 16.671875 -38.03125 C 17.796875 -38.03125 18.546875 -37.53125 18.921875 -36.53125 C 19.296875 -35.53125 19.484375 -34.34375 19.484375 -32.96875 L 19.484375 -12.078125 C 19.484375 -9.898438 19.640625 -8.25 19.953125 -7.125 C 20.265625 -6 20.640625 -5.171875 21.078125 -4.640625 C 21.515625 -4.109375 21.890625 -3.671875 22.203125 -3.328125 C 22.515625 -2.984375 22.671875 -2.46875 22.671875 -1.78125 C 22.671875 -0.84375 22.3125 -0.21875 21.59375 0.09375 C 20.875 0.40625 19.984375 0.5625 18.921875 0.5625 C 17.734375 0.5625 16.5 0.46875 15.21875 0.28125 C 13.9375 0.09375 12.828125 0 11.890625 0 Z M 1.21875 -40.65625 C 0.59375 -42.53125 0.921875 -44.554688 2.203125 -46.734375 C 3.484375 -48.921875 5.4375 -50.703125 8.0625 -52.078125 C 10.238281 -53.203125 12.234375 -53.765625 14.046875 -53.765625 C 16.796875 -53.765625 18.578125 -52.640625 19.390625 -50.390625 C 20.078125 -48.453125 19.78125 -46.421875 18.5 -44.296875 C 17.21875 -42.179688 15.265625 -40.40625 12.640625 -38.96875 C 10.398438 -37.84375 8.375 -37.28125 6.5625 -37.28125 C 3.875 -37.28125 2.09375 -38.40625 1.21875 -40.65625 Z M 1.21875 -40.65625 "/></g></g></g><g fill="#fbe8d8" fill-opacity="1"><g transform="translate(233.861214, 57.275439)"><g><path d="M 0.9375 -1.78125 C 0.9375 -2.46875 1.09375 -2.984375 1.40625 -3.328125 C 1.71875 -3.671875 2.09375 -4.109375 2.53125 -4.640625 C 2.96875 -5.171875 3.34375 -6 3.65625 -7.125 C 3.96875 -8.25 4.125 -9.898438 4.125 -12.078125 C 4.125 -14.953125 4.140625 -17.03125 4.171875 -18.3125 C 4.203125 -19.59375 4.21875 -20.53125 4.21875 -21.125 C 4.21875 -21.71875 4.21875 -22.390625 4.21875 -23.140625 C 4.21875 -24.828125 3.953125 -26 3.421875 -26.65625 C 2.890625 -27.3125 2.359375 -27.820312 1.828125 -28.1875 C 1.296875 -28.5625 1.03125 -29.15625 1.03125 -29.96875 C 1.03125 -30.90625 1.34375 -31.546875 1.96875 -31.890625 C 2.59375 -32.234375 3.484375 -32.53125 4.640625 -32.78125 C 5.796875 -33.03125 7.1875 -33.4375 8.8125 -34 C 10.800781 -34.75 12.171875 -35.421875 12.921875 -36.015625 C 13.671875 -36.609375 14.234375 -37.09375 14.609375 -37.46875 C 14.984375 -37.84375 15.578125 -38.03125 16.390625 -38.03125 C 17.515625 -38.03125 18.265625 -37.53125 18.640625 -36.53125 C 19.015625 -35.53125 19.203125 -34.34375 19.203125 -32.96875 L 19.203125 -32.21875 C 19.203125 -31.34375 19.359375 -30.90625 19.671875 -30.90625 C 19.984375 -30.90625 20.484375 -31.265625 21.171875 -31.984375 C 21.859375 -32.703125 22.75 -33.53125 23.84375 -34.46875 C 24.9375 -35.40625 26.242188 -36.234375 27.765625 -36.953125 C 29.296875 -37.671875 31.03125 -38.03125 32.96875 -38.03125 C 35.90625 -38.03125 38.125 -37.40625 39.625 -36.15625 C 41.125 -34.90625 42.140625 -33.34375 42.671875 -31.46875 C 43.203125 -29.59375 43.46875 -27.691406 43.46875 -25.765625 L 43.46875 -12.078125 C 43.46875 -9.898438 43.625 -8.25 43.9375 -7.125 C 44.25 -6 44.625 -5.171875 45.0625 -4.640625 C 45.5 -4.109375 45.875 -3.671875 46.1875 -3.328125 C 46.5 -2.984375 46.65625 -2.46875 46.65625 -1.78125 C 46.65625 -0.84375 46.390625 -0.21875 45.859375 0.09375 C 45.328125 0.40625 44.625 0.5625 43.75 0.5625 C 42.875 0.5625 41.859375 0.46875 40.703125 0.28125 C 39.546875 0.09375 38.4375 0 37.375 0 C 36.375 0 35.515625 0.046875 34.796875 0.140625 C 34.078125 0.234375 33.3125 0.34375 32.5 0.46875 C 31.25 0.59375 30.234375 0.3125 29.453125 -0.375 C 28.671875 -1.0625 28.28125 -2.03125 28.28125 -3.28125 L 28.28125 -18.640625 C 28.28125 -21.640625 27.96875 -23.921875 27.34375 -25.484375 C 26.726562 -27.046875 25.609375 -27.828125 23.984375 -27.828125 C 22.546875 -27.828125 21.390625 -27.09375 20.515625 -25.625 C 19.640625 -24.15625 19.203125 -21.140625 19.203125 -16.578125 L 19.203125 -12.078125 C 19.203125 -9.898438 19.359375 -8.25 19.671875 -7.125 C 19.984375 -6 20.359375 -5.171875 20.796875 -4.640625 C 21.234375 -4.109375 21.609375 -3.671875 21.921875 -3.328125 C 22.234375 -2.984375 22.390625 -2.46875 22.390625 -1.78125 C 22.390625 -0.84375 22.03125 -0.21875 21.3125 0.09375 C 20.59375 0.40625 19.703125 0.5625 18.640625 0.5625 C 17.453125 0.5625 16.21875 0.46875 14.9375 0.28125 C 13.65625 0.09375 12.546875 0 11.609375 0 C 10.671875 0 9.5625 0.09375 8.28125 0.28125 C 7.007812 0.46875 5.8125 0.5625 4.6875 0.5625 C 3.625 0.5625 2.734375 0.40625 2.015625 0.09375 C 1.296875 -0.21875 0.9375 -0.84375 0.9375 -1.78125 Z M 0.9375 -1.78125 "/></g></g></g><g clip-path="url(#38bb25b009)"><g fill="#fbe8d8" fill-opacity="1"><g transform="translate(277.603892, 57.275439)"><g><path d="M 20.515625 10.953125 C 17.328125 10.953125 14.28125 10.6875 11.375 10.15625 C 8.476562 9.625 6.09375 8.6875 4.21875 7.34375 C 2.34375 6.007812 1.40625 4.125 1.40625 1.6875 C 1.40625 0.5625 1.828125 -0.578125 2.671875 -1.734375 C 3.515625 -2.890625 4.96875 -3.46875 7.03125 -3.46875 C 8.707031 -3.46875 10 -2.984375 10.90625 -2.015625 C 11.8125 -1.046875 12.625 0.0625 13.34375 1.3125 C 14.0625 2.5625 14.953125 3.671875 16.015625 4.640625 C 17.078125 5.609375 18.578125 6.09375 20.515625 6.09375 C 22.828125 6.09375 24.375 5.734375 25.15625 5.015625 C 25.9375 4.296875 26.328125 3.4375 26.328125 2.4375 C 26.328125 1.5 25.859375 0.78125 24.921875 0.28125 C 23.984375 -0.21875 22.84375 -0.609375 21.5 -0.890625 C 20.15625 -1.171875 18.796875 -1.484375 17.421875 -1.828125 C 16.046875 -2.171875 14.890625 -2.640625 13.953125 -3.234375 C 13.015625 -3.828125 12.546875 -4.6875 12.546875 -5.8125 C 12.546875 -6.875 13.046875 -7.71875 14.046875 -8.34375 C 15.046875 -8.96875 15.859375 -9.28125 16.484375 -9.28125 L 15.453125 -9.453125 C 11.578125 -10.140625 8.328125 -11.6875 5.703125 -14.09375 C 3.085938 -16.5 1.78125 -19.546875 1.78125 -23.234375 C 1.78125 -27.472656 3.554688 -30.90625 7.109375 -33.53125 C 10.671875 -36.15625 15.359375 -37.46875 21.171875 -37.46875 C 22.984375 -37.46875 24.835938 -37.4375 26.734375 -37.375 C 28.640625 -37.3125 30.375 -37.34375 31.9375 -37.46875 C 33.4375 -37.59375 34.734375 -37.734375 35.828125 -37.890625 C 36.921875 -38.046875 37.8125 -38.125 38.5 -38.125 C 39.5625 -38.125 40.296875 -37.9375 40.703125 -37.5625 C 41.109375 -37.1875 41.3125 -36.46875 41.3125 -35.40625 C 41.3125 -34.40625 41.09375 -33.71875 40.65625 -33.34375 C 40.21875 -32.96875 39.5625 -32.78125 38.6875 -32.78125 C 38.0625 -32.78125 37.3125 -32.859375 36.4375 -33.015625 C 35.5625 -33.171875 34.53125 -33.375 33.34375 -33.625 C 35.78125 -32.9375 37.59375 -31.5625 38.78125 -29.5 C 39.96875 -27.445312 40.5625 -25.359375 40.5625 -23.234375 C 40.5625 -18.921875 39.078125 -15.453125 36.109375 -12.828125 C 33.140625 -10.210938 29.191406 -8.90625 24.265625 -8.90625 C 22.515625 -8.90625 21.265625 -8.703125 20.515625 -8.296875 C 19.765625 -7.890625 19.359375 -7.40625 19.296875 -6.84375 C 19.234375 -5.90625 20.015625 -5.46875 21.640625 -5.53125 C 23.078125 -5.59375 24.570312 -5.9375 26.125 -6.5625 C 27.6875 -7.1875 29.875 -7.5 32.6875 -7.5 C 35.5 -7.5 37.65625 -6.84375 39.15625 -5.53125 C 40.65625 -4.21875 41.40625 -2.375 41.40625 0 C 41.40625 3.125 39.78125 5.726562 36.53125 7.8125 C 33.28125 9.90625 27.941406 10.953125 20.515625 10.953125 Z M 16.390625 -23.046875 C 16.390625 -20.046875 16.828125 -17.625 17.703125 -15.78125 C 18.578125 -13.9375 19.734375 -13.015625 21.171875 -13.015625 C 22.609375 -13.015625 23.765625 -13.9375 24.640625 -15.78125 C 25.515625 -17.625 25.953125 -20.046875 25.953125 -23.046875 C 25.953125 -25.984375 25.515625 -28.367188 24.640625 -30.203125 C 23.765625 -32.046875 22.609375 -32.96875 21.171875 -32.96875 C 19.734375 -32.96875 18.578125 -32.046875 17.703125 -30.203125 C 16.828125 -28.367188 16.390625 -25.984375 16.390625 -23.046875 Z M 16.390625 -23.046875 "/></g></g></g></g><g fill="#fbe8d8" fill-opacity="1"><g transform="translate(93.12508, 123.338205)"><g><path d="M 11.890625 0 C 10.953125 0 9.84375 0.09375 8.5625 0.28125 C 7.289062 0.46875 6.09375 0.5625 4.96875 0.5625 C 3.90625 0.5625 3.015625 0.40625 2.296875 0.09375 C 1.578125 -0.21875 1.21875 -0.84375 1.21875 -1.78125 C 1.21875 -2.46875 1.375 -2.984375 1.6875 -3.328125 C 2 -3.671875 2.375 -4.109375 2.8125 -4.640625 C 3.25 -5.171875 3.625 -6 3.9375 -7.125 C 4.25 -8.25 4.40625 -9.898438 4.40625 -12.078125 C 4.40625 -14.953125 4.421875 -17.03125 4.453125 -18.3125 C 4.484375 -19.59375 4.5 -20.53125 4.5 -21.125 C 4.5 -21.71875 4.5 -22.390625 4.5 -23.140625 C 4.5 -24.828125 4.234375 -26 3.703125 -26.65625 C 3.171875 -27.3125 2.640625 -27.820312 2.109375 -28.1875 C 1.578125 -28.5625 1.3125 -29.15625 1.3125 -29.96875 C 1.3125 -30.90625 1.625 -31.546875 2.25 -31.890625 C 2.875 -32.234375 3.765625 -32.53125 4.921875 -32.78125 C 6.078125 -33.03125 7.46875 -33.4375 9.09375 -34 C 11.082031 -34.75 12.453125 -35.421875 13.203125 -36.015625 C 13.953125 -36.609375 14.515625 -37.09375 14.890625 -37.46875 C 15.265625 -37.84375 15.859375 -38.03125 16.671875 -38.03125 C 17.796875 -38.03125 18.546875 -37.53125 18.921875 -36.53125 C 19.296875 -35.53125 19.484375 -34.34375 19.484375 -32.96875 L 19.484375 -12.078125 C 19.484375 -9.898438 19.640625 -8.25 19.953125 -7.125 C 20.265625 -6 20.640625 -5.171875 21.078125 -4.640625 C 21.515625 -4.109375 21.890625 -3.671875 22.203125 -3.328125 C 22.515625 -2.984375 22.671875 -2.46875 22.671875 -1.78125 C 22.671875 -0.84375 22.3125 -0.21875 21.59375 0.09375 C 20.875 0.40625 19.984375 0.5625 18.921875 0.5625 C 17.734375 0.5625 16.5 0.46875 15.21875 0.28125 C 13.9375 0.09375 12.828125 0 11.890625 0 Z M 1.21875 -40.65625 C 0.59375 -42.53125 0.921875 -44.554688 2.203125 -46.734375 C 3.484375 -48.921875 5.4375 -50.703125 8.0625 -52.078125 C 10.238281 -53.203125 12.234375 -53.765625 14.046875 -53.765625 C 16.796875 -53.765625 18.578125 -52.640625 19.390625 -50.390625 C 20.078125 -48.453125 19.78125 -46.421875 18.5 -44.296875 C 17.21875 -42.179688 15.265625 -40.40625 12.640625 -38.96875 C 10.398438 -37.84375 8.375 -37.28125 6.5625 -37.28125 C 3.875 -37.28125 2.09375 -38.40625 1.21875 -40.65625 Z M 1.21875 -40.65625 "/></g></g></g><g fill="#fbe8d8" fill-opacity="1"><g transform="translate(112.795181, 123.338205)"><g><path d="M 0.9375 -1.78125 C 0.9375 -2.46875 1.09375 -2.984375 1.40625 -3.328125 C 1.71875 -3.671875 2.09375 -4.109375 2.53125 -4.640625 C 2.96875 -5.171875 3.34375 -6 3.65625 -7.125 C 3.96875 -8.25 4.125 -9.898438 4.125 -12.078125 C 4.125 -14.953125 4.140625 -17.03125 4.171875 -18.3125 C 4.203125 -19.59375 4.21875 -20.53125 4.21875 -21.125 C 4.21875 -21.71875 4.21875 -22.390625 4.21875 -23.140625 C 4.21875 -24.828125 3.953125 -26 3.421875 -26.65625 C 2.890625 -27.3125 2.359375 -27.820312 1.828125 -28.1875 C 1.296875 -28.5625 1.03125 -29.15625 1.03125 -29.96875 C 1.03125 -30.90625 1.34375 -31.546875 1.96875 -31.890625 C 2.59375 -32.234375 3.484375 -32.53125 4.640625 -32.78125 C 5.796875 -33.03125 7.1875 -33.4375 8.8125 -34 C 10.800781 -34.75 12.171875 -35.421875 12.921875 -36.015625 C 13.671875 -36.609375 14.234375 -37.09375 14.609375 -37.46875 C 14.984375 -37.84375 15.578125 -38.03125 16.390625 -38.03125 C 17.515625 -38.03125 18.265625 -37.53125 18.640625 -36.53125 C 19.015625 -35.53125 19.203125 -34.34375 19.203125 -32.96875 L 19.203125 -32.21875 C 19.203125 -31.34375 19.359375 -30.90625 19.671875 -30.90625 C 19.984375 -30.90625 20.484375 -31.265625 21.171875 -31.984375 C 21.859375 -32.703125 22.75 -33.53125 23.84375 -34.46875 C 24.9375 -35.40625 26.242188 -36.234375 27.765625 -36.953125 C 29.296875 -37.671875 31.03125 -38.03125 32.96875 -38.03125 C 35.90625 -38.03125 38.125 -37.40625 39.625 -36.15625 C 41.125 -34.90625 42.140625 -33.34375 42.671875 -31.46875 C 43.203125 -29.59375 43.46875 -27.691406 43.46875 -25.765625 L 43.46875 -12.078125 C 43.46875 -9.898438 43.625 -8.25 43.9375 -7.125 C 44.25 -6 44.625 -5.171875 45.0625 -4.640625 C 45.5 -4.109375 45.875 -3.671875 46.1875 -3.328125 C 46.5 -2.984375 46.65625 -2.46875 46.65625 -1.78125 C 46.65625 -0.84375 46.390625 -0.21875 45.859375 0.09375 C 45.328125 0.40625 44.625 0.5625 43.75 0.5625 C 42.875 0.5625 41.859375 0.46875 40.703125 0.28125 C 39.546875 0.09375 38.4375 0 37.375 0 C 36.375 0 35.515625 0.046875 34.796875 0.140625 C 34.078125 0.234375 33.3125 0.34375 32.5 0.46875 C 31.25 0.59375 30.234375 0.3125 29.453125 -0.375 C 28.671875 -1.0625 28.28125 -2.03125 28.28125 -3.28125 L 28.28125 -18.640625 C 28.28125 -21.640625 27.96875 -23.921875 27.34375 -25.484375 C 26.726562 -27.046875 25.609375 -27.828125 23.984375 -27.828125 C 22.546875 -27.828125 21.390625 -27.09375 20.515625 -25.625 C 19.640625 -24.15625 19.203125 -21.140625 19.203125 -16.578125 L 19.203125 -12.078125 C 19.203125 -9.898438 19.359375 -8.25 19.671875 -7.125 C 19.984375 -6 20.359375 -5.171875 20.796875 -4.640625 C 21.234375 -4.109375 21.609375 -3.671875 21.921875 -3.328125 C 22.234375 -2.984375 22.390625 -2.46875 22.390625 -1.78125 C 22.390625 -0.84375 22.03125 -0.21875 21.3125 0.09375 C 20.59375 0.40625 19.703125 0.5625 18.640625 0.5625 C 17.453125 0.5625 16.21875 0.46875 14.9375 0.28125 C 13.65625 0.09375 12.546875 0 11.609375 0 C 10.671875 0 9.5625 0.09375 8.28125 0.28125 C 7.007812 0.46875 5.8125 0.5625 4.6875 0.5625 C 3.625 0.5625 2.734375 0.40625 2.015625 0.09375 C 1.296875 -0.21875 0.9375 -0.84375 0.9375 -1.78125 Z M 0.9375 -1.78125 "/></g></g></g><g fill="#fbe8d8" fill-opacity="1"><g transform="translate(156.537858, 123.338205)"><g><path d="M 0.46875 -29.96875 C 0.46875 -31.59375 1.25 -32.40625 2.8125 -32.40625 L 5.53125 -32.40625 L 5.625 -36.34375 C 5.625 -39.71875 6.382812 -42.445312 7.90625 -44.53125 C 9.4375 -46.625 11.375 -48.15625 13.71875 -49.125 C 16.0625 -50.09375 18.390625 -50.578125 20.703125 -50.578125 C 24.265625 -50.578125 26.835938 -50.25 28.421875 -49.59375 C 30.015625 -48.9375 30.9375 -47.984375 31.1875 -46.734375 C 31.4375 -45.492188 31.25 -43.90625 30.625 -41.96875 C 30 -40.09375 29.359375 -38.859375 28.703125 -38.265625 C 28.054688 -37.671875 27.296875 -37.375 26.421875 -37.375 C 25.609375 -37.375 24.96875 -37.796875 24.5 -38.640625 C 24.03125 -39.484375 23.609375 -40.46875 23.234375 -41.59375 C 22.859375 -42.71875 22.390625 -43.703125 21.828125 -44.546875 C 21.265625 -45.390625 20.453125 -45.8125 19.390625 -45.8125 C 18.390625 -45.8125 17.515625 -45.46875 16.765625 -44.78125 C 16.015625 -44.09375 15.640625 -43.09375 15.640625 -41.78125 C 15.640625 -40.53125 15.96875 -39.484375 16.625 -38.640625 C 17.28125 -37.796875 18 -36.921875 18.78125 -36.015625 C 19.5625 -35.109375 20.109375 -33.90625 20.421875 -32.40625 L 23.515625 -32.40625 C 25.078125 -32.40625 25.859375 -31.59375 25.859375 -29.96875 C 25.859375 -28.414062 25.078125 -27.640625 23.515625 -27.640625 L 20.609375 -27.640625 L 20.609375 -12.265625 C 20.609375 -10.023438 20.765625 -8.328125 21.078125 -7.171875 C 21.390625 -6.015625 21.765625 -5.171875 22.203125 -4.640625 C 22.640625 -4.109375 23.015625 -3.671875 23.328125 -3.328125 C 23.640625 -2.984375 23.796875 -2.46875 23.796875 -1.78125 C 23.796875 -0.84375 23.4375 -0.21875 22.71875 0.09375 C 22 0.40625 21.109375 0.5625 20.046875 0.5625 C 18.859375 0.5625 17.625 0.46875 16.34375 0.28125 C 15.0625 0.09375 13.953125 0 13.015625 0 C 12.078125 0 10.96875 0.09375 9.6875 0.28125 C 8.414062 0.46875 7.21875 0.5625 6.09375 0.5625 C 5.03125 0.5625 4.140625 0.40625 3.421875 0.09375 C 2.703125 -0.21875 2.34375 -0.84375 2.34375 -1.78125 C 2.34375 -2.46875 2.5 -2.984375 2.8125 -3.328125 C 3.125 -3.671875 3.5 -4.109375 3.9375 -4.640625 C 4.375 -5.171875 4.75 -6 5.0625 -7.125 C 5.375 -8.25 5.53125 -9.898438 5.53125 -12.078125 L 5.53125 -27.640625 L 2.8125 -27.640625 C 1.25 -27.640625 0.46875 -28.414062 0.46875 -29.96875 Z M 0.46875 -29.96875 "/></g></g></g><g fill="#fbe8d8" fill-opacity="1"><g transform="translate(184.450714, 123.338205)"><g><path d="M 22.203125 0.5625 C 15.953125 0.5625 11 -1.132812 7.34375 -4.53125 C 3.695312 -7.9375 1.875 -12.671875 1.875 -18.734375 C 1.875 -24.859375 3.695312 -29.601562 7.34375 -32.96875 C 11 -36.34375 15.953125 -38.03125 22.203125 -38.03125 C 28.441406 -38.03125 33.390625 -36.34375 37.046875 -32.96875 C 40.703125 -29.601562 42.53125 -24.859375 42.53125 -18.734375 C 42.53125 -12.671875 40.703125 -7.9375 37.046875 -4.53125 C 33.390625 -1.132812 28.441406 0.5625 22.203125 0.5625 Z M 17.328125 -18.734375 C 17.328125 -16.171875 17.46875 -13.8125 17.75 -11.65625 C 18.03125 -9.507812 18.53125 -7.8125 19.25 -6.5625 C 19.96875 -5.3125 20.953125 -4.6875 22.203125 -4.6875 C 23.515625 -4.6875 24.53125 -5.3125 25.25 -6.5625 C 25.96875 -7.8125 26.453125 -9.507812 26.703125 -11.65625 C 26.953125 -13.8125 27.078125 -16.171875 27.078125 -18.734375 C 27.078125 -21.359375 26.953125 -23.726562 26.703125 -25.84375 C 26.453125 -27.96875 25.96875 -29.65625 25.25 -30.90625 C 24.53125 -32.15625 23.515625 -32.78125 22.203125 -32.78125 C 20.953125 -32.78125 19.96875 -32.15625 19.25 -30.90625 C 18.53125 -29.65625 18.03125 -27.96875 17.75 -25.84375 C 17.46875 -23.726562 17.328125 -21.359375 17.328125 -18.734375 Z M 17.328125 -18.734375 "/></g></g></g></g></g></svg>